Mingzat-Regular.ufo
<glyph name="exclam" format="2">
  <advance width="405"/>
  <unicode hex="0021"/>
  <outline>
    <contour>
      <point x="255" y="722" type="line"/>
      <point x="232" y="169" type="line"/>
      <point x="172" y="169" type="line"/>
      <point x="149" y="722" type="line"/>
    </contour>
    <contour>
      <point x="249" y="-0" type="line"/>
      <point x="149" y="-0" type="line"/>
      <point x="149" y="95" type="line"/>
      <point x="249" y="95" type="line"/>
    </contour>
  </outline>
</glyph>
<glyph name="quotedbl" format="2">
	<advance width="472"/>
	<unicode hex="0022"/>
	<outline>
		<contour>
			<point x="309" y="434" type="line"/>
			<point x="369" y="434" type="line"/>
			<point x="392" y="722" type="line"/>
			<point x="286" y="722" type="line"/>
		</contour>
		<contour>
			<point x="103" y="434" type="line"/>
			<point x="163" y="434" type="line"/>
			<point x="186" y="722" type="line"/>
			<point x="80" y="722" type="line"/>
		</contour>
	</outline>
</glyph>
<glyph name="numbersign" format="2">
  <advance width="760"/>
  <unicode hex="0023"/>
  <outline>
    <contour>
      <point x="703" y="513" type="line"/>
      <point x="682" y="444" type="line"/>
      <point x="540" y="444" type="line"/>
      <point x="498" y="308" type="line"/>
      <point x="639" y="308" type="line"/>
      <point x="618" y="239" type="line"/>
      <point x="477" y="239" type="line"/>
      <point x="406" y="0" type="line"/>
      <point x="332" y="0" type="line"/>
      <point x="403" y="239" type="line"/>
      <point x="273" y="239" type="line"/>
      <point x="201" y="0" type="line"/>
      <point x="127" y="0" type="line"/>
      <point x="199" y="239" type="line"/>
      <point x="57" y="239" type="line"/>
      <point x="78" y="308" type="line"/>
      <point x="220" y="308" type="line"/>
      <point x="262" y="444" type="line"/>
      <point x="121" y="444" type="line"/>
      <point x="142" y="513" type="line"/>
      <point x="283" y="513" type="line"/>
      <point x="347" y="722" type="line"/>
      <point x="422" y="722" type="line"/>
      <point x="357" y="513" type="line"/>
      <point x="488" y="513" type="line"/>
      <point x="552" y="722" type="line"/>
      <point x="626" y="722" type="line"/>
      <point x="562" y="513" type="line"/>
    </contour>
    <contour>
      <point x="467" y="444" type="line"/>
      <point x="336" y="444" type="line"/>
      <point x="293" y="308" type="line"/>
      <point x="425" y="308" type="line"/>
    </contour>
  </outline>
</glyph>
<glyph name="dollar" format="2">
  <advance width="569"/>
  <unicode hex="0024"/>
  <outline>
    <contour>
      <point x="529" y="195" type="curve" smooth="yes"/>
      <point x="529" y="64"/>
      <point x="457" y="-5"/>
      <point x="312" y="-13" type="curve"/>
      <point x="312" y="-104" type="line"/>
      <point x="261" y="-104" type="line"/>
      <point x="261" y="-14" type="line"/>
      <point x="188" y="-14"/>
      <point x="133" y="6"/>
      <point x="94" y="47" type="curve" smooth="yes"/>
      <point x="58" y="86"/>
      <point x="40" y="140"/>
      <point x="40" y="209" type="curve"/>
      <point x="141" y="209" type="line"/>
      <point x="141" y="118"/>
      <point x="181" y="73"/>
      <point x="261" y="73" type="curve"/>
      <point x="261" y="322" type="line"/>
      <point x="186" y="341"/>
      <point x="137" y="359"/>
      <point x="112" y="377" type="curve" smooth="yes"/>
      <point x="70" y="407"/>
      <point x="49" y="455"/>
      <point x="49" y="522" type="curve" smooth="yes"/>
      <point x="49" y="635"/>
      <point x="126" y="714"/>
      <point x="261" y="714" type="curve"/>
      <point x="261" y="795" type="line"/>
      <point x="312" y="795" type="line"/>
      <point x="312" y="715" type="line"/>
      <point x="375" y="715"/>
      <point x="424" y="696"/>
      <point x="457" y="657" type="curve" smooth="yes"/>
      <point x="486" y="623"/>
      <point x="500" y="579"/>
      <point x="500" y="524" type="curve"/>
      <point x="399" y="524" type="line"/>
      <point x="399" y="603"/>
      <point x="379" y="627"/>
      <point x="312" y="627" type="curve"/>
      <point x="312" y="408" type="line"/>
      <point x="379" y="393"/>
      <point x="424" y="379"/>
      <point x="446" y="366" type="curve" smooth="yes"/>
      <point x="501" y="332"/>
      <point x="529" y="275"/>
    </contour>
    <contour>
      <point x="261" y="420" type="curve"/>
      <point x="261" y="627" type="line"/>
      <point x="211" y="627"/>
      <point x="179" y="615"/>
      <point x="164" y="592" type="curve" smooth="yes"/>
      <point x="155" y="579"/>
      <point x="151" y="555"/>
      <point x="151" y="519" type="curve" smooth="yes"/>
      <point x="151" y="482"/>
      <point x="160" y="458"/>
      <point x="179" y="446" type="curve" smooth="yes"/>
      <point x="184" y="443"/>
      <point x="212" y="434"/>
    </contour>
    <contour>
      <point x="427" y="187" type="curve" smooth="yes"/>
      <point x="427" y="235"/>
      <point x="416" y="268"/>
      <point x="394" y="286" type="curve" smooth="yes"/>
      <point x="383" y="295"/>
      <point x="355" y="306"/>
      <point x="312" y="317" type="curve"/>
      <point x="312" y="74" type="line"/>
      <point x="393" y="75"/>
      <point x="427" y="103"/>
    </contour>
  </outline>
</glyph>
<glyph name="percent" format="2">
	<advance width="942"/>
	<unicode hex="0025"/>
	<outline>
		<contour>
			<point x="228" y="-14" type="line"/>
			<point x="297" y="-14" type="line"/>
			<point x="723" y="736" type="line"/>
			<point x="654" y="736" type="line"/>
		</contour>
		<contour>
			<point x="235" y="342" type="curve" smooth="yes"/>
			<point x="339" y="342"/>
			<point x="414" y="410"/>
			<point x="414" y="534" type="curve" smooth="yes"/>
			<point x="414" y="596"/>
			<point x="397" y="644"/>
			<point x="362" y="678" type="curve" smooth="yes"/>
			<point x="329" y="710"/>
			<point x="287" y="726"/>
			<point x="235" y="726" type="curve" smooth="yes"/>
			<point x="183" y="726"/>
			<point x="141" y="710"/>
			<point x="109" y="678" type="curve" smooth="yes"/>
			<point x="74" y="644"/>
			<point x="57" y="596"/>
			<point x="57" y="534" type="curve" smooth="yes"/>
			<point x="57" y="472"/>
			<point x="74" y="424"/>
			<point x="109" y="390" type="curve" smooth="yes"/>
			<point x="141" y="358"/>
			<point x="183" y="342"/>
		</contour>
		<contour>
			<point x="235" y="408" type="curve" smooth="yes"/>
			<point x="173" y="408"/>
			<point x="142" y="450"/>
			<point x="142" y="534" type="curve" smooth="yes"/>
			<point x="142" y="619"/>
			<point x="173" y="661"/>
			<point x="235" y="661" type="curve" smooth="yes"/>
			<point x="297" y="661"/>
			<point x="328" y="619"/>
			<point x="328" y="534" type="curve" smooth="yes"/>
			<point x="328" y="450"/>
			<point x="297" y="408"/>
		</contour>
		<contour>
			<point x="706" y="-4" type="curve" smooth="yes"/>
			<point x="810" y="-4"/>
			<point x="885" y="64"/>
			<point x="885" y="188" type="curve" smooth="yes"/>
			<point x="885" y="250"/>
			<point x="868" y="298"/>
			<point x="833" y="332" type="curve" smooth="yes"/>
			<point x="800" y="364"/>
			<point x="758" y="380"/>
			<point x="706" y="380" type="curve" smooth="yes"/>
			<point x="654" y="380"/>
			<point x="612" y="364"/>
			<point x="580" y="332" type="curve" smooth="yes"/>
			<point x="545" y="298"/>
			<point x="528" y="250"/>
			<point x="528" y="188" type="curve" smooth="yes"/>
			<point x="528" y="126"/>
			<point x="545" y="78"/>
			<point x="580" y="44" type="curve" smooth="yes"/>
			<point x="612" y="12"/>
			<point x="654" y="-4"/>
		</contour>
		<contour>
			<point x="706" y="62" type="curve" smooth="yes"/>
			<point x="644" y="62"/>
			<point x="613" y="104"/>
			<point x="613" y="188" type="curve" smooth="yes"/>
			<point x="613" y="273"/>
			<point x="644" y="315"/>
			<point x="706" y="315" type="curve" smooth="yes"/>
			<point x="768" y="315"/>
			<point x="799" y="273"/>
			<point x="799" y="188" type="curve" smooth="yes"/>
			<point x="799" y="104"/>
			<point x="768" y="62"/>
		</contour>
	</outline>
</glyph>
<glyph name="ampersand" format="2">
  <advance width="777"/>
  <unicode hex="0026"/>
  <outline>
    <contour>
      <point x="314" y="-13" type="curve" smooth="yes"/>
      <point x="401" y="-13"/>
      <point x="479" y="15"/>
      <point x="548" y="71" type="curve"/>
      <point x="588" y="33"/>
      <point x="614" y="9"/>
      <point x="626" y="0" type="curve"/>
      <point x="760" y="0" type="line"/>
      <point x="689" y="60"/>
      <point x="638" y="109"/>
      <point x="606" y="146" type="curve"/>
      <point x="631" y="194"/>
      <point x="647" y="245"/>
      <point x="654" y="299" type="curve" smooth="yes"/>
      <point x="658" y="328"/>
      <point x="660" y="369"/>
      <point x="660" y="422" type="curve"/>
      <point x="554" y="422" type="line"/>
      <point x="559" y="357"/>
      <point x="562" y="321"/>
      <point x="562" y="314" type="curve" smooth="yes"/>
      <point x="562" y="286"/>
      <point x="556" y="251"/>
      <point x="543" y="209" type="curve"/>
      <point x="446" y="307"/>
      <point x="383" y="374"/>
      <point x="354" y="411" type="curve"/>
      <point x="403" y="438"/>
      <point x="437" y="461"/>
      <point x="456" y="479" type="curve" smooth="yes"/>
      <point x="492" y="514"/>
      <point x="510" y="553"/>
      <point x="510" y="598" type="curve" smooth="yes"/>
      <point x="510" y="681"/>
      <point x="435" y="736"/>
      <point x="328" y="736" type="curve" smooth="yes"/>
      <point x="279" y="736"/>
      <point x="237" y="722"/>
      <point x="203" y="694" type="curve" smooth="yes"/>
      <point x="166" y="664"/>
      <point x="148" y="625"/>
      <point x="148" y="578" type="curve" smooth="yes"/>
      <point x="148" y="549"/>
      <point x="157" y="520"/>
      <point x="175" y="489" type="curve" smooth="yes"/>
      <point x="184" y="474"/>
      <point x="202" y="451"/>
      <point x="227" y="421" type="curve"/>
      <point x="177" y="398"/>
      <point x="141" y="374"/>
      <point x="120" y="350" type="curve" smooth="yes"/>
      <point x="86" y="313"/>
      <point x="69" y="266"/>
      <point x="69" y="207" type="curve" smooth="yes"/>
      <point x="69" y="142"/>
      <point x="93" y="89"/>
      <point x="142" y="47" type="curve" smooth="yes"/>
      <point x="189" y="7"/>
      <point x="246" y="-13"/>
    </contour>
    <contour>
      <point x="317" y="72" type="curve" smooth="yes"/>
      <point x="277" y="72"/>
      <point x="241" y="89"/>
      <point x="210" y="122" type="curve" smooth="yes"/>
      <point x="182" y="151"/>
      <point x="168" y="181"/>
      <point x="168" y="210" type="curve" smooth="yes"/>
      <point x="168" y="277"/>
      <point x="218" y="351"/>
      <point x="274" y="364" type="curve"/>
      <point x="351" y="271"/>
      <point x="425" y="193"/>
      <point x="496" y="132" type="curve"/>
      <point x="451" y="92"/>
      <point x="392" y="72"/>
    </contour>
    <contour>
      <point x="305" y="464" type="curve"/>
      <point x="266" y="511"/>
      <point x="247" y="552"/>
      <point x="247" y="585" type="curve" smooth="yes"/>
      <point x="247" y="636"/>
      <point x="278" y="661"/>
      <point x="340" y="661" type="curve" smooth="yes"/>
      <point x="388" y="661"/>
      <point x="428" y="629"/>
      <point x="428" y="589" type="curve" smooth="yes"/>
      <point x="428" y="579"/>
      <point x="426" y="569"/>
      <point x="421" y="559" type="curve" smooth="yes"/>
      <point x="410" y="536"/>
      <point x="396" y="517"/>
      <point x="377" y="503" type="curve" smooth="yes"/>
      <point x="362" y="492"/>
      <point x="338" y="479"/>
    </contour>
  </outline>
</glyph>
<glyph name="quotesingle" format="2">
	<advance width="405"/>
	<unicode hex="0027"/>
	<outline>
		<contour>
			<point x="172" y="434" type="line"/>
			<point x="232" y="434" type="line"/>
			<point x="255" y="722" type="line"/>
			<point x="149" y="722" type="line"/>
		</contour>
	</outline>
</glyph>
<glyph name="parenleft" format="2">
	<advance width="384"/>
	<unicode hex="0028"/>
	<outline>
		<contour>
			<point x="216" y="-132" type="curve"/>
			<point x="280" y="-132" type="line"/>
			<point x="225" y="23"/>
			<point x="198" y="167"/>
			<point x="198" y="302" type="curve" smooth="yes"/>
			<point x="198" y="437"/>
			<point x="225" y="582"/>
			<point x="280" y="736" type="curve"/>
			<point x="216" y="736" type="line"/>
			<point x="141" y="599"/>
			<point x="103" y="455"/>
			<point x="103" y="302" type="curve" smooth="yes"/>
			<point x="103" y="150"/>
			<point x="141" y="5"/>
		</contour>
	</outline>
</glyph>
<glyph name="parenright" format="2">
  <advance width="384"/>
  <unicode hex="0029"/>
  <outline>
    <contour>
      <point x="104" y="-132" type="curve"/>
      <point x="168" y="-132" type="line"/>
      <point x="243" y="5"/>
      <point x="281" y="150"/>
      <point x="281" y="302" type="curve" smooth="yes"/>
      <point x="281" y="455"/>
      <point x="243" y="599"/>
      <point x="168" y="736" type="curve"/>
      <point x="104" y="736" type="line"/>
      <point x="159" y="582"/>
      <point x="186" y="437"/>
      <point x="186" y="302" type="curve" smooth="yes"/>
      <point x="186" y="167"/>
      <point x="159" y="23"/>
    </contour>
  </outline>
</glyph>
<glyph name="asterisk" format="2">
  <advance width="689"/>
  <unicode hex="002A"/>
  <outline>
    <contour>
      <point x="545" y="488" type="line"/>
      <point x="380" y="509" type="line"/>
      <point x="481" y="375" type="line"/>
      <point x="409" y="335" type="line"/>
      <point x="345" y="482" type="line"/>
      <point x="281" y="335" type="line"/>
      <point x="208" y="375" type="line"/>
      <point x="309" y="509" type="line"/>
      <point x="144" y="488" type="line"/>
      <point x="144" y="570" type="line"/>
      <point x="309" y="549" type="line"/>
      <point x="208" y="683" type="line"/>
      <point x="281" y="722" type="line"/>
      <point x="345" y="576" type="line"/>
      <point x="409" y="722" type="line"/>
      <point x="481" y="683" type="line"/>
      <point x="380" y="549" type="line"/>
      <point x="545" y="570" type="line"/>
    </contour>
  </outline>
</glyph>
<glyph name="plus" format="2">
  <advance width="1054"/>
  <unicode hex="002B"/>
  <outline>
    <contour>
      <point x="827" y="269" type="line"/>
      <point x="558" y="269" type="line"/>
      <point x="558" y="0" type="line"/>
      <point x="496" y="0" type="line"/>
      <point x="496" y="269" type="line"/>
      <point x="227" y="269" type="line"/>
      <point x="227" y="331" type="line"/>
      <point x="496" y="331" type="line"/>
      <point x="496" y="600" type="line"/>
      <point x="558" y="600" type="line"/>
      <point x="558" y="331" type="line"/>
      <point x="827" y="331" type="line"/>
    </contour>
  </outline>
</glyph>
<glyph name="comma" format="2">
	<advance width="288"/>
	<unicode hex="002C"/>
	<outline>
		<contour>
			<point x="54" y="-127" type="line"/>
			<point x="124" y="-127" type="line"/>
			<point x="234" y="123" type="line"/>
			<point x="114" y="123" type="line"/>
		</contour>
	</outline>
</glyph>
<glyph name="hyphen" format="2">
	<advance width="332"/>
	<unicode hex="002D"/>
	<outline>
		<contour>
			<point x="46" y="203" type="line"/>
			<point x="286" y="203" type="line"/>
			<point x="286" y="285" type="line"/>
			<point x="46" y="285" type="line"/>
		</contour>
	</outline>
</glyph>
<glyph name="period" format="2">
  <advance width="299"/>
  <unicode hex="002E"/>
  <outline>
    <contour>
      <point x="219" y="-0" type="line"/>
      <point x="111" y="-0" type="line"/>
      <point x="111" y="123" type="line"/>
      <point x="219" y="123" type="line"/>
    </contour>
  </outline>
</glyph>
<glyph name="slash" format="2">
  <advance width="407"/>
  <unicode hex="002F"/>
  <outline>
    <contour>
      <point x="356" y="736" type="line"/>
      <point x="120" y="-52" type="line"/>
      <point x="51" y="-52" type="line"/>
      <point x="287" y="736" type="line"/>
    </contour>
  </outline>
</glyph>
<glyph name="zero" format="2">
  <advance width="573"/>
  <unicode hex="0030"/>
  <outline>
    <contour>
      <point x="516" y="375" type="curve" smooth="yes"/>
      <point x="516" y="263"/>
      <point x="504" y="177"/>
      <point x="479" y="117" type="curve" smooth="yes"/>
      <point x="443" y="30"/>
      <point x="379" y="-14"/>
      <point x="287" y="-14" type="curve" smooth="yes"/>
      <point x="195" y="-14"/>
      <point x="131" y="30"/>
      <point x="95" y="117" type="curve" smooth="yes"/>
      <point x="70" y="177"/>
      <point x="57" y="263"/>
      <point x="57" y="375" type="curve" smooth="yes"/>
      <point x="57" y="484"/>
      <point x="70" y="565"/>
      <point x="95" y="620" type="curve" smooth="yes"/>
      <point x="130" y="697"/>
      <point x="194" y="736"/>
      <point x="287" y="736" type="curve" smooth="yes"/>
      <point x="380" y="736"/>
      <point x="444" y="697"/>
      <point x="479" y="620" type="curve" smooth="yes"/>
      <point x="504" y="565"/>
      <point x="516" y="484"/>
    </contour>
    <contour>
      <point x="419" y="375" type="curve" smooth="yes"/>
      <point x="419" y="466"/>
      <point x="412" y="532"/>
      <point x="397" y="572" type="curve" smooth="yes"/>
      <point x="377" y="625"/>
      <point x="340" y="652"/>
      <point x="287" y="652" type="curve" smooth="yes"/>
      <point x="233" y="652"/>
      <point x="196" y="625"/>
      <point x="176" y="572" type="curve" smooth="yes"/>
      <point x="161" y="532"/>
      <point x="154" y="466"/>
      <point x="154" y="375" type="curve" smooth="yes"/>
      <point x="154" y="280"/>
      <point x="161" y="210"/>
      <point x="176" y="164" type="curve" smooth="yes"/>
      <point x="197" y="101"/>
      <point x="234" y="70"/>
      <point x="287" y="70" type="curve" smooth="yes"/>
      <point x="340" y="70"/>
      <point x="376" y="101"/>
      <point x="397" y="164" type="curve" smooth="yes"/>
      <point x="412" y="210"/>
      <point x="419" y="280"/>
    </contour>
  </outline>
</glyph>
<glyph name="one" format="2">
	<advance width="602"/>
	<unicode hex="0031"/>
	<outline>
		<contour>
			<point x="304" y="0" type="line"/>
			<point x="397" y="0" type="line"/>
			<point x="397" y="722" type="line"/>
			<point x="297" y="722" type="line"/>
			<point x="258" y="662"/>
			<point x="209" y="622"/>
			<point x="148" y="602" type="curve"/>
			<point x="148" y="519" type="line"/>
			<point x="181" y="525"/>
			<point x="217" y="541"/>
			<point x="256" y="566" type="curve" smooth="yes"/>
			<point x="272" y="577"/>
			<point x="288" y="589"/>
			<point x="304" y="602" type="curve"/>
		</contour>
	</outline>
</glyph>
<glyph name="two" format="2">
  <advance width="577"/>
  <unicode hex="0032"/>
  <outline>
    <contour>
      <point x="71" y="0" type="line"/>
      <point x="506" y="0" type="line"/>
      <point x="506" y="78" type="line"/>
      <point x="181" y="78" type="line"/>
      <point x="322" y="190"/>
      <point x="415" y="285"/>
      <point x="461" y="362" type="curve" smooth="yes"/>
      <point x="491" y="413"/>
      <point x="506" y="472"/>
      <point x="506" y="540" type="curve" smooth="yes"/>
      <point x="506" y="591"/>
      <point x="489" y="635"/>
      <point x="454" y="672" type="curve" smooth="yes"/>
      <point x="415" y="715"/>
      <point x="362" y="736"/>
      <point x="296" y="736" type="curve" smooth="yes"/>
      <point x="163" y="736"/>
      <point x="92" y="666"/>
      <point x="81" y="526" type="curve"/>
      <point x="183" y="526" type="line"/>
      <point x="192" y="611"/>
      <point x="230" y="653"/>
      <point x="296" y="653" type="curve" smooth="yes"/>
      <point x="376" y="653"/>
      <point x="406" y="613"/>
      <point x="406" y="526" type="curve" smooth="yes"/>
      <point x="406" y="473"/>
      <point x="392" y="424"/>
      <point x="364" y="379" type="curve" smooth="yes"/>
      <point x="315" y="300"/>
      <point x="217" y="204"/>
      <point x="71" y="93" type="curve"/>
    </contour>
  </outline>
</glyph>
<glyph name="three" format="2">
  <advance width="569"/>
  <unicode hex="0033"/>
  <outline>
    <contour>
      <point x="281" y="-14" type="curve" smooth="yes"/>
      <point x="418" y="-14"/>
      <point x="518" y="74"/>
      <point x="518" y="193" type="curve" smooth="yes"/>
      <point x="518" y="252"/>
      <point x="508" y="296"/>
      <point x="489" y="327" type="curve" smooth="yes"/>
      <point x="479" y="342"/>
      <point x="460" y="360"/>
      <point x="431" y="379" type="curve"/>
      <point x="481" y="412"/>
      <point x="506" y="467"/>
      <point x="506" y="546" type="curve" smooth="yes"/>
      <point x="506" y="655"/>
      <point x="414" y="736"/>
      <point x="279" y="736" type="curve" smooth="yes"/>
      <point x="154" y="736"/>
      <point x="83" y="669"/>
      <point x="66" y="534" type="curve"/>
      <point x="167" y="534" type="line"/>
      <point x="182" y="617"/>
      <point x="220" y="659"/>
      <point x="281" y="659" type="curve" smooth="yes"/>
      <point x="312" y="659"/>
      <point x="339" y="652"/>
      <point x="362" y="638" type="curve" smooth="yes"/>
      <point x="391" y="619"/>
      <point x="406" y="590"/>
      <point x="406" y="553" type="curve" smooth="yes"/>
      <point x="406" y="452"/>
      <point x="371" y="416"/>
      <point x="271" y="416" type="curve"/>
      <point x="271" y="336" type="line"/>
      <point x="376" y="336"/>
      <point x="418" y="297"/>
      <point x="418" y="185" type="curve" smooth="yes"/>
      <point x="418" y="120"/>
      <point x="352" y="63"/>
      <point x="284" y="63" type="curve" smooth="yes"/>
      <point x="207" y="63"/>
      <point x="165" y="105"/>
      <point x="157" y="190" type="curve"/>
      <point x="51" y="190" type="line"/>
      <point x="51" y="135"/>
      <point x="69" y="88"/>
      <point x="105" y="51" type="curve" smooth="yes"/>
      <point x="147" y="8"/>
      <point x="206" y="-14"/>
    </contour>
  </outline>
</glyph>
<glyph name="four" format="2">
  <advance width="567"/>
  <unicode hex="0034"/>
  <outline>
    <contour>
      <point x="533" y="176" type="line"/>
      <point x="444" y="176" type="line"/>
      <point x="444" y="0" type="line"/>
      <point x="351" y="0" type="line"/>
      <point x="351" y="176" type="line"/>
      <point x="34" y="176" type="line"/>
      <point x="34" y="281" type="line"/>
      <point x="334" y="722" type="line"/>
      <point x="444" y="722" type="line"/>
      <point x="444" y="259" type="line"/>
      <point x="533" y="259" type="line"/>
    </contour>
    <contour>
      <point x="351" y="259" type="line"/>
      <point x="351" y="612" type="line"/>
      <point x="114" y="259" type="line"/>
    </contour>
  </outline>
</glyph>
<glyph name="five" format="2">
	<advance width="573"/>
	<unicode hex="0035"/>
	<outline>
		<contour>
			<point x="297" y="-13" type="curve" smooth="yes"/>
			<point x="418" y="-13"/>
			<point x="508" y="116"/>
			<point x="513" y="237" type="curve"/>
			<point x="511" y="357"/>
			<point x="453" y="474"/>
			<point x="316" y="480" type="curve"/>
			<point x="260" y="480"/>
			<point x="209" y="463"/>
			<point x="170" y="412" type="curve"/>
			<point x="182" y="639" type="line"/>
			<point x="467" y="639" type="line"/>
			<point x="467" y="722" type="line"/>
			<point x="84" y="722" type="line"/>
			<point x="71" y="302" type="line"/>
			<point x="161" y="302" type="line"/>
			<point x="189" y="370"/>
			<point x="233" y="406"/>
			<point x="294" y="406" type="curve" smooth="yes"/>
			<point x="373" y="406"/>
			<point x="412" y="349"/>
			<point x="412" y="235" type="curve" smooth="yes"/>
			<point x="412" y="160"/>
			<point x="375" y="71"/>
			<point x="286" y="67" type="curve"/>
			<point x="213" y="67"/>
			<point x="165" y="104"/>
			<point x="165" y="176" type="curve"/>
			<point x="60" y="176" type="line"/>
			<point x="60" y="57"/>
			<point x="149" y="-13"/>
		</contour>
	</outline>
</glyph>
<glyph name="six" format="2">
	<advance width="569"/>
	<unicode hex="0036"/>
	<outline>
		<contour>
			<point x="293" y="-14" type="curve" smooth="yes"/>
			<point x="375" y="-14"/>
			<point x="435" y="13"/>
			<point x="474" y="68" type="curve" smooth="yes"/>
			<point x="503" y="109"/>
			<point x="517" y="158"/>
			<point x="517" y="216" type="curve" smooth="yes"/>
			<point x="517" y="275"/>
			<point x="505" y="324"/>
			<point x="481" y="362" type="curve" smooth="yes"/>
			<point x="445" y="418"/>
			<point x="386" y="446"/>
			<point x="304" y="446" type="curve" smooth="yes"/>
			<point x="263" y="446"/>
			<point x="231" y="437"/>
			<point x="206" y="418" type="curve" smooth="yes"/>
			<point x="194" y="409"/>
			<point x="175" y="387"/>
			<point x="150" y="354" type="curve"/>
			<point x="149" y="413"/>
			<point x="153" y="464"/>
			<point x="162" y="507" type="curve" smooth="yes"/>
			<point x="183" y="608"/>
			<point x="227" y="659"/>
			<point x="294" y="659" type="curve" smooth="yes"/>
			<point x="360" y="659"/>
			<point x="396" y="623"/>
			<point x="401" y="550" type="curve"/>
			<point x="497" y="550" type="line"/>
			<point x="489" y="613"/>
			<point x="470" y="660"/>
			<point x="440" y="689" type="curve" smooth="yes"/>
			<point x="408" y="720"/>
			<point x="360" y="736"/>
			<point x="296" y="736" type="curve" smooth="yes"/>
			<point x="133" y="736"/>
			<point x="52" y="605"/>
			<point x="52" y="343" type="curve" smooth="yes"/>
			<point x="52" y="212"/>
			<point x="65" y="124"/>
			<point x="90" y="78" type="curve" smooth="yes"/>
			<point x="123" y="17"/>
			<point x="191" y="-14"/>
		</contour>
		<contour>
			<point x="289" y="63" type="curve" smooth="yes"/>
			<point x="204" y="63"/>
			<point x="162" y="114"/>
			<point x="162" y="216" type="curve" smooth="yes"/>
			<point x="162" y="318"/>
			<point x="204" y="369"/>
			<point x="289" y="369" type="curve" smooth="yes"/>
			<point x="373" y="369"/>
			<point x="415" y="318"/>
			<point x="415" y="216" type="curve" smooth="yes"/>
			<point x="415" y="114"/>
			<point x="373" y="63"/>
		</contour>
	</outline>
</glyph>
<glyph name="seven" format="2">
	<advance width="573"/>
	<unicode hex="0037"/>
	<outline>
		<contour>
			<point x="164" y="0" type="line"/>
			<point x="274" y="0" type="line"/>
			<point x="509" y="622" type="line"/>
			<point x="509" y="722" type="line"/>
			<point x="64" y="722" type="line"/>
			<point x="64" y="642" type="line"/>
			<point x="419" y="642" type="line"/>
		</contour>
	</outline>
</glyph>
<glyph name="eight" format="2">
  <advance width="571"/>
  <unicode hex="0038"/>
  <outline>
    <contour>
      <point x="287" y="-13" type="curve" smooth="yes"/>
      <point x="348" y="-13"/>
      <point x="401" y="2"/>
      <point x="444" y="31" type="curve" smooth="yes"/>
      <point x="497" y="66"/>
      <point x="523" y="118"/>
      <point x="523" y="185" type="curve" smooth="yes"/>
      <point x="523" y="276"/>
      <point x="477" y="342"/>
      <point x="384" y="383" type="curve"/>
      <point x="463" y="420"/>
      <point x="502" y="478"/>
      <point x="502" y="559" type="curve" smooth="yes"/>
      <point x="502" y="616"/>
      <point x="479" y="660"/>
      <point x="432" y="693" type="curve" smooth="yes"/>
      <point x="392" y="722"/>
      <point x="344" y="736"/>
      <point x="287" y="736" type="curve" smooth="yes"/>
      <point x="230" y="736"/>
      <point x="182" y="722"/>
      <point x="141" y="693" type="curve" smooth="yes"/>
      <point x="94" y="660"/>
      <point x="71" y="616"/>
      <point x="71" y="559" type="curve" smooth="yes"/>
      <point x="71" y="478"/>
      <point x="109" y="420"/>
      <point x="186" y="383" type="curve"/>
      <point x="95" y="342"/>
      <point x="49" y="276"/>
      <point x="49" y="185" type="curve" smooth="yes"/>
      <point x="49" y="118"/>
      <point x="76" y="66"/>
      <point x="129" y="31" type="curve" smooth="yes"/>
      <point x="172" y="2"/>
      <point x="225" y="-13"/>
    </contour>
    <contour>
      <point x="287" y="64" type="curve" smooth="yes"/>
      <point x="192" y="64"/>
      <point x="144" y="111"/>
      <point x="144" y="205" type="curve" smooth="yes"/>
      <point x="144" y="288"/>
      <point x="199" y="343"/>
      <point x="287" y="343" type="curve" smooth="yes"/>
      <point x="374" y="343"/>
      <point x="426" y="288"/>
      <point x="426" y="205" type="curve" smooth="yes"/>
      <point x="426" y="111"/>
      <point x="380" y="64"/>
    </contour>
    <contour>
      <point x="287" y="420" type="curve" smooth="yes"/>
      <point x="218" y="420"/>
      <point x="163" y="468"/>
      <point x="163" y="539" type="curve" smooth="yes"/>
      <point x="163" y="614"/>
      <point x="208" y="659"/>
      <point x="287" y="659" type="curve" smooth="yes"/>
      <point x="366" y="659"/>
      <point x="411" y="614"/>
      <point x="411" y="539" type="curve" smooth="yes"/>
      <point x="411" y="468"/>
      <point x="356" y="420"/>
    </contour>
  </outline>
</glyph>
<glyph name="nine" format="2">
  <advance width="569"/>
  <unicode hex="0039"/>
  <outline>
    <contour>
      <point x="517" y="379" type="curve" smooth="yes"/>
      <point x="517" y="117"/>
      <point x="436" y="-14"/>
      <point x="273" y="-14" type="curve" smooth="yes"/>
      <point x="209" y="-14"/>
      <point x="161" y="2"/>
      <point x="129" y="33" type="curve" smooth="yes"/>
      <point x="99" y="62"/>
      <point x="80" y="109"/>
      <point x="72" y="172" type="curve"/>
      <point x="168" y="172" type="line"/>
      <point x="173" y="99"/>
      <point x="209" y="63"/>
      <point x="275" y="63" type="curve" smooth="yes"/>
      <point x="342" y="63"/>
      <point x="386" y="114"/>
      <point x="407" y="216" type="curve" smooth="yes"/>
      <point x="416" y="258"/>
      <point x="420" y="309"/>
      <point x="419" y="368" type="curve"/>
      <point x="394" y="335"/>
      <point x="375" y="313"/>
      <point x="363" y="304" type="curve" smooth="yes"/>
      <point x="338" y="285"/>
      <point x="306" y="276"/>
      <point x="265" y="276" type="curve" smooth="yes"/>
      <point x="183" y="276"/>
      <point x="124" y="304"/>
      <point x="88" y="360" type="curve" smooth="yes"/>
      <point x="64" y="398"/>
      <point x="52" y="447"/>
      <point x="52" y="506" type="curve" smooth="yes"/>
      <point x="52" y="564"/>
      <point x="66" y="613"/>
      <point x="95" y="654" type="curve" smooth="yes"/>
      <point x="134" y="709"/>
      <point x="194" y="736"/>
      <point x="276" y="736" type="curve" smooth="yes"/>
      <point x="378" y="736"/>
      <point x="446" y="706"/>
      <point x="479" y="645" type="curve" smooth="yes"/>
      <point x="504" y="598"/>
      <point x="517" y="510"/>
    </contour>
    <contour>
      <point x="407" y="506" type="curve" smooth="yes"/>
      <point x="407" y="608"/>
      <point x="365" y="659"/>
      <point x="280" y="659" type="curve" smooth="yes"/>
      <point x="196" y="659"/>
      <point x="154" y="608"/>
      <point x="154" y="506" type="curve" smooth="yes"/>
      <point x="154" y="404"/>
      <point x="196" y="353"/>
      <point x="280" y="353" type="curve" smooth="yes"/>
      <point x="365" y="353"/>
      <point x="407" y="404"/>
    </contour>
  </outline>
</glyph>
<glyph name="colon" format="2">
	<advance width="299"/>
	<unicode hex="003A"/>
	<outline>
		<contour>
			<point x="111" y="377" type="line"/>
			<point x="219" y="377" type="line"/>
			<point x="219" y="500" type="line"/>
			<point x="111" y="500" type="line"/>
		</contour>
		<contour>
			<point x="111" y="0" type="line"/>
			<point x="219" y="0" type="line"/>
			<point x="219" y="123" type="line"/>
			<point x="111" y="123" type="line"/>
		</contour>
	</outline>
</glyph>
<glyph name="semicolon" format="2">
	<advance width="288"/>
	<unicode hex="003B"/>
	<outline>
		<contour>
			<point x="54" y="-127" type="line"/>
			<point x="124" y="-127" type="line"/>
			<point x="234" y="123" type="line"/>
			<point x="114" y="123" type="line"/>
		</contour>
		<contour>
			<point x="104" y="377" type="line"/>
			<point x="212" y="377" type="line"/>
			<point x="212" y="500" type="line"/>
			<point x="104" y="500" type="line"/>
		</contour>
	</outline>
</glyph>
<glyph name="less" format="2">
	<advance width="1054"/>
	<unicode hex="003C"/>
	<outline>
		<contour>
			<point x="827" y="39" type="line"/>
			<point x="827" y="101" type="line"/>
			<point x="291" y="300" type="line"/>
			<point x="827" y="499" type="line"/>
			<point x="827" y="561" type="line"/>
			<point x="227" y="331" type="line"/>
			<point x="227" y="269" type="line"/>
		</contour>
	</outline>
</glyph>
<glyph name="equal" format="2">
  <advance width="1054"/>
  <unicode hex="003D"/>
  <outline>
    <contour>
      <point x="827" y="360" type="line"/>
      <point x="227" y="360" type="line"/>
      <point x="227" y="422" type="line"/>
      <point x="827" y="422" type="line"/>
    </contour>
    <contour>
      <point x="827" y="178" type="line"/>
      <point x="227" y="178" type="line"/>
      <point x="227" y="240" type="line"/>
      <point x="827" y="240" type="line"/>
    </contour>
  </outline>
</glyph>
<glyph name="greater" format="2">
  <advance width="1054"/>
  <unicode hex="003E"/>
  <outline>
    <contour>
      <point x="227" y="39" type="line"/>
      <point x="827" y="269" type="line"/>
      <point x="827" y="331" type="line"/>
      <point x="227" y="561" type="line"/>
      <point x="227" y="499" type="line"/>
      <point x="763" y="300" type="line"/>
      <point x="227" y="101" type="line"/>
    </contour>
  </outline>
</glyph>
<glyph name="question" format="2">
  <advance width="527"/>
  <unicode hex="003F"/>
  <outline>
    <contour>
      <point x="182" y="165" type="line"/>
      <point x="262" y="165" type="line"/>
      <point x="262" y="277" type="line" smooth="yes"/>
      <point x="262" y="297"/>
      <point x="279" y="322"/>
      <point x="314" y="352" type="curve" smooth="yes"/>
      <point x="371" y="400"/>
      <point x="404" y="428"/>
      <point x="411" y="436" type="curve" smooth="yes"/>
      <point x="446" y="475"/>
      <point x="463" y="514"/>
      <point x="463" y="555" type="curve" smooth="yes"/>
      <point x="463" y="610"/>
      <point x="439" y="655"/>
      <point x="392" y="689" type="curve" smooth="yes"/>
      <point x="349" y="720"/>
      <point x="297" y="736"/>
      <point x="237" y="736" type="curve" smooth="yes"/>
      <point x="143" y="736"/>
      <point x="73" y="692"/>
      <point x="28" y="605" type="curve"/>
      <point x="94" y="563" type="line"/>
      <point x="113" y="598"/>
      <point x="135" y="620"/>
      <point x="161" y="631" type="curve" smooth="yes"/>
      <point x="176" y="637"/>
      <point x="202" y="641"/>
      <point x="239" y="642" type="curve" smooth="yes"/>
      <point x="308" y="645"/>
      <point x="364" y="610"/>
      <point x="364" y="558" type="curve" smooth="yes"/>
      <point x="364" y="517"/>
      <point x="348" y="478"/>
      <point x="317" y="442" type="curve"/>
      <point x="308" y="433"/>
      <point x="279" y="406"/>
      <point x="229" y="363" type="curve" smooth="yes"/>
      <point x="198" y="336"/>
      <point x="182" y="312"/>
      <point x="182" y="293" type="curve" smooth="yes"/>
    </contour>
    <contour>
      <point x="172" y="0" type="line"/>
      <point x="272" y="0" type="line"/>
      <point x="272" y="95" type="line"/>
      <point x="172" y="95" type="line"/>
    </contour>
  </outline>
</glyph>
<glyph name="at" format="2">
  <advance width="1018"/>
  <unicode hex="0040"/>
  <outline>
    <contour>
      <point x="528" y="-178" type="curve" smooth="yes"/>
      <point x="585" y="-178"/>
      <point x="639" y="-169"/>
      <point x="690" y="-152" type="curve"/>
      <point x="690" y="-69" type="line"/>
      <point x="642" y="-82"/>
      <point x="585" y="-88"/>
      <point x="519" y="-88" type="curve" smooth="yes"/>
      <point x="403" y="-88"/>
      <point x="314" y="-54"/>
      <point x="253" y="14" type="curve" smooth="yes"/>
      <point x="194" y="79"/>
      <point x="165" y="172"/>
      <point x="165" y="291" type="curve" smooth="yes"/>
      <point x="165" y="408"/>
      <point x="203" y="496"/>
      <point x="280" y="555" type="curve" smooth="yes"/>
      <point x="341" y="602"/>
      <point x="417" y="626"/>
      <point x="508" y="626" type="curve" smooth="yes"/>
      <point x="737" y="626"/>
      <point x="852" y="517"/>
      <point x="852" y="298" type="curve" smooth="yes"/>
      <point x="852" y="225"/>
      <point x="839" y="172"/>
      <point x="812" y="138" type="curve" smooth="yes"/>
      <point x="792" y="113"/>
      <point x="773" y="103"/>
      <point x="754" y="108" type="curve"/>
      <point x="723" y="105"/>
      <point x="704" y="119"/>
      <point x="696" y="149" type="curve"/>
      <point x="696" y="485" type="line"/>
      <point x="606" y="485" type="line"/>
      <point x="606" y="426" type="line"/>
      <point x="591" y="441"/>
      <point x="575" y="456"/>
      <point x="560" y="471" type="curve"/>
      <point x="539" y="485"/>
      <point x="508" y="492"/>
      <point x="465" y="492" type="curve" smooth="yes"/>
      <point x="361" y="492"/>
      <point x="287" y="402"/>
      <point x="287" y="259" type="curve" smooth="yes"/>
      <point x="287" y="127"/>
      <point x="365" y="26"/>
      <point x="465" y="26" type="curve" smooth="yes"/>
      <point x="532" y="26"/>
      <point x="582" y="56"/>
      <point x="615" y="116" type="curve"/>
      <point x="644" y="53"/>
      <point x="689" y="21"/>
      <point x="748" y="21" type="curve" smooth="yes"/>
      <point x="805" y="21"/>
      <point x="853" y="49"/>
      <point x="892" y="105" type="curve" smooth="yes"/>
      <point x="930" y="159"/>
      <point x="949" y="223"/>
      <point x="949" y="298" type="curve" smooth="yes"/>
      <point x="949" y="433"/>
      <point x="908" y="537"/>
      <point x="826" y="610" type="curve" smooth="yes"/>
      <point x="747" y="681"/>
      <point x="639" y="716"/>
      <point x="500" y="716" type="curve" smooth="yes"/>
      <point x="384" y="716"/>
      <point x="285" y="679"/>
      <point x="203" y="605" type="curve" smooth="yes"/>
      <point x="114" y="525"/>
      <point x="69" y="420"/>
      <point x="69" y="290" type="curve" smooth="yes"/>
      <point x="69" y="123"/>
      <point x="118" y="-1"/>
      <point x="215" y="-81" type="curve" smooth="yes"/>
      <point x="294" y="-146"/>
      <point x="398" y="-178"/>
    </contour>
    <contour>
      <point x="492" y="95" type="curve" smooth="yes"/>
      <point x="419" y="95"/>
      <point x="382" y="152"/>
      <point x="382" y="266" type="curve" smooth="yes"/>
      <point x="382" y="311"/>
      <point x="391" y="347"/>
      <point x="408" y="375" type="curve" smooth="yes"/>
      <point x="427" y="406"/>
      <point x="455" y="422"/>
      <point x="492" y="422" type="curve" smooth="yes"/>
      <point x="528" y="422"/>
      <point x="556" y="407"/>
      <point x="576" y="376" type="curve" smooth="yes"/>
      <point x="593" y="348"/>
      <point x="602" y="311"/>
      <point x="602" y="266" type="curve" smooth="yes"/>
      <point x="602" y="220"/>
      <point x="593" y="181"/>
      <point x="575" y="149" type="curve" smooth="yes"/>
      <point x="554" y="113"/>
      <point x="527" y="95"/>
    </contour>
  </outline>
</glyph>
<glyph name="A" format="2">
  <advance width="754"/>
  <unicode hex="0041"/>
  <outline>
    <contour>
      <point x="17" y="0" type="line"/>
      <point x="120" y="0" type="line"/>
      <point x="199" y="193" type="line"/>
      <point x="553" y="193" type="line"/>
      <point x="631" y="0" type="line"/>
      <point x="737" y="0" type="line"/>
      <point x="430" y="722" type="line"/>
      <point x="320" y="722" type="line"/>
    </contour>
    <contour>
      <point x="238" y="278" type="line"/>
      <point x="373" y="611" type="line"/>
      <point x="511" y="278" type="line"/>
    </contour>
  </outline>
</glyph>
<glyph name="B" format="2">
  <advance width="694"/>
  <unicode hex="0042"/>
  <outline>
    <contour>
      <point x="625" y="201" type="curve" smooth="yes"/>
      <point x="625" y="88"/>
      <point x="525" y="-0"/>
      <point x="408" y="-0" type="curve" smooth="yes"/>
      <point x="92" y="-0" type="line"/>
      <point x="92" y="722" type="line"/>
      <point x="382" y="722" type="line" smooth="yes"/>
      <point x="445" y="722"/>
      <point x="495" y="708"/>
      <point x="534" y="679" type="curve" smooth="yes"/>
      <point x="577" y="647"/>
      <point x="599" y="602"/>
      <point x="599" y="544" type="curve" smooth="yes"/>
      <point x="599" y="468"/>
      <point x="558" y="415"/>
      <point x="476" y="385" type="curve"/>
      <point x="575" y="354"/>
      <point x="625" y="292"/>
    </contour>
    <contour>
      <point x="506" y="530" type="curve" smooth="yes"/>
      <point x="506" y="600"/>
      <point x="455" y="635"/>
      <point x="352" y="635" type="curve" smooth="yes"/>
      <point x="193" y="635" type="line"/>
      <point x="193" y="420" type="line"/>
      <point x="350" y="420" type="line" smooth="yes"/>
      <point x="454" y="420"/>
      <point x="506" y="457"/>
    </contour>
    <contour>
      <point x="528" y="212" type="curve" smooth="yes"/>
      <point x="528" y="295"/>
      <point x="467" y="337"/>
      <point x="345" y="337" type="curve" smooth="yes"/>
      <point x="193" y="337" type="line"/>
      <point x="193" y="87" type="line"/>
      <point x="350" y="87" type="line" smooth="yes"/>
      <point x="455" y="87"/>
      <point x="528" y="139"/>
    </contour>
  </outline>
</glyph>
<glyph name="C" format="2">
	<advance width="698"/>
	<unicode hex="0043"/>
	<outline>
		<contour>
			<point x="366" y="-14" type="curve" smooth="yes"/>
			<point x="447" y="-14"/>
			<point x="512" y="6"/>
			<point x="560" y="46" type="curve" smooth="yes"/>
			<point x="606" y="85"/>
			<point x="629" y="134"/>
			<point x="629" y="193" type="curve"/>
			<point x="528" y="193" type="line"/>
			<point x="528" y="109"/>
			<point x="474" y="67"/>
			<point x="365" y="67" type="curve" smooth="yes"/>
			<point x="301" y="67"/>
			<point x="253" y="88"/>
			<point x="222" y="130" type="curve" smooth="yes"/>
			<point x="188" y="177"/>
			<point x="171" y="252"/>
			<point x="171" y="356" type="curve" smooth="yes"/>
			<point x="171" y="557"/>
			<point x="237" y="657"/>
			<point x="369" y="657" type="curve" smooth="yes"/>
			<point x="472" y="657"/>
			<point x="524" y="614"/>
			<point x="524" y="529" type="curve"/>
			<point x="625" y="529" type="line"/>
			<point x="625" y="590"/>
			<point x="605" y="638"/>
			<point x="565" y="675" type="curve" smooth="yes"/>
			<point x="520" y="716"/>
			<point x="454" y="736"/>
			<point x="368" y="736" type="curve" smooth="yes"/>
			<point x="263" y="736"/>
			<point x="184" y="697"/>
			<point x="133" y="619" type="curve" smooth="yes"/>
			<point x="90" y="554"/>
			<point x="69" y="466"/>
			<point x="69" y="356" type="curve" smooth="yes"/>
			<point x="69" y="247"/>
			<point x="91" y="161"/>
			<point x="134" y="98" type="curve" smooth="yes"/>
			<point x="184" y="23"/>
			<point x="261" y="-14"/>
		</contour>
	</outline>
</glyph>
<glyph name="D" format="2">
	<advance width="741"/>
	<unicode hex="0044"/>
	<outline>
		<contour>
			<point x="92" y="0" type="line"/>
			<point x="317" y="0" type="line" smooth="yes"/>
			<point x="442" y="0"/>
			<point x="536" y="39"/>
			<point x="597" y="116" type="curve" smooth="yes"/>
			<point x="647" y="179"/>
			<point x="672" y="261"/>
			<point x="672" y="362" type="curve" smooth="yes"/>
			<point x="672" y="466"/>
			<point x="647" y="549"/>
			<point x="597" y="611" type="curve" smooth="yes"/>
			<point x="536" y="685"/>
			<point x="443" y="722"/>
			<point x="317" y="722" type="curve" smooth="yes"/>
			<point x="92" y="722" type="line"/>
		</contour>
		<contour>
			<point x="193" y="87" type="line"/>
			<point x="193" y="635" type="line"/>
			<point x="319" y="635" type="line" smooth="yes"/>
			<point x="478" y="635"/>
			<point x="573" y="537"/>
			<point x="573" y="362" type="curve" smooth="yes"/>
			<point x="573" y="189"/>
			<point x="476" y="87"/>
			<point x="319" y="87" type="curve" smooth="yes"/>
		</contour>
	</outline>
</glyph>
<glyph name="E" format="2">
	<advance width="629"/>
	<unicode hex="0045"/>
	<outline>
		<contour>
			<point x="92" y="0" type="line"/>
			<point x="549" y="0" type="line"/>
			<point x="549" y="87" type="line"/>
			<point x="193" y="87" type="line"/>
			<point x="193" y="326" type="line"/>
			<point x="529" y="326" type="line"/>
			<point x="529" y="413" type="line"/>
			<point x="193" y="413" type="line"/>
			<point x="193" y="635" type="line"/>
			<point x="539" y="635" type="line"/>
			<point x="539" y="722" type="line"/>
			<point x="92" y="722" type="line"/>
		</contour>
	</outline>
</glyph>
<glyph name="F" format="2">
	<advance width="592"/>
	<unicode hex="0046"/>
	<outline>
		<contour>
			<point x="92" y="0" type="line"/>
			<point x="193" y="0" type="line"/>
			<point x="193" y="326" type="line"/>
			<point x="492" y="326" type="line"/>
			<point x="492" y="413" type="line"/>
			<point x="193" y="413" type="line"/>
			<point x="193" y="635" type="line"/>
			<point x="512" y="635" type="line"/>
			<point x="512" y="722" type="line"/>
			<point x="92" y="722" type="line"/>
		</contour>
	</outline>
</glyph>
<glyph name="G" format="2">
	<advance width="780"/>
	<unicode hex="0047"/>
	<outline>
		<contour>
			<point x="426" y="-14" type="curve" smooth="yes"/>
			<point x="512" y="-14"/>
			<point x="600" y="3"/>
			<point x="690" y="36" type="curve"/>
			<point x="690" y="385" type="line"/>
			<point x="425" y="385" type="line"/>
			<point x="425" y="298" type="line"/>
			<point x="589" y="298" type="line"/>
			<point x="589" y="98" type="line"/>
			<point x="535" y="82"/>
			<point x="477" y="74"/>
			<point x="415" y="74" type="curve" smooth="yes"/>
			<point x="330" y="74"/>
			<point x="266" y="106"/>
			<point x="225" y="170" type="curve" smooth="yes"/>
			<point x="190" y="224"/>
			<point x="172" y="297"/>
			<point x="172" y="388" type="curve" smooth="yes"/>
			<point x="172" y="467"/>
			<point x="192" y="529"/>
			<point x="232" y="574" type="curve" smooth="yes"/>
			<point x="276" y="624"/>
			<point x="341" y="649"/>
			<point x="427" y="649" type="curve" smooth="yes"/>
			<point x="474" y="649"/>
			<point x="514" y="636"/>
			<point x="548" y="611" type="curve" smooth="yes"/>
			<point x="578" y="589"/>
			<point x="593" y="566"/>
			<point x="593" y="542" type="curve"/>
			<point x="694" y="542" type="line"/>
			<point x="694" y="588"/>
			<point x="672" y="630"/>
			<point x="627" y="668" type="curve" smooth="yes"/>
			<point x="574" y="713"/>
			<point x="505" y="736"/>
			<point x="418" y="736" type="curve" smooth="yes"/>
			<point x="312" y="736"/>
			<point x="227" y="702"/>
			<point x="162" y="635" type="curve" smooth="yes"/>
			<point x="100" y="570"/>
			<point x="69" y="489"/>
			<point x="69" y="390" type="curve" smooth="yes"/>
			<point x="69" y="121"/>
			<point x="188" y="-14"/>
		</contour>
	</outline>
</glyph>
<glyph name="H" format="2">
	<advance width="733"/>
	<unicode hex="0048"/>
	<outline>
		<contour>
			<point x="92" y="0" type="line"/>
			<point x="193" y="0" type="line"/>
			<point x="193" y="326" type="line"/>
			<point x="540" y="326" type="line"/>
			<point x="540" y="0" type="line"/>
			<point x="641" y="0" type="line"/>
			<point x="641" y="722" type="line"/>
			<point x="540" y="722" type="line"/>
			<point x="540" y="413" type="line"/>
			<point x="193" y="413" type="line"/>
			<point x="193" y="722" type="line"/>
			<point x="92" y="722" type="line"/>
		</contour>
	</outline>
</glyph>
<glyph name="I" format="2">
	<advance width="285"/>
	<unicode hex="0049"/>
	<outline>
		<contour>
			<point x="92" y="0" type="line"/>
			<point x="193" y="0" type="line"/>
			<point x="193" y="722" type="line"/>
			<point x="92" y="722" type="line"/>
		</contour>
	</outline>
</glyph>
<glyph name="J" format="2">
	<advance width="590"/>
	<unicode hex="004A"/>
	<outline>
		<contour>
			<point x="277" y="-14" type="curve" smooth="yes"/>
			<point x="408" y="-14"/>
			<point x="498" y="79"/>
			<point x="498" y="215" type="curve" smooth="yes"/>
			<point x="498" y="722" type="line"/>
			<point x="397" y="722" type="line"/>
			<point x="397" y="215" type="line" smooth="yes"/>
			<point x="397" y="170"/>
			<point x="385" y="134"/>
			<point x="362" y="109" type="curve" smooth="yes"/>
			<point x="341" y="86"/>
			<point x="315" y="74"/>
			<point x="282" y="74" type="curve" smooth="yes"/>
			<point x="207" y="74"/>
			<point x="169" y="114"/>
			<point x="167" y="194" type="curve"/>
			<point x="69" y="194" type="line"/>
			<point x="69" y="71"/>
			<point x="152" y="-14"/>
		</contour>
	</outline>
</glyph>
<glyph name="K" format="2">
	<advance width="680"/>
	<unicode hex="004B"/>
	<outline>
		<contour>
			<point x="92" y="0" type="line"/>
			<point x="193" y="0" type="line"/>
			<point x="193" y="381" type="line"/>
			<point x="517" y="0" type="line"/>
			<point x="652" y="0" type="line"/>
			<point x="308" y="411" type="line"/>
			<point x="615" y="722" type="line"/>
			<point x="491" y="722" type="line"/>
			<point x="193" y="415" type="line"/>
			<point x="193" y="722" type="line"/>
			<point x="92" y="722" type="line"/>
		</contour>
	</outline>
</glyph>
<glyph name="L" format="2">
  <advance width="546"/>
  <unicode hex="004C"/>
  <outline>
    <contour>
      <point x="512" y="0" type="line"/>
      <point x="92" y="0" type="line"/>
      <point x="92" y="722" type="line"/>
      <point x="193" y="722" type="line"/>
      <point x="193" y="87" type="line"/>
      <point x="512" y="87" type="line"/>
    </contour>
  </outline>
</glyph>
<glyph name="M" format="2">
	<advance width="922"/>
	<unicode hex="004D"/>
	<outline>
		<contour>
			<point x="92" y="0" type="line"/>
			<point x="193" y="0" type="line"/>
			<point x="193" y="622" type="line"/>
			<point x="420" y="0" type="line"/>
			<point x="500" y="0" type="line"/>
			<point x="729" y="627" type="line"/>
			<point x="729" y="0" type="line"/>
			<point x="830" y="0" type="line"/>
			<point x="830" y="722" type="line"/>
			<point x="671" y="722" type="line"/>
			<point x="460" y="140" type="line"/>
			<point x="251" y="722" type="line"/>
			<point x="92" y="722" type="line"/>
		</contour>
	</outline>
</glyph>
<glyph name="N" format="2">
	<advance width="747"/>
	<unicode hex="004E"/>
	<outline>
		<contour>
			<point x="92" y="0" type="line"/>
			<point x="193" y="0" type="line"/>
			<point x="193" y="592" type="line"/>
			<point x="511" y="0" type="line"/>
			<point x="655" y="0" type="line"/>
			<point x="655" y="722" type="line"/>
			<point x="554" y="722" type="line"/>
			<point x="554" y="130" type="line"/>
			<point x="235" y="722" type="line"/>
			<point x="92" y="722" type="line"/>
		</contour>
	</outline>
</glyph>
<glyph name="P" format="2">
  <advance width="644"/>
  <unicode hex="0050"/>
  <outline>
    <contour>
      <point x="92" y="0" type="line"/>
      <point x="193" y="0" type="line"/>
      <point x="193" y="306" type="line"/>
      <point x="296" y="306" type="line" smooth="yes"/>
      <point x="381" y="306"/>
      <point x="445" y="318"/>
      <point x="488" y="342" type="curve" smooth="yes"/>
      <point x="546" y="375"/>
      <point x="575" y="432"/>
      <point x="575" y="514" type="curve" smooth="yes"/>
      <point x="575" y="596"/>
      <point x="546" y="653"/>
      <point x="488" y="686" type="curve" smooth="yes"/>
      <point x="445" y="710"/>
      <point x="381" y="722"/>
      <point x="296" y="722" type="curve" smooth="yes"/>
      <point x="92" y="722" type="line"/>
    </contour>
    <contour>
      <point x="193" y="394" type="line"/>
      <point x="193" y="635" type="line"/>
      <point x="299" y="635" type="line" smooth="yes"/>
      <point x="423" y="635"/>
      <point x="478" y="602"/>
      <point x="478" y="514" type="curve" smooth="yes"/>
      <point x="478" y="426"/>
      <point x="423" y="394"/>
      <point x="299" y="394" type="curve" smooth="yes"/>
    </contour>
  </outline>
</glyph>
<glyph name="Q" format="2">
	<advance width="798"/>
	<unicode hex="0051"/>
	<outline>
		<contour>
			<point x="397" y="-14" type="curve" smooth="yes"/>
			<point x="424" y="-14"/>
			<point x="456" y="-9"/>
			<point x="493" y="0" type="curve"/>
			<point x="764" y="0" type="line"/>
			<point x="764" y="69" type="line"/>
			<point x="615" y="69" type="line"/>
			<point x="687" y="135"/>
			<point x="723" y="237"/>
			<point x="723" y="375" type="curve" smooth="yes"/>
			<point x="723" y="483"/>
			<point x="696" y="569"/>
			<point x="643" y="633" type="curve" smooth="yes"/>
			<point x="586" y="702"/>
			<point x="504" y="736"/>
			<point x="397" y="736" type="curve" smooth="yes"/>
			<point x="290" y="736"/>
			<point x="207" y="702"/>
			<point x="149" y="633" type="curve" smooth="yes"/>
			<point x="96" y="569"/>
			<point x="69" y="483"/>
			<point x="69" y="375" type="curve" smooth="yes"/>
			<point x="69" y="265"/>
			<point x="96" y="175"/>
			<point x="149" y="104" type="curve" smooth="yes"/>
			<point x="208" y="25"/>
			<point x="291" y="-14"/>
		</contour>
		<contour>
			<point x="397" y="74" type="curve" smooth="yes"/>
			<point x="316" y="74"/>
			<point x="257" y="105"/>
			<point x="219" y="168" type="curve" smooth="yes"/>
			<point x="188" y="219"/>
			<point x="172" y="288"/>
			<point x="172" y="375" type="curve" smooth="yes"/>
			<point x="172" y="558"/>
			<point x="247" y="649"/>
			<point x="397" y="649" type="curve" smooth="yes"/>
			<point x="546" y="649"/>
			<point x="620" y="558"/>
			<point x="620" y="375" type="curve" smooth="yes"/>
			<point x="620" y="288"/>
			<point x="605" y="219"/>
			<point x="574" y="168" type="curve" smooth="yes"/>
			<point x="537" y="105"/>
			<point x="478" y="74"/>
		</contour>
	</outline>
</glyph>
<glyph name="R" format="2">
  <advance width="647"/>
  <unicode hex="0052"/>
  <outline>
    <contour>
      <point x="599" y="-0" type="curve"/>
      <point x="497" y="-0" type="line"/>
      <point x="491" y="36"/>
      <point x="480" y="94"/>
      <point x="464" y="174" type="curve" smooth="yes"/>
      <point x="449" y="247"/>
      <point x="431" y="291"/>
      <point x="411" y="307" type="curve" smooth="yes"/>
      <point x="393" y="321"/>
      <point x="350" y="328"/>
      <point x="281" y="328" type="curve" smooth="yes"/>
      <point x="193" y="328" type="line"/>
      <point x="193" y="-0" type="line"/>
      <point x="92" y="-0" type="line"/>
      <point x="92" y="722" type="line"/>
      <point x="321" y="722" type="line" smooth="yes"/>
      <point x="409" y="722"/>
      <point x="473" y="708"/>
      <point x="514" y="679" type="curve" smooth="yes"/>
      <point x="559" y="648"/>
      <point x="581" y="596"/>
      <point x="581" y="525" type="curve" smooth="yes"/>
      <point x="581" y="464"/>
      <point x="536" y="412"/>
      <point x="446" y="369" type="curve"/>
      <point x="460" y="364"/>
      <point x="473" y="359"/>
      <point x="484" y="352" type="curve" smooth="yes"/>
      <point x="511" y="335"/>
      <point x="530" y="315"/>
      <point x="539" y="292" type="curve" smooth="yes"/>
      <point x="545" y="277"/>
      <point x="552" y="236"/>
      <point x="561" y="171" type="curve" smooth="yes"/>
      <point x="570" y="102"/>
      <point x="583" y="45"/>
    </contour>
    <contour>
      <point x="480" y="525" type="curve" smooth="yes"/>
      <point x="480" y="598"/>
      <point x="426" y="635"/>
      <point x="318" y="635" type="curve" smooth="yes"/>
      <point x="193" y="635" type="line"/>
      <point x="193" y="415" type="line"/>
      <point x="318" y="415" type="line" smooth="yes"/>
      <point x="426" y="415"/>
      <point x="480" y="452"/>
    </contour>
  </outline>
</glyph>
<glyph name="T" format="2">
  <advance width="619"/>
  <unicode hex="0054"/>
  <outline>
    <contour>
      <point x="259" y="0" type="line"/>
      <point x="360" y="0" type="line"/>
      <point x="360" y="635" type="line"/>
      <point x="596" y="635" type="line"/>
      <point x="596" y="722" type="line"/>
      <point x="23" y="722" type="line"/>
      <point x="23" y="635" type="line"/>
      <point x="259" y="635" type="line"/>
    </contour>
  </outline>
</glyph>
<glyph name="V" format="2">
  <advance width="658"/>
  <unicode hex="0056"/>
  <outline>
    <contour>
      <point x="274" y="0" type="line"/>
      <point x="384" y="0" type="line"/>
      <point x="641" y="722" type="line"/>
      <point x="528" y="722" type="line"/>
      <point x="329" y="130" type="line"/>
      <point x="130" y="722" type="line"/>
      <point x="17" y="722" type="line"/>
    </contour>
  </outline>
</glyph>
<glyph name="W" format="2">
	<advance width="976"/>
	<unicode hex="0057"/>
	<outline>
		<contour>
			<point x="231" y="0" type="line"/>
			<point x="321" y="0" type="line"/>
			<point x="488" y="602" type="line"/>
			<point x="655" y="0" type="line"/>
			<point x="745" y="0" type="line"/>
			<point x="959" y="722" type="line"/>
			<point x="853" y="722" type="line"/>
			<point x="700" y="150" type="line"/>
			<point x="548" y="722" type="line"/>
			<point x="428" y="722" type="line"/>
			<point x="276" y="150" type="line"/>
			<point x="123" y="722" type="line"/>
			<point x="17" y="722" type="line"/>
		</contour>
	</outline>
</glyph>
<glyph name="X" format="2">
  <advance width="710"/>
  <unicode hex="0058"/>
  <outline>
    <contour>
      <point x="682" y="-0" type="line"/>
      <point x="554" y="-0" type="line"/>
      <point x="348" y="314" type="line"/>
      <point x="146" y="-0" type="line"/>
      <point x="28" y="-0" type="line"/>
      <point x="293" y="385" type="line"/>
      <point x="62" y="722" type="line"/>
      <point x="190" y="722" type="line"/>
      <point x="362" y="456" type="line"/>
      <point x="529" y="722" type="line"/>
      <point x="647" y="722" type="line"/>
      <point x="416" y="385" type="line"/>
    </contour>
  </outline>
</glyph>
<glyph name="Y" format="2">
	<advance width="670"/>
	<unicode hex="0059"/>
	<outline>
		<contour>
			<point x="284" y="0" type="line"/>
			<point x="385" y="0" type="line"/>
			<point x="385" y="287" type="line"/>
			<point x="653" y="722" type="line"/>
			<point x="539" y="722" type="line"/>
			<point x="341" y="375" type="line"/>
			<point x="140" y="722" type="line"/>
			<point x="17" y="722" type="line"/>
			<point x="284" y="287" type="line"/>
		</contour>
	</outline>
</glyph>
<glyph name="Z" format="2">
	<advance width="628"/>
	<unicode hex="005A"/>
	<outline>
		<contour>
			<point x="51" y="0" type="line"/>
			<point x="577" y="0" type="line"/>
			<point x="577" y="87" type="line"/>
			<point x="161" y="87" type="line"/>
			<point x="567" y="612" type="line"/>
			<point x="567" y="722" type="line"/>
			<point x="71" y="722" type="line"/>
			<point x="71" y="635" type="line"/>
			<point x="457" y="635" type="line"/>
			<point x="51" y="110" type="line"/>
		</contour>
	</outline>
</glyph>
<glyph name="bracketleft" format="2">
	<advance width="425"/>
	<unicode hex="005B"/>
	<outline>
		<contour>
			<point x="120" y="-198" type="line"/>
			<point x="306" y="-198" type="line"/>
			<point x="306" y="-147" type="line"/>
			<point x="206" y="-147" type="line"/>
			<point x="206" y="671" type="line"/>
			<point x="306" y="671" type="line"/>
			<point x="306" y="722" type="line"/>
			<point x="120" y="722" type="line"/>
		</contour>
	</outline>
</glyph>
<glyph name="backslash" format="2">
  <advance width="407"/>
  <unicode hex="005C"/>
  <outline>
    <contour>
      <point x="287" y="-52" type="line"/>
      <point x="356" y="-52" type="line"/>
      <point x="120" y="736" type="line"/>
      <point x="51" y="736" type="line"/>
    </contour>
  </outline>
</glyph>
<glyph name="bracketright" format="2">
  <advance width="425"/>
  <unicode hex="005D"/>
  <outline>
    <contour>
      <point x="306" y="-198" type="line"/>
      <point x="120" y="-198" type="line"/>
      <point x="120" y="-147" type="line"/>
      <point x="219" y="-147" type="line"/>
      <point x="219" y="671" type="line"/>
      <point x="120" y="671" type="line"/>
      <point x="120" y="722" type="line"/>
      <point x="306" y="722" type="line"/>
    </contour>
  </outline>
</glyph>
<glyph name="asciicircum" format="2">
	<advance width="490"/>
	<unicode hex="005E"/>
	<outline>
		<contour>
			<point x="57" y="415" type="line"/>
			<point x="102" y="415" type="line"/>
			<point x="245" y="737" type="line"/>
			<point x="388" y="415" type="line"/>
			<point x="433" y="415" type="line"/>
			<point x="267" y="775" type="line"/>
			<point x="223" y="775" type="line"/>
		</contour>
	</outline>
</glyph>
<glyph name="underscore" format="2">
  <advance width="557"/>
  <unicode hex="005F"/>
  <outline>
    <contour>
      <point x="557" y="-365" type="line"/>
      <point x="-0" y="-365" type="line"/>
      <point x="-0" y="-288" type="line"/>
      <point x="557" y="-288" type="line"/>
    </contour>
  </outline>
</glyph>
<glyph name="grave" format="2">
	<advance width="235"/>
	<unicode hex="0060"/>
	<outline>
		<contour>
			<point x="112" y="600" type="line"/>
			<point x="173" y="600" type="line"/>
			<point x="73" y="771" type="line"/>
			<point x="-28" y="771" type="line"/>
		</contour>
	</outline>
</glyph>
<glyph name="b" format="2">
  <advance width="607"/>
  <unicode hex="0062"/>
  <outline>
    <contour>
      <point x="550" y="271" type="curve" smooth="yes"/>
      <point x="550" y="184"/>
      <point x="527" y="113"/>
      <point x="482" y="60" type="curve" smooth="yes"/>
      <point x="442" y="11"/>
      <point x="394" y="-13"/>
      <point x="339" y="-13" type="curve" smooth="yes"/>
      <point x="274" y="-13"/>
      <point x="218" y="11"/>
      <point x="170" y="59" type="curve"/>
      <point x="170" y="0" type="line"/>
      <point x="80" y="0" type="line"/>
      <point x="80" y="722" type="line"/>
      <point x="167" y="722" type="line"/>
      <point x="167" y="431" type="line"/>
      <point x="203" y="486"/>
      <point x="259" y="513"/>
      <point x="336" y="513" type="curve" smooth="yes"/>
      <point x="410" y="513"/>
      <point x="466" y="484"/>
      <point x="505" y="426" type="curve" smooth="yes"/>
      <point x="535" y="381"/>
      <point x="550" y="330"/>
    </contour>
    <contour>
      <point x="454" y="262" type="curve" smooth="yes"/>
      <point x="454" y="317"/>
      <point x="444" y="362"/>
      <point x="423" y="396" type="curve" smooth="yes"/>
      <point x="398" y="435"/>
      <point x="362" y="455"/>
      <point x="314" y="455" type="curve" smooth="yes"/>
      <point x="267" y="455"/>
      <point x="231" y="435"/>
      <point x="204" y="395" type="curve" smooth="yes"/>
      <point x="180" y="359"/>
      <point x="168" y="315"/>
      <point x="168" y="262" type="curve" smooth="yes"/>
      <point x="168" y="123"/>
      <point x="216" y="54"/>
      <point x="311" y="54" type="curve" smooth="yes"/>
      <point x="392" y="54"/>
      <point x="454" y="135"/>
    </contour>
  </outline>
</glyph>
<glyph name="c" format="2">
	<advance width="535"/>
	<unicode hex="0063"/>
	<outline>
		<contour>
			<point x="278" y="-13" type="curve" smooth="yes"/>
			<point x="347" y="-13"/>
			<point x="399" y="6"/>
			<point x="434" y="44" type="curve" smooth="yes"/>
			<point x="463" y="75"/>
			<point x="478" y="117"/>
			<point x="478" y="169" type="curve"/>
			<point x="389" y="169" type="line"/>
			<point x="389" y="140"/>
			<point x="381" y="116"/>
			<point x="366" y="95" type="curve" smooth="yes"/>
			<point x="346" y="68"/>
			<point x="317" y="55"/>
			<point x="279" y="55" type="curve" smooth="yes"/>
			<point x="191" y="55"/>
			<point x="147" y="120"/>
			<point x="147" y="250" type="curve" smooth="yes"/>
			<point x="147" y="380"/>
			<point x="185" y="445"/>
			<point x="262" y="445" type="curve" smooth="yes"/>
			<point x="345" y="445"/>
			<point x="386" y="417"/>
			<point x="386" y="362" type="curve" smooth="yes"/>
			<point x="386" y="356"/>
			<point x="385" y="350"/>
			<point x="384" y="343" type="curve"/>
			<point x="473" y="343" type="line"/>
			<point x="474" y="350"/>
			<point x="474" y="357"/>
			<point x="474" y="364" type="curve" smooth="yes"/>
			<point x="474" y="409"/>
			<point x="457" y="445"/>
			<point x="424" y="471" type="curve" smooth="yes"/>
			<point x="388" y="499"/>
			<point x="336" y="513"/>
			<point x="269" y="513" type="curve" smooth="yes"/>
			<point x="121" y="513"/>
			<point x="57" y="427"/>
			<point x="57" y="250" type="curve" smooth="yes"/>
			<point x="57" y="75"/>
			<point x="131" y="-13"/>
		</contour>
	</outline>
</glyph>
<glyph name="d" format="2">
	<advance width="608"/>
	<unicode hex="0064"/>
	<outline>
		<contour>
			<point x="289" y="-13" type="curve" smooth="yes"/>
			<point x="344" y="-13"/>
			<point x="393" y="10"/>
			<point x="438" y="57" type="curve"/>
			<point x="438" y="0" type="line"/>
			<point x="528" y="0" type="line"/>
			<point x="528" y="722" type="line"/>
			<point x="438" y="722" type="line"/>
			<point x="438" y="435" type="line"/>
			<point x="405" y="487"/>
			<point x="347" y="513"/>
			<point x="264" y="513" type="curve" smooth="yes"/>
			<point x="193" y="513"/>
			<point x="140" y="483"/>
			<point x="103" y="422" type="curve" smooth="yes"/>
			<point x="72" y="373"/>
			<point x="57" y="312"/>
			<point x="57" y="240" type="curve" smooth="yes"/>
			<point x="57" y="169"/>
			<point x="81" y="109"/>
			<point x="130" y="59" type="curve" smooth="yes"/>
			<point x="176" y="11"/>
			<point x="229" y="-13"/>
		</contour>
		<contour>
			<point x="293" y="59" type="curve" smooth="yes"/>
			<point x="208" y="59"/>
			<point x="149" y="145"/>
			<point x="149" y="252" type="curve" smooth="yes"/>
			<point x="149" y="305"/>
			<point x="159" y="350"/>
			<point x="179" y="387" type="curve" smooth="yes"/>
			<point x="202" y="431"/>
			<point x="236" y="453"/>
			<point x="281" y="453" type="curve" smooth="yes"/>
			<point x="369" y="453"/>
			<point x="435" y="358"/>
			<point x="435" y="246" type="curve" smooth="yes"/>
			<point x="435" y="197"/>
			<point x="424" y="155"/>
			<point x="402" y="120" type="curve" smooth="yes"/>
			<point x="375" y="79"/>
			<point x="339" y="59"/>
		</contour>
	</outline>
</glyph>
<glyph name="f" format="2">
  <advance width="331"/>
  <unicode hex="0066"/>
  <outline>
    <contour>
      <point x="111" y="0" type="line"/>
      <point x="201" y="0" type="line"/>
      <point x="201" y="435" type="line"/>
      <point x="321" y="435" type="line"/>
      <point x="321" y="500" type="line"/>
      <point x="201" y="500" type="line"/>
      <point x="201" y="573" type="line" smooth="yes"/>
      <point x="201" y="598"/>
      <point x="204" y="618"/>
      <point x="210" y="631" type="curve" smooth="yes"/>
      <point x="219" y="648"/>
      <point x="222" y="649"/>
      <point x="231" y="654" type="curve" smooth="yes"/>
      <point x="240" y="659"/>
      <point x="257" y="661"/>
      <point x="282" y="660" type="curve" smooth="yes"/>
      <point x="300" y="659"/>
      <point x="316" y="655"/>
      <point x="331" y="648" type="curve"/>
      <point x="331" y="722" type="line"/>
      <point x="312" y="729"/>
      <point x="290" y="732"/>
      <point x="266" y="732" type="curve" smooth="yes"/>
      <point x="245" y="732"/>
      <point x="226" y="731"/>
      <point x="209" y="728" type="curve" smooth="yes"/>
      <point x="195" y="725"/>
      <point x="183" y="720"/>
      <point x="172" y="715" type="curve" smooth="yes"/>
      <point x="165" y="711"/>
      <point x="158" y="707"/>
      <point x="152" y="702" type="curve" smooth="yes"/>
      <point x="141" y="692"/>
      <point x="132" y="679"/>
      <point x="125" y="664" type="curve" smooth="yes"/>
      <point x="116" y="641"/>
      <point x="111" y="611"/>
      <point x="111" y="575" type="curve" smooth="yes"/>
      <point x="111" y="500" type="line"/>
      <point x="11" y="500" type="line"/>
      <point x="11" y="435" type="line"/>
      <point x="111" y="435" type="line"/>
    </contour>
  </outline>
</glyph>
<glyph name="g" format="2">
	<advance width="607"/>
	<unicode hex="0067"/>
	<outline>
		<contour>
			<point x="283" y="-198" type="curve" smooth="yes"/>
			<point x="360" y="-198"/>
			<point x="421" y="-176"/>
			<point x="465" y="-133" type="curve" smooth="yes"/>
			<point x="506" y="-92"/>
			<point x="527" y="-37"/>
			<point x="527" y="30" type="curve" smooth="yes"/>
			<point x="527" y="500" type="line"/>
			<point x="437" y="500" type="line"/>
			<point x="437" y="445" type="line"/>
			<point x="420" y="468"/>
			<point x="405" y="483"/>
			<point x="392" y="490" type="curve" smooth="yes"/>
			<point x="365" y="505"/>
			<point x="324" y="513"/>
			<point x="269" y="513" type="curve" smooth="yes"/>
			<point x="145" y="513"/>
			<point x="57" y="408"/>
			<point x="57" y="267" type="curve" smooth="yes"/>
			<point x="57" y="98"/>
			<point x="131" y="14"/>
			<point x="278" y="14" type="curve" smooth="yes"/>
			<point x="339" y="14"/>
			<point x="392" y="40"/>
			<point x="437" y="93" type="curve"/>
			<point x="437" y="8"/>
			<point x="426" y="-52"/>
			<point x="403" y="-87" type="curve" smooth="yes"/>
			<point x="382" y="-120"/>
			<point x="348" y="-136"/>
			<point x="300" y="-136" type="curve" smooth="yes"/>
			<point x="267" y="-136"/>
			<point x="239" y="-128"/>
			<point x="216" y="-113" type="curve" smooth="yes"/>
			<point x="189" y="-96"/>
			<point x="176" y="-71"/>
			<point x="176" y="-40" type="curve"/>
			<point x="82" y="-40" type="line"/>
			<point x="82" y="-75"/>
			<point x="95" y="-108"/>
			<point x="121" y="-137" type="curve" smooth="yes"/>
			<point x="157" y="-178"/>
			<point x="211" y="-198"/>
		</contour>
		<contour>
			<point x="290" y="78" type="curve" smooth="yes"/>
			<point x="199" y="78"/>
			<point x="150" y="151"/>
			<point x="150" y="267" type="curve" smooth="yes"/>
			<point x="150" y="388"/>
			<point x="195" y="449"/>
			<point x="285" y="449" type="curve" smooth="yes"/>
			<point x="385" y="449"/>
			<point x="435" y="388"/>
			<point x="435" y="265" type="curve" smooth="yes"/>
			<point x="435" y="211"/>
			<point x="424" y="168"/>
			<point x="403" y="135" type="curve" smooth="yes"/>
			<point x="378" y="97"/>
			<point x="340" y="78"/>
		</contour>
	</outline>
</glyph>
<glyph name="h" format="2">
  <advance width="593"/>
  <unicode hex="0068"/>
  <outline>
    <contour>
      <point x="513" y="-0" type="line"/>
      <point x="423" y="-0" type="line"/>
      <point x="423" y="315" type="line" smooth="yes"/>
      <point x="423" y="358"/>
      <point x="412" y="392"/>
      <point x="389" y="417" type="curve" smooth="yes"/>
      <point x="370" y="438"/>
      <point x="346" y="448"/>
      <point x="318" y="448" type="curve" smooth="yes"/>
      <point x="273" y="448"/>
      <point x="237" y="436"/>
      <point x="208" y="411" type="curve" smooth="yes"/>
      <point x="183" y="390"/>
      <point x="170" y="366"/>
      <point x="170" y="341" type="curve" smooth="yes"/>
      <point x="170" y="-0" type="line"/>
      <point x="80" y="-0" type="line"/>
      <point x="80" y="722" type="line"/>
      <point x="170" y="722" type="line"/>
      <point x="170" y="437" type="line"/>
      <point x="201" y="488"/>
      <point x="253" y="513"/>
      <point x="327" y="513" type="curve" smooth="yes"/>
      <point x="459" y="513"/>
      <point x="513" y="451"/>
      <point x="513" y="311" type="curve" smooth="yes"/>
    </contour>
  </outline>
</glyph>
<glyph name="i" format="2">
	<advance width="246"/>
	<unicode hex="0069"/>
	<outline>
		<contour>
			<point x="78" y="0" type="line"/>
			<point x="168" y="0" type="line"/>
			<point x="168" y="500" type="line"/>
			<point x="78" y="500" type="line"/>
		</contour>
		<contour>
			<point x="75" y="630" type="line"/>
			<point x="171" y="630" type="line"/>
			<point x="171" y="722" type="line"/>
			<point x="75" y="722" type="line"/>
		</contour>
	</outline>
</glyph>
<glyph name="j" format="2">
	<advance width="291"/>
	<unicode hex="006A"/>
	<outline>
		<contour>
			<point x="97" y="-211" type="curve" smooth="yes"/>
			<point x="174" y="-211"/>
			<point x="213" y="-167"/>
			<point x="213" y="-80" type="curve" smooth="yes"/>
			<point x="213" y="500" type="line"/>
			<point x="123" y="500" type="line"/>
			<point x="123" y="-50" type="line" smooth="yes"/>
			<point x="123" y="-105"/>
			<point x="110" y="-132"/>
			<point x="83" y="-132" type="curve" smooth="yes"/>
			<point x="60" y="-132"/>
			<point x="40" y="-122"/>
			<point x="23" y="-101" type="curve"/>
			<point x="-34" y="-158" type="line"/>
			<point x="-18" y="-174"/>
			<point x="3" y="-187"/>
			<point x="30" y="-197" type="curve" smooth="yes"/>
			<point x="54" y="-206"/>
			<point x="76" y="-211"/>
		</contour>
		<contour>
			<point x="120" y="630" type="line"/>
			<point x="216" y="630" type="line"/>
			<point x="216" y="722" type="line"/>
			<point x="120" y="722" type="line"/>
		</contour>
	</outline>
</glyph>
<glyph name="k" format="2">
  <advance width="512"/>
  <unicode hex="006B"/>
  <outline>
    <contour>
      <point x="489" y="0" type="line"/>
      <point x="370" y="0" type="line"/>
      <point x="170" y="267" type="line"/>
      <point x="170" y="0" type="line"/>
      <point x="80" y="0" type="line"/>
      <point x="80" y="722" type="line"/>
      <point x="170" y="722" type="line"/>
      <point x="170" y="292" type="line"/>
      <point x="360" y="500" type="line"/>
      <point x="473" y="500" type="line"/>
      <point x="273" y="282" type="line"/>
    </contour>
  </outline>
</glyph>
<glyph name="l" format="2">
	<advance width="250"/>
	<unicode hex="006C"/>
	<outline>
		<contour>
			<point x="80" y="0" type="line"/>
			<point x="170" y="0" type="line"/>
			<point x="170" y="722" type="line"/>
			<point x="80" y="722" type="line"/>
		</contour>
	</outline>
</glyph>
<glyph name="m" format="2">
  <advance width="916"/>
  <unicode hex="006D"/>
  <outline>
    <contour>
      <point x="836" y="0" type="line"/>
      <point x="746" y="0" type="line"/>
      <point x="746" y="323" type="line" smooth="yes"/>
      <point x="746" y="407"/>
      <point x="708" y="449"/>
      <point x="633" y="449" type="curve" smooth="yes"/>
      <point x="598" y="449"/>
      <point x="568" y="435"/>
      <point x="542" y="406" type="curve" smooth="yes"/>
      <point x="517" y="380"/>
      <point x="505" y="352"/>
      <point x="505" y="323" type="curve" smooth="yes"/>
      <point x="505" y="0" type="line"/>
      <point x="415" y="0" type="line"/>
      <point x="415" y="323" type="line" smooth="yes"/>
      <point x="415" y="391"/>
      <point x="371" y="449"/>
      <point x="304" y="449" type="curve" smooth="yes"/>
      <point x="231" y="449"/>
      <point x="170" y="380"/>
      <point x="170" y="323" type="curve" smooth="yes"/>
      <point x="170" y="0" type="line"/>
      <point x="80" y="0" type="line"/>
      <point x="80" y="500" type="line"/>
      <point x="170" y="500" type="line"/>
      <point x="170" y="431" type="line"/>
      <point x="210" y="486"/>
      <point x="260" y="513"/>
      <point x="319" y="513" type="curve" smooth="yes"/>
      <point x="364" y="513"/>
      <point x="400" y="506"/>
      <point x="427" y="491" type="curve" smooth="yes"/>
      <point x="449" y="478"/>
      <point x="470" y="455"/>
      <point x="489" y="424" type="curve"/>
      <point x="531" y="483"/>
      <point x="585" y="513"/>
      <point x="651" y="513" type="curve" smooth="yes"/>
      <point x="774" y="513"/>
      <point x="836" y="450"/>
      <point x="836" y="323" type="curve" smooth="yes"/>
    </contour>
  </outline>
</glyph>
<glyph name="n" format="2">
  <advance width="594"/>
  <unicode hex="006E"/>
  <outline>
    <contour>
      <point x="80" y="0" type="line"/>
      <point x="170" y="0" type="line"/>
      <point x="170" y="323" type="line" smooth="yes"/>
      <point x="170" y="399"/>
      <point x="229" y="453"/>
      <point x="302" y="453" type="curve" smooth="yes"/>
      <point x="369" y="453"/>
      <point x="425" y="399"/>
      <point x="425" y="331" type="curve" smooth="yes"/>
      <point x="425" y="0" type="line"/>
      <point x="514" y="0" type="line"/>
      <point x="514" y="329" type="line" smooth="yes"/>
      <point x="514" y="452"/>
      <point x="450" y="513"/>
      <point x="322" y="513" type="curve" smooth="yes"/>
      <point x="275" y="513"/>
      <point x="239" y="502"/>
      <point x="213" y="481" type="curve"/>
      <point x="199" y="466"/>
      <point x="185" y="451"/>
      <point x="170" y="436" type="curve"/>
      <point x="170" y="500" type="line"/>
      <point x="80" y="500" type="line"/>
    </contour>
  </outline>
</glyph>
<glyph name="q" format="2">
  <advance width="616"/>
  <unicode hex="0071"/>
  <outline>
    <contour>
      <point x="536" y="-198" type="line"/>
      <point x="446" y="-198" type="line"/>
      <point x="446" y="52" type="line"/>
      <point x="390" y="8"/>
      <point x="337" y="-14"/>
      <point x="288" y="-14" type="curve" smooth="yes"/>
      <point x="208" y="-14"/>
      <point x="148" y="12"/>
      <point x="109" y="63" type="curve" smooth="yes"/>
      <point x="74" y="108"/>
      <point x="57" y="171"/>
      <point x="57" y="250" type="curve" smooth="yes"/>
      <point x="57" y="329"/>
      <point x="74" y="392"/>
      <point x="109" y="437" type="curve" smooth="yes"/>
      <point x="148" y="488"/>
      <point x="208" y="513"/>
      <point x="288" y="513" type="curve" smooth="yes"/>
      <point x="338" y="513"/>
      <point x="391" y="488"/>
      <point x="446" y="437" type="curve"/>
      <point x="446" y="500" type="line"/>
      <point x="536" y="500" type="line"/>
    </contour>
    <contour>
      <point x="447" y="250" type="curve" smooth="yes"/>
      <point x="447" y="307"/>
      <point x="436" y="353"/>
      <point x="413" y="388" type="curve" smooth="yes"/>
      <point x="387" y="429"/>
      <point x="349" y="449"/>
      <point x="300" y="449" type="curve" smooth="yes"/>
      <point x="251" y="449"/>
      <point x="213" y="429"/>
      <point x="187" y="388" type="curve" smooth="yes"/>
      <point x="164" y="353"/>
      <point x="153" y="307"/>
      <point x="153" y="250" type="curve" smooth="yes"/>
      <point x="153" y="193"/>
      <point x="164" y="147"/>
      <point x="187" y="112" type="curve" smooth="yes"/>
      <point x="213" y="71"/>
      <point x="251" y="51"/>
      <point x="300" y="51" type="curve" smooth="yes"/>
      <point x="349" y="51"/>
      <point x="387" y="71"/>
      <point x="413" y="112" type="curve" smooth="yes"/>
      <point x="436" y="147"/>
      <point x="447" y="193"/>
    </contour>
  </outline>
</glyph>
<glyph name="r" format="2">
	<advance width="376"/>
	<unicode hex="0072"/>
	<outline>
		<contour>
			<point x="80" y="0" type="line"/>
			<point x="170" y="0" type="line"/>
			<point x="170" y="280" type="line" smooth="yes"/>
			<point x="170" y="373"/>
			<point x="231" y="420"/>
			<point x="353" y="420" type="curve"/>
			<point x="353" y="500" type="line"/>
			<point x="294" y="500"/>
			<point x="250" y="494"/>
			<point x="223" y="482" type="curve" smooth="yes"/>
			<point x="202" y="473"/>
			<point x="184" y="456"/>
			<point x="170" y="432" type="curve"/>
			<point x="170" y="500" type="line"/>
			<point x="80" y="500" type="line"/>
		</contour>
	</outline>
</glyph>
<glyph name="t" format="2">
  <advance width="358"/>
  <unicode hex="0074"/>
  <outline>
    <contour>
      <point x="235" y="-14" type="curve" smooth="yes"/>
      <point x="270" y="-14"/>
      <point x="300" y="-8"/>
      <point x="324" y="0" type="curve"/>
      <point x="324" y="64" type="line"/>
      <point x="308" y="60"/>
      <point x="288" y="56"/>
      <point x="265" y="56" type="curve" smooth="yes"/>
      <point x="230" y="56"/>
      <point x="214" y="80"/>
      <point x="214" y="131" type="curve" smooth="yes"/>
      <point x="214" y="436" type="line"/>
      <point x="324" y="436" type="line"/>
      <point x="324" y="500" type="line"/>
      <point x="214" y="500" type="line"/>
      <point x="214" y="636" type="line"/>
      <point x="124" y="599" type="line"/>
      <point x="124" y="500" type="line"/>
      <point x="34" y="500" type="line"/>
      <point x="34" y="436" type="line"/>
      <point x="124" y="436" type="line"/>
      <point x="124" y="131" type="line" smooth="yes"/>
      <point x="124" y="17"/>
      <point x="160" y="-14"/>
    </contour>
  </outline>
</glyph>
<glyph name="u" format="2">
  <advance width="593"/>
  <unicode hex="0075"/>
  <outline>
    <contour>
      <point x="271" y="-13" type="curve" smooth="yes"/>
      <point x="340" y="-13"/>
      <point x="390" y="13"/>
      <point x="423" y="64" type="curve"/>
      <point x="423" y="0" type="line"/>
      <point x="513" y="0" type="line"/>
      <point x="513" y="500" type="line"/>
      <point x="423" y="500" type="line"/>
      <point x="423" y="178" type="line" smooth="yes"/>
      <point x="423" y="102"/>
      <point x="364" y="48"/>
      <point x="291" y="48" type="curve" smooth="yes"/>
      <point x="226" y="48"/>
      <point x="170" y="101"/>
      <point x="170" y="169" type="curve" smooth="yes"/>
      <point x="170" y="500" type="line"/>
      <point x="80" y="500" type="line"/>
      <point x="80" y="171" type="line" smooth="yes"/>
      <point x="80" y="48"/>
      <point x="144" y="-13"/>
    </contour>
  </outline>
</glyph>
<glyph name="v" format="2">
	<advance width="539"/>
	<unicode hex="0076"/>
	<outline>
		<contour>
			<point x="224" y="0" type="line"/>
			<point x="316" y="0" type="line"/>
			<point x="522" y="500" type="line"/>
			<point x="427" y="500" type="line"/>
			<point x="275" y="110" type="line"/>
			<point x="122" y="500" type="line"/>
			<point x="17" y="500" type="line"/>
		</contour>
	</outline>
</glyph>
<glyph name="w" format="2">
	<advance width="818"/>
	<unicode hex="0077"/>
	<outline>
		<contour>
			<point x="186" y="0" type="line"/>
			<point x="276" y="0" type="line"/>
			<point x="409" y="415" type="line"/>
			<point x="542" y="0" type="line"/>
			<point x="632" y="0" type="line"/>
			<point x="801" y="500" type="line"/>
			<point x="705" y="500" type="line"/>
			<point x="587" y="110" type="line"/>
			<point x="469" y="500" type="line"/>
			<point x="349" y="500" type="line"/>
			<point x="231" y="110" type="line"/>
			<point x="113" y="500" type="line"/>
			<point x="17" y="500" type="line"/>
		</contour>
	</outline>
</glyph>
<glyph name="x" format="2">
	<advance width="553"/>
	<unicode hex="0078"/>
	<outline>
		<contour>
			<point x="23" y="0" type="line"/>
			<point x="128" y="0" type="line"/>
			<point x="270" y="197" type="line"/>
			<point x="416" y="0" type="line"/>
			<point x="530" y="0" type="line"/>
			<point x="331" y="259" type="line"/>
			<point x="517" y="500" type="line"/>
			<point x="412" y="500" type="line"/>
			<point x="284" y="321" type="line"/>
			<point x="152" y="500" type="line"/>
			<point x="38" y="500" type="line"/>
			<point x="222" y="259" type="line"/>
		</contour>
	</outline>
</glyph>
<glyph name="y" format="2">
	<advance width="539"/>
	<unicode hex="0079"/>
	<outline>
		<contour>
			<point x="161" y="-204" type="curve" smooth="yes"/>
			<point x="195" y="-204"/>
			<point x="222" y="-195"/>
			<point x="242" y="-177" type="curve" smooth="yes"/>
			<point x="257" y="-164"/>
			<point x="271" y="-142"/>
			<point x="283" y="-111" type="curve" smooth="yes"/>
			<point x="522" y="500" type="line"/>
			<point x="425" y="500" type="line"/>
			<point x="279" y="123" type="line"/>
			<point x="122" y="500" type="line"/>
			<point x="17" y="500" type="line"/>
			<point x="231" y="0" type="line"/>
			<point x="210" y="-56" type="line" smooth="yes"/>
			<point x="193" y="-101"/>
			<point x="176" y="-124"/>
			<point x="160" y="-125" type="curve" smooth="yes"/>
			<point x="148" y="-126"/>
			<point x="136" y="-120"/>
			<point x="123" y="-109" type="curve" smooth="yes"/>
			<point x="112" y="-100"/>
			<point x="104" y="-89"/>
			<point x="99" y="-76" type="curve"/>
			<point x="28" y="-113" type="line"/>
			<point x="56" y="-174"/>
			<point x="100" y="-204"/>
		</contour>
	</outline>
</glyph>
<glyph name="z" format="2">
  <advance width="482"/>
  <unicode hex="007A"/>
  <outline>
    <contour>
      <point x="425" y="-0" type="line"/>
      <point x="57" y="-0" type="line"/>
      <point x="57" y="83" type="line"/>
      <point x="323" y="430" type="line"/>
      <point x="77" y="430" type="line"/>
      <point x="77" y="500" type="line"/>
      <point x="425" y="500" type="line"/>
      <point x="425" y="417" type="line"/>
      <point x="157" y="70" type="line"/>
      <point x="425" y="70" type="line"/>
    </contour>
  </outline>
</glyph>
<glyph name="braceleft" format="2">
  <advance width="512"/>
  <unicode hex="007B"/>
  <outline>
    <contour>
      <point x="420" y="-240" type="line"/>
      <point x="372" y="-240"/>
      <point x="336" y="-236"/>
      <point x="312" y="-228" type="curve" smooth="yes"/>
      <point x="241" y="-205"/>
      <point x="214" y="-143"/>
      <point x="213" y="-7" type="curve"/>
      <point x="213" y="65"/>
      <point x="209" y="113"/>
      <point x="200" y="138" type="curve" smooth="yes"/>
      <point x="184" y="183"/>
      <point x="148" y="212"/>
      <point x="92" y="223" type="curve"/>
      <point x="92" y="296" type="line"/>
      <point x="143" y="308"/>
      <point x="177" y="333"/>
      <point x="194" y="370" type="curve" smooth="yes"/>
      <point x="206" y="395"/>
      <point x="212" y="435"/>
      <point x="212" y="490" type="curve" smooth="yes"/>
      <point x="212" y="499"/>
      <point x="212" y="523"/>
      <point x="212" y="532" type="curve" smooth="yes"/>
      <point x="212" y="661"/>
      <point x="243" y="725"/>
      <point x="314" y="748" type="curve" smooth="yes"/>
      <point x="338" y="756"/>
      <point x="373" y="760"/>
      <point x="420" y="760" type="curve"/>
      <point x="420" y="686" type="line"/>
      <point x="371" y="686"/>
      <point x="338" y="673"/>
      <point x="321" y="646" type="curve" smooth="yes"/>
      <point x="308" y="626"/>
      <point x="301" y="595"/>
      <point x="301" y="552" type="curve"/>
      <point x="302" y="482"/>
      <point x="302" y="446"/>
      <point x="302" y="444" type="curve"/>
      <point x="293" y="353"/>
      <point x="278" y="320"/>
      <point x="217" y="259" type="curve"/>
      <point x="277" y="200"/>
      <point x="293" y="164"/>
      <point x="302" y="75" type="curve"/>
      <point x="302" y="73"/>
      <point x="302" y="37"/>
      <point x="302" y="-32" type="curve"/>
      <point x="301" y="-75"/>
      <point x="308" y="-107"/>
      <point x="321" y="-126" type="curve" smooth="yes"/>
      <point x="338" y="-153"/>
      <point x="371" y="-166"/>
      <point x="420" y="-166" type="curve"/>
    </contour>
  </outline>
</glyph>
<glyph name="braceright" format="2">
	<advance width="512"/>
	<unicode hex="007D"/>
	<outline>
		<contour>
			<point x="92" y="-240" type="line"/>
			<point x="139" y="-240"/>
			<point x="174" y="-236"/>
			<point x="198" y="-228" type="curve" smooth="yes"/>
			<point x="269" y="-205"/>
			<point x="300" y="-141"/>
			<point x="300" y="-12" type="curve" smooth="yes"/>
			<point x="300" y="-3"/>
			<point x="300" y="21"/>
			<point x="300" y="30" type="curve" smooth="yes"/>
			<point x="300" y="85"/>
			<point x="306" y="125"/>
			<point x="318" y="150" type="curve" smooth="yes"/>
			<point x="335" y="187"/>
			<point x="369" y="212"/>
			<point x="420" y="224" type="curve"/>
			<point x="420" y="297" type="line"/>
			<point x="364" y="308"/>
			<point x="328" y="337"/>
			<point x="312" y="382" type="curve" smooth="yes"/>
			<point x="303" y="407"/>
			<point x="299" y="455"/>
			<point x="299" y="527" type="curve"/>
			<point x="298" y="663"/>
			<point x="271" y="725"/>
			<point x="200" y="748" type="curve" smooth="yes"/>
			<point x="176" y="756"/>
			<point x="140" y="760"/>
			<point x="92" y="760" type="curve"/>
			<point x="92" y="686" type="line"/>
			<point x="141" y="686"/>
			<point x="174" y="673"/>
			<point x="191" y="646" type="curve" smooth="yes"/>
			<point x="204" y="627"/>
			<point x="211" y="595"/>
			<point x="210" y="552" type="curve"/>
			<point x="210" y="483"/>
			<point x="210" y="447"/>
			<point x="210" y="445" type="curve"/>
			<point x="219" y="356"/>
			<point x="235" y="320"/>
			<point x="295" y="261" type="curve"/>
			<point x="234" y="200"/>
			<point x="219" y="167"/>
			<point x="210" y="76" type="curve"/>
			<point x="210" y="74"/>
			<point x="210" y="38"/>
			<point x="211" y="-32" type="curve"/>
			<point x="211" y="-75"/>
			<point x="204" y="-106"/>
			<point x="191" y="-126" type="curve" smooth="yes"/>
			<point x="174" y="-153"/>
			<point x="141" y="-166"/>
			<point x="92" y="-166" type="curve"/>
		</contour>
	</outline>
</glyph>
<glyph name="asciitilde" format="2">
  <advance width="534"/>
  <unicode hex="007E"/>
  <outline>
    <contour>
      <point x="534" y="315" type="line"/>
      <point x="529" y="288"/>
      <point x="511" y="262"/>
      <point x="478" y="237" type="curve" smooth="yes"/>
      <point x="445" y="211"/>
      <point x="411" y="198"/>
      <point x="378" y="198" type="curve" smooth="yes"/>
      <point x="339" y="198"/>
      <point x="297" y="205"/>
      <point x="252" y="218" type="curve" smooth="yes"/>
      <point x="207" y="231"/>
      <point x="178" y="238"/>
      <point x="166" y="238" type="curve" smooth="yes"/>
      <point x="138" y="238"/>
      <point x="113" y="224"/>
      <point x="91" y="195" type="curve"/>
      <point x="-0" y="195" type="line"/>
      <point x="5" y="222"/>
      <point x="24" y="248"/>
      <point x="57" y="274" type="curve" smooth="yes"/>
      <point x="90" y="300"/>
      <point x="122" y="313"/>
      <point x="154" y="313" type="curve" smooth="yes"/>
      <point x="194" y="313"/>
      <point x="237" y="306"/>
      <point x="283" y="293" type="curve" smooth="yes"/>
      <point x="328" y="280"/>
      <point x="357" y="273"/>
      <point x="368" y="273" type="curve" smooth="yes"/>
      <point x="395" y="273"/>
      <point x="420" y="287"/>
      <point x="443" y="315" type="curve"/>
    </contour>
  </outline>
</glyph>
<glyph name="exclamdown" format="2">
	<advance width="405"/>
	<unicode hex="00A1"/>
	<outline>
		<contour>
			<point x="149" y="-198" type="line"/>
			<point x="255" y="-198" type="line"/>
			<point x="232" y="331" type="line"/>
			<point x="172" y="331" type="line"/>
		</contour>
		<contour>
			<point x="155" y="405" type="line"/>
			<point x="255" y="405" type="line"/>
			<point x="255" y="500" type="line"/>
			<point x="155" y="500" type="line"/>
		</contour>
	</outline>
</glyph>
<glyph name="cent" format="2">
  <advance width="579"/>
  <unicode hex="00A2"/>
  <outline>
    <contour>
      <point x="499" y="169" type="line"/>
      <point x="499" y="119"/>
      <point x="481" y="77"/>
      <point x="446" y="42" type="curve" smooth="yes"/>
      <point x="409" y="5"/>
      <point x="360" y="-13"/>
      <point x="300" y="-13" type="curve" smooth="yes"/>
      <point x="274" y="-13"/>
      <point x="252" y="-10"/>
      <point x="234" y="-3" type="curve"/>
      <point x="189" y="-140" type="line"/>
      <point x="141" y="-127" type="line"/>
      <point x="186" y="10" type="line"/>
      <point x="116" y="40"/>
      <point x="81" y="118"/>
      <point x="81" y="244" type="curve" smooth="yes"/>
      <point x="81" y="321"/>
      <point x="92" y="380"/>
      <point x="114" y="421" type="curve" smooth="yes"/>
      <point x="147" y="483"/>
      <point x="206" y="514"/>
      <point x="292" y="513" type="curve"/>
      <point x="303" y="514"/>
      <point x="322" y="513"/>
      <point x="349" y="510" type="curve"/>
      <point x="387" y="625" type="line"/>
      <point x="436" y="612" type="line"/>
      <point x="398" y="496" type="line"/>
      <point x="458" y="477"/>
      <point x="490" y="427"/>
      <point x="495" y="344" type="curve"/>
      <point x="410" y="344" type="line"/>
      <point x="409" y="358"/>
      <point x="407" y="370"/>
      <point x="405" y="381" type="curve"/>
      <point x="398" y="407"/>
      <point x="389" y="423"/>
      <point x="376" y="429" type="curve"/>
      <point x="257" y="65" type="line"/>
      <point x="269" y="59"/>
      <point x="284" y="56"/>
      <point x="301" y="56" type="curve" smooth="yes"/>
      <point x="366" y="56"/>
      <point x="410" y="102"/>
      <point x="410" y="169" type="curve"/>
    </contour>
    <contour>
      <point x="326" y="441" type="line"/>
      <point x="313" y="443"/>
      <point x="299" y="444"/>
      <point x="284" y="444" type="curve" smooth="yes"/>
      <point x="207" y="444"/>
      <point x="168" y="380"/>
      <point x="168" y="252" type="curve" smooth="yes"/>
      <point x="168" y="171"/>
      <point x="183" y="116"/>
      <point x="212" y="89" type="curve"/>
    </contour>
  </outline>
</glyph>
<glyph name="sterling" format="2">
  <advance width="567"/>
  <unicode hex="00A3"/>
  <outline>
    <contour>
      <point x="50" y="0" type="line"/>
      <point x="529" y="0" type="line"/>
      <point x="529" y="64" type="line"/>
      <point x="208" y="64" type="line"/>
      <point x="208" y="392" type="line"/>
      <point x="373" y="392" type="line"/>
      <point x="373" y="456" type="line"/>
      <point x="208" y="456" type="line"/>
      <point x="208" y="579" type="line" smooth="yes"/>
      <point x="208" y="607"/>
      <point x="222" y="630"/>
      <point x="249" y="648" type="curve" smooth="yes"/>
      <point x="274" y="664"/>
      <point x="302" y="672"/>
      <point x="334" y="672" type="curve" smooth="yes"/>
      <point x="366" y="672"/>
      <point x="394" y="664"/>
      <point x="419" y="648" type="curve" smooth="yes"/>
      <point x="446" y="630"/>
      <point x="460" y="607"/>
      <point x="460" y="579" type="curve"/>
      <point x="549" y="579" type="line"/>
      <point x="549" y="667"/>
      <point x="454" y="736"/>
      <point x="334" y="736" type="curve" smooth="yes"/>
      <point x="214" y="736"/>
      <point x="119" y="667"/>
      <point x="119" y="579" type="curve" smooth="yes"/>
      <point x="119" y="456" type="line"/>
      <point x="50" y="456" type="line"/>
      <point x="50" y="392" type="line"/>
      <point x="119" y="392" type="line"/>
      <point x="119" y="64" type="line"/>
      <point x="50" y="64" type="line"/>
    </contour>
  </outline>
</glyph>
<glyph name="currency" format="2">
  <advance width="620"/>
  <unicode hex="00A4"/>
  <outline>
    <contour>
      <point x="82" y="160" type="line"/>
      <point x="185" y="263" type="line"/>
      <point x="221" y="232"/>
      <point x="265" y="216"/>
      <point x="318" y="216" type="curve" smooth="yes"/>
      <point x="367" y="216"/>
      <point x="410" y="232"/>
      <point x="447" y="263" type="curve"/>
      <point x="550" y="160" type="line"/>
      <point x="586" y="196" type="line"/>
      <point x="483" y="299" type="line"/>
      <point x="512" y="334"/>
      <point x="527" y="377"/>
      <point x="527" y="428" type="curve" smooth="yes"/>
      <point x="527" y="479"/>
      <point x="512" y="523"/>
      <point x="482" y="560" type="curve"/>
      <point x="586" y="664" type="line"/>
      <point x="550" y="700" type="line"/>
      <point x="444" y="594" type="line"/>
      <point x="409" y="624"/>
      <point x="367" y="639"/>
      <point x="318" y="639" type="curve" smooth="yes"/>
      <point x="267" y="639"/>
      <point x="224" y="624"/>
      <point x="187" y="595" type="curve"/>
      <point x="82" y="700" type="line"/>
      <point x="46" y="664" type="line"/>
      <point x="151" y="559" type="line"/>
      <point x="120" y="526"/>
      <point x="105" y="482"/>
      <point x="105" y="427" type="curve" smooth="yes"/>
      <point x="105" y="378"/>
      <point x="120" y="336"/>
      <point x="149" y="299" type="curve"/>
      <point x="46" y="196" type="line"/>
    </contour>
    <contour>
      <point x="318" y="273" type="curve" smooth="yes"/>
      <point x="231" y="273"/>
      <point x="162" y="342"/>
      <point x="162" y="427" type="curve" smooth="yes"/>
      <point x="162" y="514"/>
      <point x="231" y="582"/>
      <point x="318" y="582" type="curve" smooth="yes"/>
      <point x="402" y="582"/>
      <point x="470" y="512"/>
      <point x="470" y="428" type="curve" smooth="yes"/>
      <point x="470" y="344"/>
      <point x="402" y="273"/>
    </contour>
  </outline>
</glyph>
<glyph name="yen" format="2">
  <advance width="559"/>
  <unicode hex="00A5"/>
  <outline>
    <contour>
      <point x="556" y="722" type="line"/>
      <point x="447" y="508" type="line"/>
      <point x="546" y="508" type="line"/>
      <point x="546" y="457" type="line"/>
      <point x="422" y="457" type="line"/>
      <point x="364" y="338" type="line"/>
      <point x="546" y="338" type="line"/>
      <point x="546" y="287" type="line"/>
      <point x="331" y="287" type="line"/>
      <point x="331" y="-0" type="line"/>
      <point x="229" y="-0" type="line"/>
      <point x="229" y="287" type="line"/>
      <point x="14" y="287" type="line"/>
      <point x="14" y="338" type="line"/>
      <point x="198" y="338" type="line"/>
      <point x="140" y="457" type="line"/>
      <point x="14" y="457" type="line"/>
      <point x="14" y="508" type="line"/>
      <point x="115" y="508" type="line"/>
      <point x="4" y="722" type="line"/>
      <point x="109" y="722" type="line"/>
      <point x="281" y="365" type="line"/>
      <point x="451" y="722" type="line"/>
    </contour>
  </outline>
</glyph>
<glyph name="brokenbar" format="2">
  <advance width="383"/>
  <unicode hex="00A6"/>
  <outline>
    <contour>
      <point x="217" y="336" type="line"/>
      <point x="166" y="336" type="line"/>
      <point x="166" y="736" type="line"/>
      <point x="217" y="736" type="line"/>
    </contour>
    <contour>
      <point x="217" y="-198" type="line"/>
      <point x="166" y="-198" type="line"/>
      <point x="166" y="202" type="line"/>
      <point x="217" y="202" type="line"/>
    </contour>
  </outline>
</glyph>
<glyph name="section" format="2">
  <advance width="482"/>
  <unicode hex="00A7"/>
  <outline>
    <contour>
      <point x="221" y="-174" type="curve" smooth="yes"/>
      <point x="270" y="-174"/>
      <point x="315" y="-158"/>
      <point x="356" y="-125" type="curve" smooth="yes"/>
      <point x="402" y="-88"/>
      <point x="425" y="-41"/>
      <point x="425" y="14" type="curve" smooth="yes"/>
      <point x="425" y="69"/>
      <point x="384" y="117"/>
      <point x="302" y="160" type="curve"/>
      <point x="382" y="199"/>
      <point x="422" y="249"/>
      <point x="422" y="311" type="curve" smooth="yes"/>
      <point x="422" y="353"/>
      <point x="400" y="390"/>
      <point x="356" y="423" type="curve"/>
      <point x="315" y="448"/>
      <point x="274" y="472"/>
      <point x="233" y="497" type="curve"/>
      <point x="189" y="526"/>
      <point x="167" y="556"/>
      <point x="167" y="587" type="curve" smooth="yes"/>
      <point x="167" y="628"/>
      <point x="214" y="670"/>
      <point x="261" y="670" type="curve" smooth="yes"/>
      <point x="306" y="670"/>
      <point x="349" y="657"/>
      <point x="392" y="631" type="curve"/>
      <point x="392" y="699" type="line"/>
      <point x="371" y="714"/>
      <point x="354" y="723"/>
      <point x="343" y="726" type="curve" smooth="yes"/>
      <point x="323" y="733"/>
      <point x="293" y="736"/>
      <point x="252" y="736" type="curve" smooth="yes"/>
      <point x="201" y="736"/>
      <point x="157" y="718"/>
      <point x="120" y="682" type="curve" smooth="yes"/>
      <point x="87" y="650"/>
      <point x="71" y="616"/>
      <point x="71" y="580" type="curve" smooth="yes"/>
      <point x="71" y="545"/>
      <point x="84" y="512"/>
      <point x="110" y="482" type="curve" smooth="yes"/>
      <point x="131" y="458"/>
      <point x="155" y="440"/>
      <point x="182" y="429" type="curve"/>
      <point x="99" y="404"/>
      <point x="57" y="348"/>
      <point x="57" y="260" type="curve" smooth="yes"/>
      <point x="57" y="218"/>
      <point x="81" y="182"/>
      <point x="128" y="151" type="curve"/>
      <point x="171" y="128"/>
      <point x="215" y="105"/>
      <point x="258" y="82" type="curve"/>
      <point x="305" y="55"/>
      <point x="329" y="26"/>
      <point x="329" y="-6" type="curve" smooth="yes"/>
      <point x="329" y="-61"/>
      <point x="259" y="-105"/>
      <point x="191" y="-104" type="curve" smooth="yes"/>
      <point x="155" y="-103"/>
      <point x="115" y="-90"/>
      <point x="72" y="-64" type="curve"/>
      <point x="72" y="-140" type="line"/>
      <point x="87" y="-151"/>
      <point x="113" y="-159"/>
      <point x="152" y="-166" type="curve" smooth="yes"/>
      <point x="181" y="-171"/>
      <point x="204" y="-174"/>
    </contour>
    <contour>
      <point x="226" y="203" type="curve"/>
      <point x="168" y="219"/>
      <point x="139" y="245"/>
      <point x="139" y="282" type="curve" smooth="yes"/>
      <point x="139" y="303"/>
      <point x="151" y="326"/>
      <point x="176" y="349" type="curve" smooth="yes"/>
      <point x="201" y="372"/>
      <point x="223" y="384"/>
      <point x="244" y="384" type="curve" smooth="yes"/>
      <point x="259" y="384"/>
      <point x="277" y="377"/>
      <point x="297" y="364" type="curve" smooth="yes"/>
      <point x="324" y="347"/>
      <point x="337" y="324"/>
      <point x="337" y="296" type="curve" smooth="yes"/>
      <point x="337" y="276"/>
      <point x="325" y="257"/>
      <point x="301" y="239" type="curve" smooth="yes"/>
      <point x="280" y="222"/>
      <point x="255" y="210"/>
    </contour>
  </outline>
</glyph>
<glyph name="dieresis" format="2">
  <advance width="290"/>
  <unicode hex="00A8"/>
  <outline>
    <contour>
      <point x="290" y="630" type="line"/>
      <point x="200" y="630" type="line"/>
      <point x="200" y="722" type="line"/>
      <point x="290" y="722" type="line"/>
    </contour>
    <contour>
      <point x="90" y="630" type="line"/>
      <point x="0" y="630" type="line"/>
      <point x="0" y="722" type="line"/>
      <point x="90" y="722" type="line"/>
    </contour>
  </outline>
</glyph>
<glyph name="copyright" format="2">
	<advance width="886"/>
	<unicode hex="00A9"/>
	<outline>
		<contour>
			<point x="443" y="-14" type="curve" smooth="yes"/>
			<point x="546" y="-14"/>
			<point x="635" y="23"/>
			<point x="708" y="96" type="curve" smooth="yes"/>
			<point x="781" y="169"/>
			<point x="817" y="258"/>
			<point x="817" y="361" type="curve" smooth="yes"/>
			<point x="817" y="464"/>
			<point x="781" y="553"/>
			<point x="708" y="626" type="curve" smooth="yes"/>
			<point x="635" y="699"/>
			<point x="546" y="736"/>
			<point x="443" y="736" type="curve" smooth="yes"/>
			<point x="340" y="736"/>
			<point x="252" y="699"/>
			<point x="179" y="626" type="curve" smooth="yes"/>
			<point x="106" y="553"/>
			<point x="69" y="464"/>
			<point x="69" y="361" type="curve" smooth="yes"/>
			<point x="69" y="258"/>
			<point x="106" y="169"/>
			<point x="179" y="96" type="curve" smooth="yes"/>
			<point x="252" y="23"/>
			<point x="340" y="-14"/>
		</contour>
		<contour>
			<point x="446" y="125" type="curve" smooth="yes"/>
			<point x="564" y="125"/>
			<point x="628" y="180"/>
			<point x="638" y="289" type="curve"/>
			<point x="558" y="289" type="line"/>
			<point x="555" y="264"/>
			<point x="546" y="242"/>
			<point x="531" y="223" type="curve" smooth="yes"/>
			<point x="511" y="199"/>
			<point x="483" y="187"/>
			<point x="447" y="187" type="curve" smooth="yes"/>
			<point x="360" y="187"/>
			<point x="316" y="244"/>
			<point x="316" y="359" type="curve" smooth="yes"/>
			<point x="316" y="420"/>
			<point x="328" y="466"/>
			<point x="352" y="499" type="curve" smooth="yes"/>
			<point x="373" y="528"/>
			<point x="399" y="543"/>
			<point x="432" y="543" type="curve" smooth="yes"/>
			<point x="513" y="543"/>
			<point x="554" y="510"/>
			<point x="554" y="445" type="curve"/>
			<point x="634" y="445" type="line"/>
			<point x="634" y="546"/>
			<point x="569" y="597"/>
			<point x="438" y="597" type="curve" smooth="yes"/>
			<point x="302" y="597"/>
			<point x="234" y="518"/>
			<point x="234" y="359" type="curve" smooth="yes"/>
			<point x="234" y="203"/>
			<point x="305" y="125"/>
		</contour>
		<contour>
			<point x="443" y="36" type="curve" smooth="yes"/>
			<point x="354" y="36"/>
			<point x="277" y="68"/>
			<point x="214" y="131" type="curve" smooth="yes"/>
			<point x="151" y="194"/>
			<point x="119" y="271"/>
			<point x="119" y="361" type="curve" smooth="yes"/>
			<point x="119" y="450"/>
			<point x="151" y="527"/>
			<point x="214" y="591" type="curve" smooth="yes"/>
			<point x="277" y="654"/>
			<point x="354" y="686"/>
			<point x="443" y="686" type="curve" smooth="yes"/>
			<point x="532" y="686"/>
			<point x="609" y="654"/>
			<point x="672" y="591" type="curve" smooth="yes"/>
			<point x="735" y="527"/>
			<point x="767" y="450"/>
			<point x="767" y="361" type="curve" smooth="yes"/>
			<point x="767" y="271"/>
			<point x="735" y="194"/>
			<point x="672" y="131" type="curve" smooth="yes"/>
			<point x="609" y="68"/>
			<point x="532" y="36"/>
		</contour>
	</outline>
</glyph>
<glyph name="ordfeminine" format="2">
  <advance width="393"/>
  <unicode hex="00AA"/>
  <outline>
    <contour>
      <point x="352" y="351" type="curve"/>
      <point x="289" y="351" type="line"/>
      <point x="286" y="370"/>
      <point x="283" y="387"/>
      <point x="282" y="402" type="curve"/>
      <point x="265" y="381"/>
      <point x="250" y="366"/>
      <point x="238" y="359" type="curve" smooth="yes"/>
      <point x="221" y="348"/>
      <point x="200" y="342"/>
      <point x="175" y="342" type="curve" smooth="yes"/>
      <point x="142" y="342"/>
      <point x="112" y="350"/>
      <point x="86" y="367" type="curve" smooth="yes"/>
      <point x="56" y="386"/>
      <point x="41" y="412"/>
      <point x="41" y="443" type="curve" smooth="yes"/>
      <point x="41" y="490"/>
      <point x="62" y="525"/>
      <point x="105" y="547" type="curve" smooth="yes"/>
      <point x="137" y="564"/>
      <point x="179" y="572"/>
      <point x="231" y="572" type="curve" smooth="yes"/>
      <point x="236" y="572"/>
      <point x="244" y="572"/>
      <point x="255" y="572" type="curve"/>
      <point x="266" y="571"/>
      <point x="274" y="571"/>
      <point x="279" y="571" type="curve"/>
      <point x="280" y="579"/>
      <point x="281" y="587"/>
      <point x="281" y="594" type="curve" smooth="yes"/>
      <point x="281" y="640"/>
      <point x="255" y="663"/>
      <point x="203" y="663" type="curve" smooth="yes"/>
      <point x="151" y="663"/>
      <point x="125" y="644"/>
      <point x="125" y="606" type="curve"/>
      <point x="60" y="606" type="line"/>
      <point x="60" y="675"/>
      <point x="107" y="710"/>
      <point x="201" y="710" type="curve" smooth="yes"/>
      <point x="276" y="710"/>
      <point x="321" y="690"/>
      <point x="336" y="651" type="curve" smooth="yes"/>
      <point x="341" y="639"/>
      <point x="343" y="602"/>
      <point x="343" y="540" type="curve" smooth="yes"/>
      <point x="343" y="479" type="line" smooth="yes"/>
      <point x="343" y="410"/>
      <point x="346" y="368"/>
    </contour>
    <contour>
      <point x="278" y="523" type="curve"/>
      <point x="260" y="524"/>
      <point x="248" y="525"/>
      <point x="242" y="525" type="curve" smooth="yes"/>
      <point x="209" y="525"/>
      <point x="181" y="521"/>
      <point x="157" y="512" type="curve" smooth="yes"/>
      <point x="123" y="499"/>
      <point x="106" y="479"/>
      <point x="106" y="452" type="curve" smooth="yes"/>
      <point x="106" y="413"/>
      <point x="136" y="389"/>
      <point x="175" y="389" type="curve" smooth="yes"/>
      <point x="215" y="389"/>
      <point x="243" y="402"/>
      <point x="259" y="428" type="curve" smooth="yes"/>
      <point x="272" y="449"/>
      <point x="278" y="480"/>
    </contour>
  </outline>
</glyph>
<glyph name="guillemotleft" format="2">
  <advance width="576"/>
  <unicode hex="00AB"/>
  <outline>
    <contour>
      <point x="415" y="57" type="line"/>
      <point x="493" y="57" type="line"/>
      <point x="373" y="252" type="line"/>
      <point x="493" y="447" type="line"/>
      <point x="415" y="447" type="line"/>
      <point x="278" y="252" type="line"/>
    </contour>
    <contour>
      <point x="220" y="57" type="line"/>
      <point x="298" y="57" type="line"/>
      <point x="178" y="252" type="line"/>
      <point x="298" y="447" type="line"/>
      <point x="220" y="447" type="line"/>
      <point x="83" y="252" type="line"/>
    </contour>
  </outline>
</glyph>
<glyph name="logicalnot" format="2">
  <advance width="632"/>
  <unicode hex="00AC"/>
  <outline>
    <contour>
      <point x="586" y="189" type="line"/>
      <point x="526" y="189" type="line"/>
      <point x="526" y="360" type="line"/>
      <point x="46" y="360" type="line"/>
      <point x="46" y="420" type="line"/>
      <point x="586" y="420" type="line"/>
    </contour>
  </outline>
</glyph>
<glyph name="uni00AD" format="2">
  <advance width="312"/>
  <unicode hex="00AD"/>
  <outline>
    <contour>
      <point x="11" y="227" type="line"/>
      <point x="301" y="227" type="line"/>
      <point x="301" y="283" type="line"/>
      <point x="11" y="283" type="line"/>
    </contour>
  </outline>
</glyph>
<glyph name="registered" format="2">
  <advance width="886"/>
  <unicode hex="00AE"/>
  <outline>
    <contour>
      <point x="443" y="-14" type="curve" smooth="yes"/>
      <point x="546" y="-14"/>
      <point x="635" y="23"/>
      <point x="708" y="96" type="curve" smooth="yes"/>
      <point x="781" y="169"/>
      <point x="817" y="258"/>
      <point x="817" y="361" type="curve" smooth="yes"/>
      <point x="817" y="464"/>
      <point x="781" y="553"/>
      <point x="708" y="626" type="curve" smooth="yes"/>
      <point x="635" y="699"/>
      <point x="546" y="736"/>
      <point x="443" y="736" type="curve" smooth="yes"/>
      <point x="340" y="736"/>
      <point x="252" y="699"/>
      <point x="179" y="626" type="curve" smooth="yes"/>
      <point x="106" y="553"/>
      <point x="69" y="464"/>
      <point x="69" y="361" type="curve" smooth="yes"/>
      <point x="69" y="258"/>
      <point x="106" y="169"/>
      <point x="179" y="96" type="curve" smooth="yes"/>
      <point x="252" y="23"/>
      <point x="340" y="-14"/>
    </contour>
    <contour>
      <point x="443" y="36" type="curve" smooth="yes"/>
      <point x="354" y="36"/>
      <point x="277" y="68"/>
      <point x="214" y="131" type="curve" smooth="yes"/>
      <point x="151" y="194"/>
      <point x="119" y="271"/>
      <point x="119" y="361" type="curve" smooth="yes"/>
      <point x="119" y="450"/>
      <point x="151" y="527"/>
      <point x="214" y="591" type="curve" smooth="yes"/>
      <point x="277" y="654"/>
      <point x="354" y="686"/>
      <point x="443" y="686" type="curve" smooth="yes"/>
      <point x="532" y="686"/>
      <point x="609" y="654"/>
      <point x="672" y="591" type="curve" smooth="yes"/>
      <point x="735" y="527"/>
      <point x="767" y="450"/>
      <point x="767" y="361" type="curve" smooth="yes"/>
      <point x="767" y="271"/>
      <point x="735" y="194"/>
      <point x="672" y="131" type="curve" smooth="yes"/>
      <point x="609" y="68"/>
      <point x="532" y="36"/>
    </contour>
    <contour>
      <point x="287" y="136" type="line"/>
      <point x="357" y="136" type="line"/>
      <point x="357" y="347" type="line"/>
      <point x="436" y="347" type="line" smooth="yes"/>
      <point x="484" y="347"/>
      <point x="513" y="341"/>
      <point x="524" y="330" type="curve" smooth="yes"/>
      <point x="531" y="323"/>
      <point x="540" y="296"/>
      <point x="550" y="249" type="curve" smooth="yes"/>
      <point x="560" y="197"/>
      <point x="567" y="159"/>
      <point x="571" y="136" type="curve"/>
      <point x="643" y="136" type="line"/>
      <point x="632" y="165"/>
      <point x="624" y="202"/>
      <point x="618" y="247" type="curve" smooth="yes"/>
      <point x="612" y="290"/>
      <point x="607" y="316"/>
      <point x="603" y="326" type="curve" smooth="yes"/>
      <point x="595" y="345"/>
      <point x="588" y="357"/>
      <point x="583" y="361" type="curve"/>
      <point x="571" y="366"/>
      <point x="559" y="371"/>
      <point x="547" y="376" type="curve"/>
      <point x="603" y="403"/>
      <point x="631" y="436"/>
      <point x="631" y="477" type="curve" smooth="yes"/>
      <point x="631" y="523"/>
      <point x="617" y="556"/>
      <point x="588" y="577" type="curve" smooth="yes"/>
      <point x="561" y="596"/>
      <point x="518" y="605"/>
      <point x="461" y="605" type="curve" smooth="yes"/>
      <point x="287" y="605" type="line"/>
    </contour>
    <contour>
      <point x="357" y="408" type="line"/>
      <point x="357" y="544" type="line"/>
      <point x="460" y="544" type="line" smooth="yes"/>
      <point x="495" y="544"/>
      <point x="519" y="540"/>
      <point x="534" y="532" type="curve" smooth="yes"/>
      <point x="552" y="521"/>
      <point x="561" y="503"/>
      <point x="561" y="477" type="curve" smooth="yes"/>
      <point x="561" y="431"/>
      <point x="527" y="408"/>
      <point x="460" y="408" type="curve" smooth="yes"/>
    </contour>
  </outline>
</glyph>
<glyph name="macron" format="2">
	<advance width="300"/>
	<unicode hex="00AF"/>
	<outline>
		<contour>
			<point x="0" y="477" type="line"/>
			<point x="300" y="477" type="line"/>
			<point x="300" y="515" type="line"/>
			<point x="0" y="515" type="line"/>
		</contour>
	</outline>
</glyph>
<glyph name="degree" format="2">
	<advance width="334"/>
	<unicode hex="00B0"/>
	<outline>
		<contour>
			<point x="167" y="500" type="curve" smooth="yes"/>
			<point x="228" y="500"/>
			<point x="277" y="549"/>
			<point x="277" y="610" type="curve" smooth="yes"/>
			<point x="277" y="671"/>
			<point x="228" y="720"/>
			<point x="167" y="720" type="curve" smooth="yes"/>
			<point x="106" y="720"/>
			<point x="57" y="671"/>
			<point x="57" y="610" type="curve" smooth="yes"/>
			<point x="57" y="549"/>
			<point x="106" y="500"/>
		</contour>
		<contour>
			<point x="167" y="540" type="curve" smooth="yes"/>
			<point x="128" y="540"/>
			<point x="97" y="571"/>
			<point x="97" y="610" type="curve" smooth="yes"/>
			<point x="97" y="649"/>
			<point x="128" y="680"/>
			<point x="167" y="680" type="curve" smooth="yes"/>
			<point x="206" y="680"/>
			<point x="237" y="649"/>
			<point x="237" y="610" type="curve" smooth="yes"/>
			<point x="237" y="571"/>
			<point x="206" y="540"/>
		</contour>
	</outline>
</glyph>
<glyph name="plusminus" format="2">
  <advance width="1054"/>
  <unicode hex="00B1"/>
  <outline>
    <contour>
      <point x="227" y="0" type="line"/>
      <point x="827" y="0" type="line"/>
      <point x="827" y="62" type="line"/>
      <point x="558" y="62" type="line"/>
      <point x="558" y="300" type="line"/>
      <point x="827" y="300" type="line"/>
      <point x="827" y="362" type="line"/>
      <point x="558" y="362" type="line"/>
      <point x="558" y="600" type="line"/>
      <point x="496" y="600" type="line"/>
      <point x="496" y="362" type="line"/>
      <point x="227" y="362" type="line"/>
      <point x="227" y="300" type="line"/>
      <point x="496" y="300" type="line"/>
      <point x="496" y="62" type="line"/>
      <point x="227" y="62" type="line"/>
    </contour>
  </outline>
</glyph>
<glyph name="twosuperior" format="2">
	<advance width="343"/>
	<unicode hex="00B2"/>
	<outline>
		<contour>
			<point x="41" y="350" type="line"/>
			<point x="302" y="350" type="line"/>
			<point x="302" y="397" type="line"/>
			<point x="107" y="397" type="line"/>
			<point x="192" y="464"/>
			<point x="248" y="521"/>
			<point x="275" y="567" type="curve" smooth="yes"/>
			<point x="293" y="598"/>
			<point x="302" y="633"/>
			<point x="302" y="674" type="curve" smooth="yes"/>
			<point x="302" y="705"/>
			<point x="292" y="731"/>
			<point x="271" y="754" type="curve" smooth="yes"/>
			<point x="247" y="779"/>
			<point x="215" y="792"/>
			<point x="176" y="792" type="curve" smooth="yes"/>
			<point x="97" y="792"/>
			<point x="54" y="750"/>
			<point x="47" y="666" type="curve"/>
			<point x="108" y="666" type="line"/>
			<point x="114" y="717"/>
			<point x="137" y="742"/>
			<point x="176" y="742" type="curve" smooth="yes"/>
			<point x="220" y="742"/>
			<point x="242" y="717"/>
			<point x="242" y="666" type="curve" smooth="yes"/>
			<point x="242" y="634"/>
			<point x="234" y="605"/>
			<point x="217" y="578" type="curve" smooth="yes"/>
			<point x="188" y="530"/>
			<point x="129" y="473"/>
			<point x="41" y="406" type="curve"/>
		</contour>
	</outline>
</glyph>
<glyph name="threesuperior" format="2">
	<advance width="342"/>
	<unicode hex="00B3"/>
	<outline>
		<contour>
			<point x="169" y="342" type="curve" smooth="yes"/>
			<point x="250" y="342"/>
			<point x="311" y="395"/>
			<point x="311" y="466" type="curve" smooth="yes"/>
			<point x="311" y="501"/>
			<point x="305" y="528"/>
			<point x="294" y="546" type="curve" smooth="yes"/>
			<point x="287" y="556"/>
			<point x="276" y="566"/>
			<point x="259" y="577" type="curve"/>
			<point x="289" y="598"/>
			<point x="304" y="631"/>
			<point x="304" y="678" type="curve" smooth="yes"/>
			<point x="304" y="743"/>
			<point x="248" y="792"/>
			<point x="167" y="792" type="curve" smooth="yes"/>
			<point x="92" y="792"/>
			<point x="49" y="751"/>
			<point x="40" y="670" type="curve"/>
			<point x="100" y="670" type="line"/>
			<point x="109" y="720"/>
			<point x="132" y="745"/>
			<point x="169" y="745" type="curve" smooth="yes"/>
			<point x="188" y="745"/>
			<point x="204" y="741"/>
			<point x="217" y="732" type="curve" smooth="yes"/>
			<point x="235" y="721"/>
			<point x="244" y="704"/>
			<point x="244" y="682" type="curve" smooth="yes"/>
			<point x="244" y="621"/>
			<point x="223" y="600"/>
			<point x="163" y="600" type="curve"/>
			<point x="163" y="552" type="line"/>
			<point x="226" y="552"/>
			<point x="251" y="528"/>
			<point x="251" y="461" type="curve" smooth="yes"/>
			<point x="251" y="422"/>
			<point x="211" y="388"/>
			<point x="170" y="388" type="curve" smooth="yes"/>
			<point x="125" y="388"/>
			<point x="99" y="413"/>
			<point x="94" y="464" type="curve"/>
			<point x="31" y="464" type="line"/>
			<point x="31" y="431"/>
			<point x="42" y="403"/>
			<point x="63" y="381" type="curve" smooth="yes"/>
			<point x="88" y="355"/>
			<point x="124" y="342"/>
		</contour>
	</outline>
</glyph>
<glyph name="acute" format="2">
	<advance width="235"/>
	<unicode hex="00B4"/>
	<outline>
		<contour>
			<point x="62" y="600" type="line"/>
			<point x="123" y="600" type="line"/>
			<point x="263" y="771" type="line"/>
			<point x="162" y="771" type="line"/>
		</contour>
	</outline>
</glyph>
<glyph name="mu" format="2">
  <advance width="651"/>
  <unicode hex="00B5"/>
  <outline>
    <contour>
      <point x="80" y="-198" type="line"/>
      <point x="170" y="-198" type="line"/>
      <point x="170" y="13" type="line"/>
      <point x="194" y="-4"/>
      <point x="228" y="-13"/>
      <point x="271" y="-13" type="curve" smooth="yes"/>
      <point x="340" y="-13"/>
      <point x="393" y="15"/>
      <point x="428" y="71" type="curve"/>
      <point x="443" y="8"/>
      <point x="472" y="-14"/>
      <point x="548" y="-13" type="curve" smooth="yes"/>
      <point x="575" y="-12"/>
      <point x="600" y="-8"/>
      <point x="623" y="0" type="curve"/>
      <point x="623" y="64" type="line"/>
      <point x="608" y="60"/>
      <point x="590" y="57"/>
      <point x="568" y="56" type="curve" smooth="yes"/>
      <point x="531" y="54"/>
      <point x="513" y="79"/>
      <point x="513" y="131" type="curve" smooth="yes"/>
      <point x="513" y="500" type="line"/>
      <point x="423" y="500" type="line"/>
      <point x="423" y="178" type="line" smooth="yes"/>
      <point x="423" y="102"/>
      <point x="364" y="48"/>
      <point x="291" y="48" type="curve" smooth="yes"/>
      <point x="226" y="48"/>
      <point x="170" y="101"/>
      <point x="170" y="169" type="curve" smooth="yes"/>
      <point x="170" y="500" type="line"/>
      <point x="80" y="500" type="line"/>
    </contour>
  </outline>
</glyph>
<glyph name="paragraph" format="2">
  <advance width="576"/>
  <unicode hex="00B6"/>
  <outline>
    <contour>
      <point x="507" y="683" type="line"/>
      <point x="447" y="683" type="line"/>
      <point x="447" y="-160" type="line"/>
      <point x="397" y="-160" type="line"/>
      <point x="397" y="683" type="line"/>
      <point x="307" y="683" type="line"/>
      <point x="307" y="-160" type="line"/>
      <point x="257" y="-160" type="line"/>
      <point x="257" y="352" type="line"/>
      <point x="208" y="352"/>
      <point x="165" y="364"/>
      <point x="128" y="388" type="curve" smooth="yes"/>
      <point x="81" y="419"/>
      <point x="57" y="464"/>
      <point x="57" y="523" type="curve" smooth="yes"/>
      <point x="57" y="583"/>
      <point x="81" y="633"/>
      <point x="128" y="672" type="curve" smooth="yes"/>
      <point x="169" y="705"/>
      <point x="212" y="722"/>
      <point x="257" y="722" type="curve" smooth="yes"/>
      <point x="507" y="722" type="line"/>
    </contour>
  </outline>
</glyph>
<glyph name="periodcentered" format="2">
  <advance width="198"/>
  <unicode hex="00B7"/>
  <outline>
    <contour>
      <point x="158" y="340" type="curve" smooth="yes"/>
      <point x="158" y="307"/>
      <point x="132" y="281"/>
      <point x="99" y="281" type="curve" smooth="yes"/>
      <point x="66" y="281"/>
      <point x="40" y="307"/>
      <point x="40" y="340" type="curve" smooth="yes"/>
      <point x="40" y="373"/>
      <point x="66" y="399"/>
      <point x="99" y="399" type="curve" smooth="yes"/>
      <point x="132" y="399"/>
      <point x="158" y="373"/>
    </contour>
  </outline>
</glyph>
<glyph name="cedilla" format="2">
  <advance width="249"/>
  <unicode hex="00B8"/>
  <outline>
    <contour>
      <point x="300" y="-158" type="curve" smooth="yes"/>
      <point x="300" y="-209"/>
      <point x="227" y="-243"/>
      <point x="147" y="-243" type="curve" smooth="yes"/>
      <point x="122" y="-243"/>
      <point x="90" y="-240"/>
      <point x="51" y="-234" type="curve"/>
      <point x="51" y="-184" type="line"/>
      <point x="92" y="-192"/>
      <point x="127" y="-196"/>
      <point x="157" y="-196" type="curve" smooth="yes"/>
      <point x="206" y="-196"/>
      <point x="230" y="-184"/>
      <point x="230" y="-159" type="curve" smooth="yes"/>
      <point x="230" y="-117"/>
      <point x="190" y="-97"/>
      <point x="110" y="-100" type="curve"/>
      <point x="110" y="0" type="line"/>
      <point x="150" y="0" type="line"/>
      <point x="150" y="-50" type="line"/>
      <point x="250" y="-50"/>
      <point x="300" y="-86"/>
    </contour>
  </outline>
</glyph>
<glyph name="onesuperior" format="2">
  <advance width="360"/>
  <unicode hex="00B9"/>
  <outline>
    <contour>
      <point x="237" y="350" type="line"/>
      <point x="182" y="350" type="line"/>
      <point x="182" y="711" type="line"/>
      <point x="173" y="703"/>
      <point x="163" y="696"/>
      <point x="153" y="689" type="curve" smooth="yes"/>
      <point x="130" y="674"/>
      <point x="108" y="665"/>
      <point x="88" y="661" type="curve"/>
      <point x="88" y="711" type="line"/>
      <point x="125" y="723"/>
      <point x="154" y="747"/>
      <point x="177" y="783" type="curve"/>
      <point x="237" y="783" type="line"/>
    </contour>
  </outline>
</glyph>
<glyph name="ordmasculine" format="2">
  <advance width="422"/>
  <unicode hex="00BA"/>
  <outline>
    <contour>
      <point x="211" y="341" type="curve" smooth="yes"/>
      <point x="261" y="341"/>
      <point x="302" y="356"/>
      <point x="333" y="386" type="curve" smooth="yes"/>
      <point x="366" y="419"/>
      <point x="383" y="465"/>
      <point x="383" y="525" type="curve" smooth="yes"/>
      <point x="383" y="585"/>
      <point x="366" y="631"/>
      <point x="333" y="664" type="curve" smooth="yes"/>
      <point x="302" y="694"/>
      <point x="261" y="709"/>
      <point x="211" y="709" type="curve" smooth="yes"/>
      <point x="161" y="709"/>
      <point x="120" y="694"/>
      <point x="89" y="664" type="curve" smooth="yes"/>
      <point x="56" y="631"/>
      <point x="39" y="585"/>
      <point x="39" y="525" type="curve" smooth="yes"/>
      <point x="39" y="465"/>
      <point x="56" y="419"/>
      <point x="89" y="386" type="curve" smooth="yes"/>
      <point x="120" y="356"/>
      <point x="161" y="341"/>
    </contour>
    <contour>
      <point x="37" y="241" type="line"/>
      <point x="385" y="241" type="line"/>
      <point x="385" y="278" type="line"/>
      <point x="37" y="278" type="line"/>
    </contour>
    <contour>
      <point x="211" y="386" type="curve" smooth="yes"/>
      <point x="176" y="386"/>
      <point x="149" y="401"/>
      <point x="130" y="431" type="curve" smooth="yes"/>
      <point x="113" y="456"/>
      <point x="105" y="488"/>
      <point x="105" y="525" type="curve" smooth="yes"/>
      <point x="105" y="562"/>
      <point x="113" y="594"/>
      <point x="130" y="619" type="curve" smooth="yes"/>
      <point x="149" y="649"/>
      <point x="176" y="664"/>
      <point x="211" y="664" type="curve" smooth="yes"/>
      <point x="246" y="664"/>
      <point x="273" y="649"/>
      <point x="292" y="619" type="curve" smooth="yes"/>
      <point x="309" y="593"/>
      <point x="318" y="562"/>
      <point x="318" y="525" type="curve" smooth="yes"/>
      <point x="318" y="488"/>
      <point x="309" y="457"/>
      <point x="292" y="431" type="curve" smooth="yes"/>
      <point x="273" y="401"/>
      <point x="246" y="386"/>
    </contour>
  </outline>
</glyph>
<glyph name="guillemotright" format="2">
  <advance width="576"/>
  <unicode hex="00BB"/>
  <outline>
    <contour>
      <point x="278" y="57" type="line"/>
      <point x="356" y="57" type="line"/>
      <point x="493" y="252" type="line"/>
      <point x="356" y="447" type="line"/>
      <point x="278" y="447" type="line"/>
      <point x="397" y="252" type="line"/>
    </contour>
    <contour>
      <point x="83" y="57" type="line"/>
      <point x="161" y="57" type="line"/>
      <point x="298" y="252" type="line"/>
      <point x="161" y="447" type="line"/>
      <point x="83" y="447" type="line"/>
      <point x="202" y="252" type="line"/>
    </contour>
  </outline>
</glyph>
<glyph name="onequarter" format="2">
	<advance width="814"/>
	<unicode hex="00BC"/>
	<outline>
		<contour>
			<point x="125" y="-14" type="line"/>
			<point x="194" y="-14" type="line"/>
			<point x="620" y="736" type="line"/>
			<point x="551" y="736" type="line"/>
		</contour>
		<contour>
			<point x="160" y="351" type="line"/>
			<point x="224" y="351" type="line"/>
			<point x="224" y="731" type="line"/>
			<point x="162" y="731" type="line"/>
			<point x="129" y="703"/>
			<point x="96" y="684"/>
			<point x="63" y="673" type="curve"/>
			<point x="63" y="618" type="line"/>
			<point x="82" y="621"/>
			<point x="103" y="630"/>
			<point x="128" y="645" type="curve" smooth="yes"/>
			<point x="139" y="651"/>
			<point x="149" y="658"/>
			<point x="160" y="666" type="curve"/>
		</contour>
		<contour>
			<point x="485" y="148" type="line"/>
			<point x="606" y="313" type="line"/>
			<point x="606" y="148" type="line"/>
		</contour>
		<contour>
			<point x="606" y="0" type="line"/>
			<point x="670" y="0" type="line"/>
			<point x="670" y="95" type="line"/>
			<point x="751" y="95" type="line"/>
			<point x="751" y="148" type="line"/>
			<point x="670" y="148" type="line"/>
			<point x="670" y="390" type="line"/>
			<point x="600" y="390" type="line"/>
			<point x="426" y="147" type="line"/>
			<point x="426" y="95" type="line"/>
			<point x="606" y="95" type="line"/>
		</contour>
	</outline>
</glyph>
<glyph name="onehalf" format="2">
  <advance width="816"/>
  <unicode hex="00BD"/>
  <outline>
    <contour>
      <point x="754" y="0" type="line"/>
      <point x="461" y="0" type="line"/>
      <point x="461" y="63" type="line"/>
      <point x="556" y="136"/>
      <point x="615" y="183"/>
      <point x="636" y="202" type="curve" smooth="yes"/>
      <point x="663" y="227"/>
      <point x="676" y="248"/>
      <point x="676" y="266" type="curve" smooth="yes"/>
      <point x="676" y="310"/>
      <point x="652" y="332"/>
      <point x="604" y="332" type="curve" smooth="yes"/>
      <point x="569" y="332"/>
      <point x="549" y="312"/>
      <point x="544" y="272" type="curve"/>
      <point x="471" y="272" type="line"/>
      <point x="475" y="339"/>
      <point x="529" y="391"/>
      <point x="606" y="391" type="curve" smooth="yes"/>
      <point x="659" y="391"/>
      <point x="697" y="378"/>
      <point x="721" y="351" type="curve" smooth="yes"/>
      <point x="740" y="330"/>
      <point x="749" y="304"/>
      <point x="749" y="273" type="curve" smooth="yes"/>
      <point x="749" y="245"/>
      <point x="737" y="218"/>
      <point x="714" y="193" type="curve" smooth="yes"/>
      <point x="693" y="171"/>
      <point x="639" y="126"/>
      <point x="552" y="58" type="curve"/>
      <point x="754" y="58" type="line"/>
    </contour>
    <contour>
      <point x="620" y="736" type="line"/>
      <point x="194" y="-14" type="line"/>
      <point x="125" y="-14" type="line"/>
      <point x="551" y="736" type="line"/>
    </contour>
    <contour>
      <point x="223" y="351" type="line"/>
      <point x="159" y="351" type="line"/>
      <point x="159" y="666" type="line"/>
      <point x="148" y="658"/>
      <point x="138" y="651"/>
      <point x="127" y="645" type="curve" smooth="yes"/>
      <point x="102" y="630"/>
      <point x="81" y="621"/>
      <point x="62" y="618" type="curve"/>
      <point x="62" y="673" type="line"/>
      <point x="96" y="684"/>
      <point x="129" y="703"/>
      <point x="162" y="731" type="curve"/>
      <point x="223" y="731" type="line"/>
    </contour>
  </outline>
</glyph>
<glyph name="threequarters" format="2">
	<advance width="808"/>
	<unicode hex="00BE"/>
	<outline>
		<contour>
			<point x="170" y="-14" type="line"/>
			<point x="239" y="-14" type="line"/>
			<point x="665" y="736" type="line"/>
			<point x="596" y="736" type="line"/>
		</contour>
		<contour>
			<point x="186" y="340" type="curve" smooth="yes"/>
			<point x="265" y="340"/>
			<point x="339" y="388"/>
			<point x="339" y="449" type="curve" smooth="yes"/>
			<point x="339" y="499"/>
			<point x="311" y="532"/>
			<point x="254" y="547" type="curve"/>
			<point x="305" y="566"/>
			<point x="331" y="597"/>
			<point x="331" y="639" type="curve" smooth="yes"/>
			<point x="331" y="668"/>
			<point x="320" y="691"/>
			<point x="297" y="708" type="curve" smooth="yes"/>
			<point x="272" y="727"/>
			<point x="236" y="736"/>
			<point x="190" y="736" type="curve" smooth="yes"/>
			<point x="151" y="736"/>
			<point x="119" y="728"/>
			<point x="94" y="711" type="curve" smooth="yes"/>
			<point x="65" y="692"/>
			<point x="50" y="663"/>
			<point x="50" y="626" type="curve"/>
			<point x="114" y="626" type="line"/>
			<point x="119" y="659"/>
			<point x="143" y="677"/>
			<point x="186" y="680" type="curve" smooth="yes"/>
			<point x="200" y="681"/>
			<point x="214" y="678"/>
			<point x="229" y="672" type="curve" smooth="yes"/>
			<point x="248" y="663"/>
			<point x="257" y="651"/>
			<point x="257" y="635" type="curve" smooth="yes"/>
			<point x="257" y="591"/>
			<point x="224" y="569"/>
			<point x="159" y="569" type="curve"/>
			<point x="159" y="516" type="line"/>
			<point x="234" y="516"/>
			<point x="271" y="492"/>
			<point x="271" y="445" type="curve" smooth="yes"/>
			<point x="271" y="422"/>
			<point x="220" y="399"/>
			<point x="188" y="399" type="curve" smooth="yes"/>
			<point x="139" y="399"/>
			<point x="106" y="426"/>
			<point x="102" y="461" type="curve"/>
			<point x="36" y="461" type="line"/>
			<point x="40" y="386"/>
			<point x="101" y="340"/>
		</contour>
		<contour>
			<point x="506" y="148" type="line"/>
			<point x="627" y="313" type="line"/>
			<point x="627" y="148" type="line"/>
		</contour>
		<contour>
			<point x="627" y="0" type="line"/>
			<point x="691" y="0" type="line"/>
			<point x="691" y="95" type="line"/>
			<point x="772" y="95" type="line"/>
			<point x="772" y="148" type="line"/>
			<point x="691" y="148" type="line"/>
			<point x="691" y="390" type="line"/>
			<point x="621" y="390" type="line"/>
			<point x="447" y="147" type="line"/>
			<point x="447" y="95" type="line"/>
			<point x="627" y="95" type="line"/>
		</contour>
	</outline>
</glyph>
<glyph name="questiondown" format="2">
  <advance width="527"/>
  <unicode hex="00BF"/>
  <outline>
    <contour>
      <point x="290" y="-198" type="curve" smooth="yes"/>
      <point x="384" y="-198"/>
      <point x="454" y="-154"/>
      <point x="499" y="-67" type="curve"/>
      <point x="433" y="-25" type="line"/>
      <point x="414" y="-60"/>
      <point x="392" y="-82"/>
      <point x="366" y="-93" type="curve" smooth="yes"/>
      <point x="351" y="-99"/>
      <point x="325" y="-103"/>
      <point x="288" y="-104" type="curve" smooth="yes"/>
      <point x="253" y="-105"/>
      <point x="224" y="-98"/>
      <point x="201" y="-83" type="curve" smooth="yes"/>
      <point x="176" y="-67"/>
      <point x="163" y="-46"/>
      <point x="163" y="-20" type="curve" smooth="yes"/>
      <point x="163" y="12"/>
      <point x="179" y="44"/>
      <point x="210" y="75" type="curve"/>
      <point x="239" y="101"/>
      <point x="269" y="127"/>
      <point x="298" y="152" type="curve"/>
      <point x="329" y="181"/>
      <point x="345" y="209"/>
      <point x="345" y="235" type="curve" smooth="yes"/>
      <point x="345" y="335" type="line"/>
      <point x="265" y="335" type="line"/>
      <point x="265" y="251" type="line" smooth="yes"/>
      <point x="265" y="231"/>
      <point x="248" y="207"/>
      <point x="213" y="179" type="curve" smooth="yes"/>
      <point x="156" y="134"/>
      <point x="123" y="107"/>
      <point x="116" y="99" type="curve" smooth="yes"/>
      <point x="81" y="62"/>
      <point x="64" y="24"/>
      <point x="64" y="-17" type="curve" smooth="yes"/>
      <point x="64" y="-72"/>
      <point x="88" y="-117"/>
      <point x="135" y="-151" type="curve" smooth="yes"/>
      <point x="178" y="-182"/>
      <point x="230" y="-198"/>
    </contour>
    <contour>
      <point x="255" y="405" type="line"/>
      <point x="355" y="405" type="line"/>
      <point x="355" y="500" type="line"/>
      <point x="255" y="500" type="line"/>
    </contour>
  </outline>
</glyph>
<glyph name="Agrave" format="2">
	<advance width="754"/>
	<unicode hex="00C0"/>
	<outline>
		<contour>
			<point x="17" y="0" type="line"/>
			<point x="120" y="0" type="line"/>
			<point x="199" y="193" type="line"/>
			<point x="553" y="193" type="line"/>
			<point x="631" y="0" type="line"/>
			<point x="737" y="0" type="line"/>
			<point x="430" y="722" type="line"/>
			<point x="320" y="722" type="line"/>
		</contour>
		<contour>
			<point x="238" y="278" type="line"/>
			<point x="373" y="611" type="line"/>
			<point x="511" y="278" type="line"/>
		</contour>
		<contour>
			<point x="357" y="822" type="line"/>
			<point x="418" y="822" type="line"/>
			<point x="318" y="993" type="line"/>
			<point x="217" y="993" type="line"/>
		</contour>
	</outline>
</glyph>
<glyph name="Acircumflex" format="2">
	<advance width="754"/>
	<unicode hex="00C2"/>
	<outline>
		<contour>
			<point x="17" y="0" type="line"/>
			<point x="120" y="0" type="line"/>
			<point x="199" y="193" type="line"/>
			<point x="553" y="193" type="line"/>
			<point x="631" y="0" type="line"/>
			<point x="737" y="0" type="line"/>
			<point x="430" y="722" type="line"/>
			<point x="320" y="722" type="line"/>
		</contour>
		<contour>
			<point x="238" y="278" type="line"/>
			<point x="373" y="611" type="line"/>
			<point x="511" y="278" type="line"/>
		</contour>
		<contour>
			<point x="232" y="821" type="line"/>
			<point x="292" y="821" type="line"/>
			<point x="377" y="931" type="line"/>
			<point x="462" y="821" type="line"/>
			<point x="522" y="821" type="line"/>
			<point x="432" y="991" type="line"/>
			<point x="322" y="991" type="line"/>
		</contour>
	</outline>
</glyph>
<glyph name="Atilde" format="2">
  <advance width="754"/>
  <unicode hex="00C3"/>
  <outline>
    <contour>
      <point x="522" y="942" type="line"/>
      <point x="519" y="911"/>
      <point x="509" y="887"/>
      <point x="492" y="868" type="curve" smooth="yes"/>
      <point x="476" y="852"/>
      <point x="458" y="844"/>
      <point x="437" y="844" type="curve" smooth="yes"/>
      <point x="394" y="844"/>
      <point x="331" y="881"/>
      <point x="319" y="881" type="curve" smooth="yes"/>
      <point x="305" y="881"/>
      <point x="294" y="867"/>
      <point x="287" y="840" type="curve"/>
      <point x="232" y="840" type="line"/>
      <point x="237" y="901"/>
      <point x="276" y="938"/>
      <point x="316" y="938" type="curve" smooth="yes"/>
      <point x="360" y="938"/>
      <point x="424" y="901"/>
      <point x="436" y="901" type="curve" smooth="yes"/>
      <point x="450" y="901"/>
      <point x="460" y="915"/>
      <point x="467" y="942" type="curve"/>
    </contour>
    <contour>
      <point x="737" y="0" type="line"/>
      <point x="631" y="0" type="line"/>
      <point x="553" y="193" type="line"/>
      <point x="199" y="193" type="line"/>
      <point x="120" y="0" type="line"/>
      <point x="17" y="0" type="line"/>
      <point x="320" y="722" type="line"/>
      <point x="430" y="722" type="line"/>
    </contour>
    <contour>
      <point x="511" y="278" type="line"/>
      <point x="373" y="611" type="line"/>
      <point x="238" y="278" type="line"/>
    </contour>
  </outline>
</glyph>
<glyph name="Adieresis" format="2">
  <advance width="754"/>
  <unicode hex="00C4"/>
  <outline>
    <contour>
      <point x="17" y="0" type="line"/>
      <point x="120" y="0" type="line"/>
      <point x="199" y="193" type="line"/>
      <point x="553" y="193" type="line"/>
      <point x="631" y="0" type="line"/>
      <point x="737" y="0" type="line"/>
      <point x="430" y="722" type="line"/>
      <point x="320" y="722" type="line"/>
    </contour>
    <contour>
      <point x="238" y="278" type="line"/>
      <point x="373" y="611" type="line"/>
      <point x="511" y="278" type="line"/>
    </contour>
    <contour>
      <point x="244" y="850" type="line"/>
      <point x="334" y="850" type="line"/>
      <point x="334" y="942" type="line"/>
      <point x="244" y="942" type="line"/>
    </contour>
    <contour>
      <point x="444" y="850" type="line"/>
      <point x="534" y="850" type="line"/>
      <point x="534" y="942" type="line"/>
      <point x="444" y="942" type="line"/>
    </contour>
  </outline>
</glyph>
<glyph name="Aring" format="2">
  <advance width="754"/>
  <unicode hex="00C5"/>
  <outline>
    <contour>
      <point x="478" y="930" type="curve" smooth="yes"/>
      <point x="478" y="869"/>
      <point x="429" y="820"/>
      <point x="368" y="820" type="curve" smooth="yes"/>
      <point x="307" y="820"/>
      <point x="258" y="869"/>
      <point x="258" y="930" type="curve" smooth="yes"/>
      <point x="258" y="991"/>
      <point x="307" y="1040"/>
      <point x="368" y="1040" type="curve" smooth="yes"/>
      <point x="429" y="1040"/>
      <point x="478" y="991"/>
    </contour>
    <contour>
      <point x="737" y="-0" type="line"/>
      <point x="631" y="-0" type="line"/>
      <point x="553" y="193" type="line"/>
      <point x="199" y="193" type="line"/>
      <point x="120" y="-0" type="line"/>
      <point x="17" y="-0" type="line"/>
      <point x="320" y="722" type="line"/>
      <point x="430" y="722" type="line"/>
    </contour>
    <contour>
      <point x="438" y="930" type="curve" smooth="yes"/>
      <point x="438" y="969"/>
      <point x="407" y="1000"/>
      <point x="368" y="1000" type="curve" smooth="yes"/>
      <point x="329" y="1000"/>
      <point x="298" y="969"/>
      <point x="298" y="930" type="curve" smooth="yes"/>
      <point x="298" y="891"/>
      <point x="329" y="860"/>
      <point x="368" y="860" type="curve" smooth="yes"/>
      <point x="407" y="860"/>
      <point x="438" y="891"/>
    </contour>
    <contour>
      <point x="511" y="278" type="line"/>
      <point x="373" y="611" type="line"/>
      <point x="238" y="278" type="line"/>
    </contour>
  </outline>
</glyph>
<glyph name="AE" format="2">
  <advance width="988"/>
  <unicode hex="00C6"/>
  <outline>
    <contour>
      <point x="919" y="0" type="line"/>
      <point x="462" y="0" type="line"/>
      <point x="462" y="193" type="line"/>
      <point x="231" y="193" type="line"/>
      <point x="123" y="0" type="line"/>
      <point x="17" y="0" type="line"/>
      <point x="400" y="722" type="line"/>
      <point x="909" y="722" type="line"/>
      <point x="909" y="635" type="line"/>
      <point x="563" y="635" type="line"/>
      <point x="563" y="413" type="line"/>
      <point x="899" y="413" type="line"/>
      <point x="899" y="326" type="line"/>
      <point x="563" y="326" type="line"/>
      <point x="563" y="87" type="line"/>
      <point x="919" y="87" type="line"/>
    </contour>
    <contour>
      <point x="462" y="278" type="line"/>
      <point x="462" y="641" type="line"/>
      <point x="280" y="278" type="line"/>
    </contour>
  </outline>
</glyph>
<glyph name="Ccedilla" format="2">
  <advance width="698"/>
  <unicode hex="00C7"/>
  <outline>
    <contour>
      <point x="629" y="193" type="line"/>
      <point x="629" y="134"/>
      <point x="607" y="86"/>
      <point x="562" y="48" type="curve" smooth="yes"/>
      <point x="515" y="8"/>
      <point x="453" y="-13"/>
      <point x="374" y="-14" type="curve"/>
      <point x="374" y="-50" type="line"/>
      <point x="474" y="-50"/>
      <point x="524" y="-86"/>
      <point x="524" y="-158" type="curve" smooth="yes"/>
      <point x="524" y="-210"/>
      <point x="468" y="-243"/>
      <point x="391" y="-243" type="curve" smooth="yes"/>
      <point x="353" y="-243"/>
      <point x="314" y="-240"/>
      <point x="275" y="-234" type="curve"/>
      <point x="275" y="-184" type="line"/>
      <point x="316" y="-192"/>
      <point x="351" y="-196"/>
      <point x="381" y="-196" type="curve" smooth="yes"/>
      <point x="430" y="-196"/>
      <point x="454" y="-184"/>
      <point x="454" y="-159" type="curve" smooth="yes"/>
      <point x="454" y="-117"/>
      <point x="414" y="-97"/>
      <point x="334" y="-100" type="curve"/>
      <point x="334" y="-13" type="line"/>
      <point x="241" y="-6"/>
      <point x="172" y="35"/>
      <point x="127" y="108" type="curve" smooth="yes"/>
      <point x="88" y="170"/>
      <point x="69" y="253"/>
      <point x="69" y="356" type="curve" smooth="yes"/>
      <point x="69" y="466"/>
      <point x="90" y="554"/>
      <point x="133" y="619" type="curve" smooth="yes"/>
      <point x="184" y="697"/>
      <point x="263" y="736"/>
      <point x="368" y="736" type="curve" smooth="yes"/>
      <point x="454" y="736"/>
      <point x="520" y="716"/>
      <point x="565" y="675" type="curve" smooth="yes"/>
      <point x="605" y="638"/>
      <point x="625" y="590"/>
      <point x="625" y="529" type="curve"/>
      <point x="524" y="529" type="line"/>
      <point x="524" y="614"/>
      <point x="472" y="657"/>
      <point x="369" y="657" type="curve" smooth="yes"/>
      <point x="237" y="657"/>
      <point x="171" y="557"/>
      <point x="171" y="356" type="curve" smooth="yes"/>
      <point x="171" y="252"/>
      <point x="188" y="177"/>
      <point x="222" y="130" type="curve" smooth="yes"/>
      <point x="253" y="88"/>
      <point x="301" y="67"/>
      <point x="365" y="67" type="curve" smooth="yes"/>
      <point x="474" y="67"/>
      <point x="528" y="109"/>
      <point x="528" y="193" type="curve"/>
    </contour>
  </outline>
</glyph>
<glyph name="Egrave" format="2">
  <advance width="629"/>
  <unicode hex="00C8"/>
  <outline>
    <contour>
      <point x="376" y="821" type="line"/>
      <point x="315" y="821" type="line"/>
      <point x="175" y="992" type="line"/>
      <point x="276" y="992" type="line"/>
    </contour>
    <contour>
      <point x="549" y="-0" type="line"/>
      <point x="92" y="-0" type="line"/>
      <point x="92" y="722" type="line"/>
      <point x="539" y="722" type="line"/>
      <point x="539" y="635" type="line"/>
      <point x="193" y="635" type="line"/>
      <point x="193" y="413" type="line"/>
      <point x="529" y="413" type="line"/>
      <point x="529" y="326" type="line"/>
      <point x="193" y="326" type="line"/>
      <point x="193" y="87" type="line"/>
      <point x="549" y="87" type="line"/>
    </contour>
  </outline>
</glyph>
<glyph name="Eacute" format="2">
	<advance width="629"/>
	<unicode hex="00C9"/>
	<outline>
		<contour>
			<point x="92" y="0" type="line"/>
			<point x="549" y="0" type="line"/>
			<point x="549" y="87" type="line"/>
			<point x="193" y="87" type="line"/>
			<point x="193" y="326" type="line"/>
			<point x="529" y="326" type="line"/>
			<point x="529" y="413" type="line"/>
			<point x="193" y="413" type="line"/>
			<point x="193" y="635" type="line"/>
			<point x="539" y="635" type="line"/>
			<point x="539" y="722" type="line"/>
			<point x="92" y="722" type="line"/>
		</contour>
		<contour>
			<point x="266" y="820" type="line"/>
			<point x="327" y="820" type="line"/>
			<point x="467" y="991" type="line"/>
			<point x="366" y="991" type="line"/>
		</contour>
	</outline>
</glyph>
<glyph name="Ecircumflex" format="2">
	<advance width="629"/>
	<unicode hex="00CA"/>
	<outline>
		<contour>
			<point x="92" y="0" type="line"/>
			<point x="549" y="0" type="line"/>
			<point x="549" y="87" type="line"/>
			<point x="193" y="87" type="line"/>
			<point x="193" y="326" type="line"/>
			<point x="529" y="326" type="line"/>
			<point x="529" y="413" type="line"/>
			<point x="193" y="413" type="line"/>
			<point x="193" y="635" type="line"/>
			<point x="539" y="635" type="line"/>
			<point x="539" y="722" type="line"/>
			<point x="92" y="722" type="line"/>
		</contour>
		<contour>
			<point x="170" y="821" type="line"/>
			<point x="230" y="821" type="line"/>
			<point x="315" y="931" type="line"/>
			<point x="400" y="821" type="line"/>
			<point x="460" y="821" type="line"/>
			<point x="370" y="991" type="line"/>
			<point x="260" y="991" type="line"/>
		</contour>
	</outline>
</glyph>
<glyph name="Edieresis" format="2">
	<advance width="629"/>
	<unicode hex="00CB"/>
	<outline>
		<contour>
			<point x="92" y="0" type="line"/>
			<point x="549" y="0" type="line"/>
			<point x="549" y="87" type="line"/>
			<point x="193" y="87" type="line"/>
			<point x="193" y="326" type="line"/>
			<point x="529" y="326" type="line"/>
			<point x="529" y="413" type="line"/>
			<point x="193" y="413" type="line"/>
			<point x="193" y="635" type="line"/>
			<point x="539" y="635" type="line"/>
			<point x="539" y="722" type="line"/>
			<point x="92" y="722" type="line"/>
		</contour>
		<contour>
			<point x="170" y="851" type="line"/>
			<point x="260" y="851" type="line"/>
			<point x="260" y="943" type="line"/>
			<point x="170" y="943" type="line"/>
		</contour>
		<contour>
			<point x="370" y="851" type="line"/>
			<point x="460" y="851" type="line"/>
			<point x="460" y="943" type="line"/>
			<point x="370" y="943" type="line"/>
		</contour>
	</outline>
</glyph>
<glyph name="Igrave" format="2">
	<advance width="270"/>
	<unicode hex="00CC"/>
	<outline>
		<contour>
			<point x="79" y="0" type="line"/>
			<point x="180" y="0" type="line"/>
			<point x="180" y="722" type="line"/>
			<point x="79" y="722" type="line"/>
		</contour>
		<contour>
			<point x="128" y="821" type="line"/>
			<point x="189" y="821" type="line"/>
			<point x="89" y="992" type="line"/>
			<point x="-12" y="992" type="line"/>
		</contour>
	</outline>
</glyph>
<glyph name="Iacute" format="2">
	<advance width="270"/>
	<unicode hex="00CD"/>
	<outline>
		<contour>
			<point x="90" y="0" type="line"/>
			<point x="191" y="0" type="line"/>
			<point x="191" y="722" type="line"/>
			<point x="90" y="722" type="line"/>
		</contour>
		<contour>
			<point x="81" y="822" type="line"/>
			<point x="142" y="822" type="line"/>
			<point x="282" y="993" type="line"/>
			<point x="181" y="993" type="line"/>
		</contour>
	</outline>
</glyph>
<glyph name="Icircumflex" format="2">
  <advance width="257"/>
  <unicode hex="00CE"/>
  <outline>
    <contour>
      <point x="274" y="821" type="line"/>
      <point x="214" y="821" type="line"/>
      <point x="129" y="931" type="line"/>
      <point x="44" y="821" type="line"/>
      <point x="-16" y="821" type="line"/>
      <point x="74" y="991" type="line"/>
      <point x="184" y="991" type="line"/>
    </contour>
    <contour>
      <point x="179" y="-0" type="line"/>
      <point x="78" y="-0" type="line"/>
      <point x="78" y="722" type="line"/>
      <point x="179" y="722" type="line"/>
    </contour>
  </outline>
</glyph>
<glyph name="Idieresis" format="2">
	<advance width="257"/>
	<unicode hex="00CF"/>
	<outline>
		<contour>
			<point x="78" y="0" type="line"/>
			<point x="179" y="0" type="line"/>
			<point x="179" y="722" type="line"/>
			<point x="78" y="722" type="line"/>
		</contour>
		<contour>
			<point x="-16" y="850" type="line"/>
			<point x="74" y="850" type="line"/>
			<point x="74" y="942" type="line"/>
			<point x="-16" y="942" type="line"/>
		</contour>
		<contour>
			<point x="184" y="850" type="line"/>
			<point x="274" y="850" type="line"/>
			<point x="274" y="942" type="line"/>
			<point x="184" y="942" type="line"/>
		</contour>
	</outline>
</glyph>
<glyph name="Eth" format="2">
  <advance width="729"/>
  <unicode hex="00D0"/>
  <outline>
    <contour>
      <point x="80" y="0" type="line"/>
      <point x="305" y="0" type="line" smooth="yes"/>
      <point x="430" y="0"/>
      <point x="524" y="39"/>
      <point x="585" y="116" type="curve" smooth="yes"/>
      <point x="635" y="179"/>
      <point x="660" y="261"/>
      <point x="660" y="362" type="curve" smooth="yes"/>
      <point x="660" y="466"/>
      <point x="635" y="549"/>
      <point x="585" y="611" type="curve" smooth="yes"/>
      <point x="524" y="685"/>
      <point x="431" y="722"/>
      <point x="305" y="722" type="curve" smooth="yes"/>
      <point x="80" y="722" type="line"/>
      <point x="80" y="402" type="line"/>
      <point x="0" y="402" type="line"/>
      <point x="0" y="319" type="line"/>
      <point x="80" y="319" type="line"/>
    </contour>
    <contour>
      <point x="181" y="87" type="line"/>
      <point x="181" y="319" type="line"/>
      <point x="350" y="319" type="line"/>
      <point x="350" y="402" type="line"/>
      <point x="181" y="402" type="line"/>
      <point x="181" y="635" type="line"/>
      <point x="307" y="635" type="line" smooth="yes"/>
      <point x="466" y="635"/>
      <point x="561" y="537"/>
      <point x="561" y="362" type="curve" smooth="yes"/>
      <point x="561" y="189"/>
      <point x="464" y="87"/>
      <point x="307" y="87" type="curve" smooth="yes"/>
    </contour>
  </outline>
</glyph>
<glyph name="Ntilde" format="2">
  <advance width="747"/>
  <unicode hex="00D1"/>
  <outline>
    <contour>
      <point x="512" y="942" type="line"/>
      <point x="509" y="911"/>
      <point x="499" y="887"/>
      <point x="482" y="868" type="curve" smooth="yes"/>
      <point x="466" y="852"/>
      <point x="448" y="844"/>
      <point x="427" y="844" type="curve" smooth="yes"/>
      <point x="384" y="844"/>
      <point x="321" y="881"/>
      <point x="309" y="881" type="curve" smooth="yes"/>
      <point x="295" y="881"/>
      <point x="284" y="867"/>
      <point x="277" y="840" type="curve"/>
      <point x="222" y="840" type="line"/>
      <point x="227" y="901"/>
      <point x="266" y="938"/>
      <point x="306" y="938" type="curve" smooth="yes"/>
      <point x="350" y="938"/>
      <point x="414" y="901"/>
      <point x="426" y="901" type="curve" smooth="yes"/>
      <point x="440" y="901"/>
      <point x="450" y="915"/>
      <point x="457" y="942" type="curve"/>
    </contour>
    <contour>
      <point x="655" y="0" type="line"/>
      <point x="511" y="0" type="line"/>
      <point x="193" y="592" type="line"/>
      <point x="193" y="0" type="line"/>
      <point x="92" y="0" type="line"/>
      <point x="92" y="722" type="line"/>
      <point x="235" y="722" type="line"/>
      <point x="554" y="130" type="line"/>
      <point x="554" y="722" type="line"/>
      <point x="655" y="722" type="line"/>
    </contour>
  </outline>
</glyph>
<glyph name="Otilde" format="2">
	<advance width="792"/>
	<unicode hex="00D5"/>
	<outline>
		<contour>
			<point x="397" y="-14" type="curve" smooth="yes"/>
			<point x="502" y="-14"/>
			<point x="584" y="25"/>
			<point x="643" y="104" type="curve" smooth="yes"/>
			<point x="696" y="175"/>
			<point x="723" y="265"/>
			<point x="723" y="375" type="curve" smooth="yes"/>
			<point x="723" y="483"/>
			<point x="696" y="569"/>
			<point x="643" y="633" type="curve" smooth="yes"/>
			<point x="586" y="702"/>
			<point x="504" y="736"/>
			<point x="397" y="736" type="curve" smooth="yes"/>
			<point x="290" y="736"/>
			<point x="207" y="702"/>
			<point x="149" y="633" type="curve" smooth="yes"/>
			<point x="96" y="569"/>
			<point x="69" y="483"/>
			<point x="69" y="375" type="curve" smooth="yes"/>
			<point x="69" y="265"/>
			<point x="96" y="175"/>
			<point x="149" y="104" type="curve" smooth="yes"/>
			<point x="208" y="25"/>
			<point x="291" y="-14"/>
		</contour>
		<contour>
			<point x="397" y="74" type="curve" smooth="yes"/>
			<point x="316" y="74"/>
			<point x="257" y="105"/>
			<point x="219" y="168" type="curve" smooth="yes"/>
			<point x="188" y="219"/>
			<point x="172" y="288"/>
			<point x="172" y="375" type="curve" smooth="yes"/>
			<point x="172" y="558"/>
			<point x="247" y="649"/>
			<point x="397" y="649" type="curve" smooth="yes"/>
			<point x="546" y="649"/>
			<point x="620" y="558"/>
			<point x="620" y="375" type="curve" smooth="yes"/>
			<point x="620" y="288"/>
			<point x="605" y="219"/>
			<point x="574" y="168" type="curve" smooth="yes"/>
			<point x="537" y="105"/>
			<point x="478" y="74"/>
		</contour>
		<contour>
			<point x="252" y="840" type="curve"/>
			<point x="307" y="840" type="line"/>
			<point x="314" y="867"/>
			<point x="325" y="881"/>
			<point x="339" y="881" type="curve" smooth="yes"/>
			<point x="351" y="881"/>
			<point x="414" y="844"/>
			<point x="457" y="844" type="curve" smooth="yes"/>
			<point x="478" y="844"/>
			<point x="496" y="852"/>
			<point x="512" y="868" type="curve" smooth="yes"/>
			<point x="529" y="887"/>
			<point x="539" y="911"/>
			<point x="542" y="942" type="curve"/>
			<point x="487" y="942" type="line"/>
			<point x="480" y="915"/>
			<point x="470" y="901"/>
			<point x="456" y="901" type="curve" smooth="yes"/>
			<point x="444" y="901"/>
			<point x="380" y="938"/>
			<point x="336" y="938" type="curve" smooth="yes"/>
			<point x="296" y="938"/>
			<point x="257" y="901"/>
		</contour>
	</outline>
</glyph>
<glyph name="Odieresis" format="2">
  <advance width="792"/>
  <unicode hex="00D6"/>
  <outline>
    <contour>
      <point x="397" y="-14" type="curve" smooth="yes"/>
      <point x="502" y="-14"/>
      <point x="584" y="25"/>
      <point x="643" y="104" type="curve" smooth="yes"/>
      <point x="696" y="175"/>
      <point x="723" y="265"/>
      <point x="723" y="375" type="curve" smooth="yes"/>
      <point x="723" y="483"/>
      <point x="696" y="569"/>
      <point x="643" y="633" type="curve" smooth="yes"/>
      <point x="586" y="702"/>
      <point x="504" y="736"/>
      <point x="397" y="736" type="curve" smooth="yes"/>
      <point x="290" y="736"/>
      <point x="207" y="702"/>
      <point x="149" y="633" type="curve" smooth="yes"/>
      <point x="96" y="569"/>
      <point x="69" y="483"/>
      <point x="69" y="375" type="curve" smooth="yes"/>
      <point x="69" y="265"/>
      <point x="96" y="175"/>
      <point x="149" y="104" type="curve" smooth="yes"/>
      <point x="208" y="25"/>
      <point x="291" y="-14"/>
    </contour>
    <contour>
      <point x="397" y="74" type="curve" smooth="yes"/>
      <point x="316" y="74"/>
      <point x="257" y="105"/>
      <point x="219" y="168" type="curve" smooth="yes"/>
      <point x="188" y="219"/>
      <point x="172" y="288"/>
      <point x="172" y="375" type="curve" smooth="yes"/>
      <point x="172" y="558"/>
      <point x="247" y="649"/>
      <point x="397" y="649" type="curve" smooth="yes"/>
      <point x="546" y="649"/>
      <point x="620" y="558"/>
      <point x="620" y="375" type="curve" smooth="yes"/>
      <point x="620" y="288"/>
      <point x="605" y="219"/>
      <point x="574" y="168" type="curve" smooth="yes"/>
      <point x="537" y="105"/>
      <point x="478" y="74"/>
    </contour>
    <contour>
      <point x="269" y="850" type="line"/>
      <point x="359" y="850" type="line"/>
      <point x="359" y="942" type="line"/>
      <point x="269" y="942" type="line"/>
    </contour>
    <contour>
      <point x="469" y="850" type="line"/>
      <point x="559" y="850" type="line"/>
      <point x="559" y="942" type="line"/>
      <point x="469" y="942" type="line"/>
    </contour>
  </outline>
</glyph>
<glyph name="multiply" format="2">
  <advance width="1064"/>
  <unicode hex="00D7"/>
  <outline>
    <contour>
      <point x="802" y="69" type="line"/>
      <point x="763" y="30" type="line"/>
      <point x="532" y="262" type="line"/>
      <point x="301" y="30" type="line"/>
      <point x="262" y="69" type="line"/>
      <point x="492" y="300" type="line"/>
      <point x="262" y="531" type="line"/>
      <point x="301" y="570" type="line"/>
      <point x="532" y="338" type="line"/>
      <point x="763" y="570" type="line"/>
      <point x="802" y="531" type="line"/>
      <point x="572" y="300" type="line"/>
    </contour>
  </outline>
</glyph>
<glyph name="Oslash" format="2">
  <advance width="793"/>
  <unicode hex="00D8"/>
  <outline>
    <contour>
      <point x="724" y="768" type="line"/>
      <point x="638" y="639" type="line"/>
      <point x="695" y="575"/>
      <point x="723" y="487"/>
      <point x="723" y="375" type="curve" smooth="yes"/>
      <point x="723" y="265"/>
      <point x="696" y="175"/>
      <point x="643" y="104" type="curve" smooth="yes"/>
      <point x="584" y="25"/>
      <point x="502" y="-14"/>
      <point x="397" y="-14" type="curve" smooth="yes"/>
      <point x="334" y="-14"/>
      <point x="278" y="0"/>
      <point x="231" y="29" type="curve"/>
      <point x="144" y="-101" type="line"/>
      <point x="69" y="-52" type="line"/>
      <point x="162" y="88" type="line"/>
      <point x="100" y="160"/>
      <point x="69" y="256"/>
      <point x="69" y="375" type="curve" smooth="yes"/>
      <point x="69" y="483"/>
      <point x="96" y="569"/>
      <point x="149" y="633" type="curve" smooth="yes"/>
      <point x="207" y="702"/>
      <point x="290" y="736"/>
      <point x="397" y="736" type="curve" smooth="yes"/>
      <point x="464" y="736"/>
      <point x="521" y="723"/>
      <point x="568" y="696" type="curve"/>
      <point x="649" y="817" type="line"/>
    </contour>
    <contour>
      <point x="620" y="375" type="curve" smooth="yes"/>
      <point x="620" y="452"/>
      <point x="607" y="512"/>
      <point x="582" y="556" type="curve"/>
      <point x="281" y="104" type="line"/>
      <point x="313" y="84"/>
      <point x="352" y="74"/>
      <point x="397" y="74" type="curve" smooth="yes"/>
      <point x="478" y="74"/>
      <point x="537" y="105"/>
      <point x="574" y="168" type="curve" smooth="yes"/>
      <point x="605" y="219"/>
      <point x="620" y="288"/>
    </contour>
    <contour>
      <point x="518" y="621" type="line"/>
      <point x="485" y="640"/>
      <point x="445" y="649"/>
      <point x="397" y="649" type="curve" smooth="yes"/>
      <point x="247" y="649"/>
      <point x="172" y="558"/>
      <point x="172" y="375" type="curve" smooth="yes"/>
      <point x="172" y="289"/>
      <point x="187" y="221"/>
      <point x="217" y="170" type="curve"/>
    </contour>
  </outline>
</glyph>
<glyph name="Uacute" format="2">
  <advance width="761"/>
  <unicode hex="00DA"/>
  <outline>
    <contour>
      <point x="520" y="992" type="line"/>
      <point x="380" y="821" type="line"/>
      <point x="319" y="821" type="line"/>
      <point x="419" y="992" type="line"/>
    </contour>
    <contour>
      <point x="669" y="322" type="line" smooth="yes"/>
      <point x="669" y="82"/>
      <point x="583" y="-14"/>
      <point x="380" y="-14" type="curve" smooth="yes"/>
      <point x="177" y="-14"/>
      <point x="92" y="82"/>
      <point x="92" y="322" type="curve" smooth="yes"/>
      <point x="92" y="722" type="line"/>
      <point x="193" y="722" type="line"/>
      <point x="193" y="322" type="line" smooth="yes"/>
      <point x="193" y="223"/>
      <point x="212" y="155"/>
      <point x="249" y="117" type="curve" smooth="yes"/>
      <point x="277" y="88"/>
      <point x="321" y="74"/>
      <point x="380" y="74" type="curve" smooth="yes"/>
      <point x="439" y="74"/>
      <point x="483" y="88"/>
      <point x="511" y="116" type="curve" smooth="yes"/>
      <point x="549" y="154"/>
      <point x="568" y="223"/>
      <point x="568" y="322" type="curve" smooth="yes"/>
      <point x="568" y="722" type="line"/>
      <point x="669" y="722" type="line"/>
    </contour>
  </outline>
</glyph>
<glyph name="Ucircumflex" format="2">
  <advance width="761"/>
  <unicode hex="00DB"/>
  <outline>
    <contour>
      <point x="525" y="821" type="line"/>
      <point x="465" y="821" type="line"/>
      <point x="380" y="931" type="line"/>
      <point x="295" y="821" type="line"/>
      <point x="235" y="821" type="line"/>
      <point x="325" y="991" type="line"/>
      <point x="435" y="991" type="line"/>
    </contour>
    <contour>
      <point x="669" y="322" type="line" smooth="yes"/>
      <point x="669" y="82"/>
      <point x="583" y="-14"/>
      <point x="380" y="-14" type="curve" smooth="yes"/>
      <point x="177" y="-14"/>
      <point x="92" y="82"/>
      <point x="92" y="322" type="curve" smooth="yes"/>
      <point x="92" y="722" type="line"/>
      <point x="193" y="722" type="line"/>
      <point x="193" y="322" type="line" smooth="yes"/>
      <point x="193" y="223"/>
      <point x="212" y="155"/>
      <point x="249" y="117" type="curve" smooth="yes"/>
      <point x="277" y="88"/>
      <point x="321" y="74"/>
      <point x="380" y="74" type="curve" smooth="yes"/>
      <point x="439" y="74"/>
      <point x="483" y="88"/>
      <point x="511" y="116" type="curve" smooth="yes"/>
      <point x="549" y="154"/>
      <point x="568" y="223"/>
      <point x="568" y="322" type="curve" smooth="yes"/>
      <point x="568" y="722" type="line"/>
      <point x="669" y="722" type="line"/>
    </contour>
  </outline>
</glyph>
<glyph name="Yacute" format="2">
  <advance width="670"/>
  <unicode hex="00DD"/>
  <outline>
    <contour>
      <point x="284" y="0" type="line"/>
      <point x="385" y="0" type="line"/>
      <point x="385" y="287" type="line"/>
      <point x="653" y="722" type="line"/>
      <point x="539" y="722" type="line"/>
      <point x="341" y="375" type="line"/>
      <point x="140" y="722" type="line"/>
      <point x="17" y="722" type="line"/>
      <point x="284" y="287" type="line"/>
    </contour>
    <contour>
      <point x="292" y="822" type="line"/>
      <point x="353" y="822" type="line"/>
      <point x="493" y="993" type="line"/>
      <point x="392" y="993" type="line"/>
    </contour>
  </outline>
</glyph>
<glyph name="Thorn" format="2">
  <advance width="644"/>
  <unicode hex="00DE"/>
  <outline>
    <contour>
      <point x="575" y="379" type="curve" smooth="yes"/>
      <point x="575" y="297"/>
      <point x="546" y="240"/>
      <point x="488" y="207" type="curve" smooth="yes"/>
      <point x="445" y="183"/>
      <point x="381" y="171"/>
      <point x="296" y="171" type="curve" smooth="yes"/>
      <point x="193" y="171" type="line"/>
      <point x="193" y="-0" type="line"/>
      <point x="92" y="-0" type="line"/>
      <point x="92" y="722" type="line"/>
      <point x="193" y="722" type="line"/>
      <point x="193" y="587" type="line"/>
      <point x="296" y="587" type="line" smooth="yes"/>
      <point x="381" y="587"/>
      <point x="445" y="575"/>
      <point x="488" y="551" type="curve" smooth="yes"/>
      <point x="546" y="518"/>
      <point x="575" y="461"/>
    </contour>
    <contour>
      <point x="478" y="379" type="curve" smooth="yes"/>
      <point x="478" y="467"/>
      <point x="423" y="500"/>
      <point x="299" y="500" type="curve" smooth="yes"/>
      <point x="193" y="500" type="line"/>
      <point x="193" y="259" type="line"/>
      <point x="299" y="259" type="line" smooth="yes"/>
      <point x="423" y="259"/>
      <point x="478" y="291"/>
    </contour>
  </outline>
</glyph>
<glyph name="germandbls" format="2">
  <advance width="567"/>
  <unicode hex="00DF"/>
  <outline>
    <contour>
      <point x="567" y="152" type="curve" smooth="yes"/>
      <point x="567" y="41"/>
      <point x="514" y="-13"/>
      <point x="400" y="-13" type="curve"/>
      <point x="311" y="-11"/>
      <point x="215" y="47"/>
      <point x="215" y="141" type="curve"/>
      <point x="308" y="141" type="line"/>
      <point x="318" y="86"/>
      <point x="357" y="58"/>
      <point x="424" y="58" type="curve" smooth="yes"/>
      <point x="470" y="58"/>
      <point x="479" y="70"/>
      <point x="479" y="150" type="curve" smooth="yes"/>
      <point x="479" y="181"/>
      <point x="460" y="208"/>
      <point x="423" y="232" type="curve"/>
      <point x="320" y="292" type="line"/>
      <point x="283" y="319"/>
      <point x="265" y="353"/>
      <point x="265" y="393" type="curve" smooth="yes"/>
      <point x="265" y="419"/>
      <point x="276" y="443"/>
      <point x="298" y="465" type="curve"/>
      <point x="360" y="514" type="line" smooth="yes"/>
      <point x="381" y="530"/>
      <point x="392" y="547"/>
      <point x="392" y="562" type="curve" smooth="yes"/>
      <point x="392" y="622"/>
      <point x="359" y="662"/>
      <point x="303" y="662" type="curve" smooth="yes"/>
      <point x="231" y="662"/>
      <point x="152" y="620"/>
      <point x="152" y="560" type="curve" smooth="yes"/>
      <point x="152" y="0" type="line"/>
      <point x="62" y="0" type="line"/>
      <point x="62" y="582" type="line" smooth="yes"/>
      <point x="62" y="646"/>
      <point x="155" y="735"/>
      <point x="280" y="735" type="curve"/>
      <point x="416" y="731"/>
      <point x="486" y="682"/>
      <point x="486" y="580" type="curve" smooth="yes"/>
      <point x="486" y="528"/>
      <point x="479" y="520"/>
      <point x="392" y="439" type="curve" smooth="yes"/>
      <point x="370" y="418"/>
      <point x="359" y="402"/>
      <point x="359" y="388" type="curve" smooth="yes"/>
      <point x="359" y="373"/>
      <point x="377" y="355"/>
      <point x="413" y="336" type="curve" smooth="yes"/>
      <point x="540" y="268"/>
      <point x="567" y="233"/>
    </contour>
  </outline>
</glyph>
<glyph name="aacute" format="2">
  <advance width="565"/>
  <unicode hex="00E1"/>
  <outline>
    <contour>
      <point x="409" y="771" type="line"/>
      <point x="269" y="600" type="line"/>
      <point x="208" y="600" type="line"/>
      <point x="308" y="771" type="line"/>
    </contour>
    <contour>
      <point x="500" y="0" type="curve"/>
      <point x="410" y="0" type="line"/>
      <point x="407" y="15"/>
      <point x="403" y="40"/>
      <point x="399" y="73" type="curve"/>
      <point x="374" y="43"/>
      <point x="354" y="22"/>
      <point x="337" y="11" type="curve" smooth="yes"/>
      <point x="312" y="-5"/>
      <point x="282" y="-13"/>
      <point x="246" y="-13" type="curve" smooth="yes"/>
      <point x="198" y="-13"/>
      <point x="156" y="-1"/>
      <point x="119" y="23" type="curve" smooth="yes"/>
      <point x="76" y="50"/>
      <point x="55" y="87"/>
      <point x="55" y="132" type="curve" smooth="yes"/>
      <point x="55" y="200"/>
      <point x="85" y="250"/>
      <point x="146" y="281" type="curve" smooth="yes"/>
      <point x="192" y="304"/>
      <point x="252" y="316"/>
      <point x="326" y="316" type="curve" smooth="yes"/>
      <point x="342" y="316"/>
      <point x="382" y="314"/>
      <point x="395" y="314" type="curve"/>
      <point x="398" y="326"/>
      <point x="399" y="337"/>
      <point x="399" y="348" type="curve" smooth="yes"/>
      <point x="399" y="413"/>
      <point x="362" y="446"/>
      <point x="287" y="446" type="curve" smooth="yes"/>
      <point x="256" y="446"/>
      <point x="231" y="440"/>
      <point x="212" y="429" type="curve" smooth="yes"/>
      <point x="187" y="415"/>
      <point x="175" y="394"/>
      <point x="175" y="365" type="curve"/>
      <point x="82" y="365" type="line"/>
      <point x="82" y="464"/>
      <point x="149" y="513"/>
      <point x="283" y="513" type="curve" smooth="yes"/>
      <point x="390" y="513"/>
      <point x="454" y="485"/>
      <point x="476" y="428" type="curve" smooth="yes"/>
      <point x="483" y="409"/>
      <point x="487" y="357"/>
      <point x="487" y="270" type="curve" smooth="yes"/>
      <point x="487" y="183" type="line" smooth="yes"/>
      <point x="487" y="85"/>
      <point x="491" y="24"/>
    </contour>
    <contour>
      <point x="394" y="246" type="curve"/>
      <point x="367" y="248"/>
      <point x="350" y="249"/>
      <point x="342" y="249" type="curve" smooth="yes"/>
      <point x="296" y="249"/>
      <point x="256" y="242"/>
      <point x="221" y="229" type="curve" smooth="yes"/>
      <point x="172" y="211"/>
      <point x="148" y="183"/>
      <point x="148" y="144" type="curve" smooth="yes"/>
      <point x="148" y="117"/>
      <point x="158" y="95"/>
      <point x="178" y="78" type="curve" smooth="yes"/>
      <point x="196" y="62"/>
      <point x="219" y="54"/>
      <point x="247" y="54" type="curve" smooth="yes"/>
      <point x="304" y="54"/>
      <point x="344" y="73"/>
      <point x="367" y="111" type="curve" smooth="yes"/>
      <point x="385" y="140"/>
      <point x="394" y="185"/>
    </contour>
  </outline>
</glyph>
<glyph name="ae" format="2">
	<advance width="924"/>
	<unicode hex="00E6"/>
	<outline>
		<contour>
			<point x="247" y="-13" type="curve" smooth="yes"/>
			<point x="364" y="-13"/>
			<point x="436" y="33"/>
			<point x="465" y="126" type="curve"/>
			<point x="484" y="37"/>
			<point x="559" y="-13"/>
			<point x="664" y="-13" type="curve" smooth="yes"/>
			<point x="773" y="-13"/>
			<point x="847" y="52"/>
			<point x="860" y="157" type="curve"/>
			<point x="770" y="157" type="line"/>
			<point x="754" y="90"/>
			<point x="712" y="56"/>
			<point x="644" y="56" type="curve" smooth="yes"/>
			<point x="597" y="56"/>
			<point x="562" y="76"/>
			<point x="538" y="116" type="curve" smooth="yes"/>
			<point x="519" y="148"/>
			<point x="509" y="189"/>
			<point x="509" y="238" type="curve"/>
			<point x="868" y="238" type="line"/>
			<point x="869" y="255"/>
			<point x="869" y="269"/>
			<point x="869" y="280" type="curve" smooth="yes"/>
			<point x="869" y="338"/>
			<point x="854" y="389"/>
			<point x="823" y="432" type="curve"/>
			<point x="786" y="486"/>
			<point x="732" y="513"/>
			<point x="661" y="513" type="curve" smooth="yes"/>
			<point x="613" y="513"/>
			<point x="576" y="506"/>
			<point x="551" y="493" type="curve" smooth="yes"/>
			<point x="516" y="475"/>
			<point x="489" y="441"/>
			<point x="471" y="390" type="curve"/>
			<point x="440" y="472"/>
			<point x="380" y="513"/>
			<point x="292" y="513" type="curve" smooth="yes"/>
			<point x="153" y="513"/>
			<point x="83" y="467"/>
			<point x="83" y="374" type="curve"/>
			<point x="176" y="374" type="line"/>
			<point x="176" y="423"/>
			<point x="213" y="447"/>
			<point x="288" y="446" type="curve" smooth="yes"/>
			<point x="371" y="445"/>
			<point x="414" y="398"/>
			<point x="416" y="305" type="curve"/>
			<point x="405" y="305"/>
			<point x="340" y="311"/>
			<point x="299" y="311" type="curve"/>
			<point x="138" y="309"/>
			<point x="57" y="250"/>
			<point x="57" y="135" type="curve" smooth="yes"/>
			<point x="57" y="48"/>
			<point x="130" y="-13"/>
		</contour>
		<contour>
			<point x="264" y="58" type="curve" smooth="yes"/>
			<point x="232" y="57"/>
			<point x="205" y="64"/>
			<point x="184" y="78" type="curve" smooth="yes"/>
			<point x="158" y="95"/>
			<point x="146" y="118"/>
			<point x="147" y="149" type="curve" smooth="yes"/>
			<point x="149" y="211"/>
			<point x="215" y="243"/>
			<point x="344" y="246" type="curve" smooth="yes"/>
			<point x="370" y="247"/>
			<point x="396" y="246"/>
			<point x="422" y="243" type="curve"/>
			<point x="425" y="182"/>
			<point x="409" y="132"/>
			<point x="373" y="91" type="curve" smooth="yes"/>
			<point x="354" y="70"/>
			<point x="318" y="59"/>
		</contour>
		<contour>
			<point x="514" y="305" type="line"/>
			<point x="524" y="400"/>
			<point x="568" y="448"/>
			<point x="647" y="448" type="curve" smooth="yes"/>
			<point x="724" y="448"/>
			<point x="767" y="400"/>
			<point x="776" y="305" type="curve"/>
		</contour>
	</outline>
</glyph>
<glyph name="ccedilla" format="2">
  <advance width="535"/>
  <unicode hex="00E7"/>
  <outline>
    <contour>
      <point x="279" y="-243" type="curve" smooth="yes"/>
      <point x="359" y="-243"/>
      <point x="432" y="-209"/>
      <point x="432" y="-158" type="curve" smooth="yes"/>
      <point x="432" y="-86"/>
      <point x="382" y="-50"/>
      <point x="282" y="-50" type="curve"/>
      <point x="282" y="-13" type="line"/>
      <point x="350" y="-12"/>
      <point x="401" y="7"/>
      <point x="435" y="44" type="curve" smooth="yes"/>
      <point x="464" y="76"/>
      <point x="478" y="118"/>
      <point x="478" y="169" type="curve"/>
      <point x="389" y="169" type="line"/>
      <point x="389" y="140"/>
      <point x="381" y="116"/>
      <point x="366" y="95" type="curve" smooth="yes"/>
      <point x="346" y="68"/>
      <point x="317" y="55"/>
      <point x="279" y="55" type="curve" smooth="yes"/>
      <point x="191" y="55"/>
      <point x="147" y="120"/>
      <point x="147" y="250" type="curve" smooth="yes"/>
      <point x="147" y="380"/>
      <point x="185" y="445"/>
      <point x="262" y="445" type="curve" smooth="yes"/>
      <point x="345" y="445"/>
      <point x="386" y="417"/>
      <point x="386" y="362" type="curve" smooth="yes"/>
      <point x="386" y="356"/>
      <point x="385" y="350"/>
      <point x="384" y="343" type="curve"/>
      <point x="473" y="343" type="line"/>
      <point x="474" y="350"/>
      <point x="474" y="357"/>
      <point x="474" y="364" type="curve" smooth="yes"/>
      <point x="474" y="409"/>
      <point x="457" y="445"/>
      <point x="424" y="471" type="curve" smooth="yes"/>
      <point x="388" y="499"/>
      <point x="336" y="513"/>
      <point x="269" y="513" type="curve" smooth="yes"/>
      <point x="121" y="513"/>
      <point x="57" y="427"/>
      <point x="57" y="250" type="curve" smooth="yes"/>
      <point x="57" y="89"/>
      <point x="119" y="2"/>
      <point x="242" y="-11" type="curve"/>
      <point x="242" y="-100" type="line"/>
      <point x="322" y="-97"/>
      <point x="362" y="-117"/>
      <point x="362" y="-159" type="curve" smooth="yes"/>
      <point x="362" y="-184"/>
      <point x="338" y="-196"/>
      <point x="289" y="-196" type="curve" smooth="yes"/>
      <point x="259" y="-196"/>
      <point x="224" y="-192"/>
      <point x="183" y="-184" type="curve"/>
      <point x="183" y="-234" type="line"/>
      <point x="222" y="-240"/>
      <point x="254" y="-243"/>
    </contour>
  </outline>
</glyph>
<glyph name="ecircumflex" format="2">
  <advance width="571"/>
  <unicode hex="00EA"/>
  <outline>
    <contour>
      <point x="429" y="600" type="line"/>
      <point x="369" y="600" type="line"/>
      <point x="284" y="710" type="line"/>
      <point x="199" y="600" type="line"/>
      <point x="139" y="600" type="line"/>
      <point x="229" y="770" type="line"/>
      <point x="339" y="770" type="line"/>
    </contour>
    <contour>
      <point x="514" y="283" type="curve" smooth="yes"/>
      <point x="514" y="266"/>
      <point x="513" y="250"/>
      <point x="511" y="236" type="curve"/>
      <point x="154" y="236" type="line"/>
      <point x="154" y="181"/>
      <point x="164" y="137"/>
      <point x="185" y="106" type="curve" smooth="yes"/>
      <point x="208" y="70"/>
      <point x="242" y="52"/>
      <point x="287" y="52" type="curve" smooth="yes"/>
      <point x="328" y="52"/>
      <point x="360" y="64"/>
      <point x="383" y="89" type="curve" smooth="yes"/>
      <point x="400" y="108"/>
      <point x="411" y="132"/>
      <point x="414" y="159" type="curve"/>
      <point x="511" y="159" type="line"/>
      <point x="502" y="117"/>
      <point x="485" y="81"/>
      <point x="458" y="52" type="curve" smooth="yes"/>
      <point x="417" y="9"/>
      <point x="360" y="-13"/>
      <point x="286" y="-13" type="curve" smooth="yes"/>
      <point x="209" y="-13"/>
      <point x="150" y="16"/>
      <point x="109" y="75" type="curve" smooth="yes"/>
      <point x="74" y="124"/>
      <point x="57" y="182"/>
      <point x="57" y="250" type="curve" smooth="yes"/>
      <point x="57" y="322"/>
      <point x="74" y="381"/>
      <point x="108" y="428" type="curve" smooth="yes"/>
      <point x="149" y="485"/>
      <point x="211" y="513"/>
      <point x="292" y="513" type="curve" smooth="yes"/>
      <point x="377" y="513"/>
      <point x="439" y="485"/>
      <point x="476" y="428" type="curve" smooth="yes"/>
      <point x="501" y="389"/>
      <point x="514" y="341"/>
    </contour>
    <contour>
      <point x="414" y="301" type="line"/>
      <point x="415" y="309"/>
      <point x="416" y="317"/>
      <point x="416" y="325" type="curve" smooth="yes"/>
      <point x="416" y="361"/>
      <point x="406" y="390"/>
      <point x="387" y="411" type="curve" smooth="yes"/>
      <point x="365" y="436"/>
      <point x="332" y="449"/>
      <point x="288" y="449" type="curve" smooth="yes"/>
      <point x="212" y="449"/>
      <point x="167" y="400"/>
      <point x="154" y="301" type="curve"/>
    </contour>
  </outline>
</glyph>
<glyph name="edieresis" format="2">
	<advance width="571"/>
	<unicode hex="00EB"/>
	<outline>
		<contour>
			<point x="286" y="-13" type="curve" smooth="yes"/>
			<point x="360" y="-13"/>
			<point x="417" y="9"/>
			<point x="458" y="52" type="curve" smooth="yes"/>
			<point x="485" y="81"/>
			<point x="502" y="117"/>
			<point x="511" y="159" type="curve"/>
			<point x="414" y="159" type="line"/>
			<point x="411" y="132"/>
			<point x="400" y="108"/>
			<point x="383" y="89" type="curve" smooth="yes"/>
			<point x="360" y="64"/>
			<point x="328" y="52"/>
			<point x="287" y="52" type="curve" smooth="yes"/>
			<point x="242" y="52"/>
			<point x="208" y="70"/>
			<point x="185" y="106" type="curve" smooth="yes"/>
			<point x="164" y="137"/>
			<point x="154" y="181"/>
			<point x="154" y="236" type="curve"/>
			<point x="511" y="236" type="line"/>
			<point x="513" y="250"/>
			<point x="514" y="266"/>
			<point x="514" y="283" type="curve" smooth="yes"/>
			<point x="514" y="341"/>
			<point x="501" y="389"/>
			<point x="476" y="428" type="curve" smooth="yes"/>
			<point x="439" y="485"/>
			<point x="377" y="513"/>
			<point x="292" y="513" type="curve" smooth="yes"/>
			<point x="211" y="513"/>
			<point x="149" y="485"/>
			<point x="108" y="428" type="curve" smooth="yes"/>
			<point x="74" y="381"/>
			<point x="57" y="322"/>
			<point x="57" y="250" type="curve" smooth="yes"/>
			<point x="57" y="182"/>
			<point x="74" y="124"/>
			<point x="109" y="75" type="curve" smooth="yes"/>
			<point x="150" y="16"/>
			<point x="209" y="-13"/>
		</contour>
		<contour>
			<point x="154" y="301" type="line"/>
			<point x="167" y="400"/>
			<point x="212" y="449"/>
			<point x="288" y="449" type="curve" smooth="yes"/>
			<point x="332" y="449"/>
			<point x="365" y="436"/>
			<point x="387" y="411" type="curve" smooth="yes"/>
			<point x="406" y="390"/>
			<point x="416" y="361"/>
			<point x="416" y="325" type="curve" smooth="yes"/>
			<point x="416" y="317"/>
			<point x="415" y="309"/>
			<point x="414" y="301" type="curve"/>
		</contour>
		<contour>
			<point x="139" y="630" type="line"/>
			<point x="229" y="630" type="line"/>
			<point x="229" y="722" type="line"/>
			<point x="139" y="722" type="line"/>
		</contour>
		<contour>
			<point x="339" y="630" type="line"/>
			<point x="429" y="630" type="line"/>
			<point x="429" y="722" type="line"/>
			<point x="339" y="722" type="line"/>
		</contour>
	</outline>
</glyph>
<glyph name="igrave" format="2">
  <advance width="235"/>
  <unicode hex="00EC"/>
  <outline>
    <contour>
      <point x="173" y="600" type="line"/>
      <point x="112" y="600" type="line"/>
      <point x="-28" y="771" type="line"/>
      <point x="73" y="771" type="line"/>
    </contour>
    <contour>
      <point x="157" y="0" type="line"/>
      <point x="67" y="0" type="line"/>
      <point x="67" y="500" type="line"/>
      <point x="157" y="500" type="line"/>
    </contour>
  </outline>
</glyph>
<glyph name="iacute" format="2">
	<advance width="235"/>
	<unicode hex="00ED"/>
	<outline>
		<contour>
			<point x="78" y="0" type="line"/>
			<point x="168" y="0" type="line"/>
			<point x="168" y="500" type="line"/>
			<point x="78" y="500" type="line"/>
		</contour>
		<contour>
			<point x="62" y="600" type="line"/>
			<point x="123" y="600" type="line"/>
			<point x="263" y="771" type="line"/>
			<point x="162" y="771" type="line"/>
		</contour>
	</outline>
</glyph>
<glyph name="icircumflex" format="2">
	<advance width="222"/>
	<unicode hex="00EE"/>
	<outline>
		<contour>
			<point x="-34" y="600" type="line"/>
			<point x="26" y="600" type="line"/>
			<point x="111" y="710" type="line"/>
			<point x="196" y="600" type="line"/>
			<point x="256" y="600" type="line"/>
			<point x="166" y="770" type="line"/>
			<point x="56" y="770" type="line"/>
		</contour>
		<contour>
			<point x="66" y="0" type="line"/>
			<point x="156" y="0" type="line"/>
			<point x="156" y="500" type="line"/>
			<point x="66" y="500" type="line"/>
		</contour>
	</outline>
</glyph>
<glyph name="idieresis" format="2">
  <advance width="222"/>
  <unicode hex="00EF"/>
  <outline>
    <contour>
      <point x="256" y="630" type="line"/>
      <point x="166" y="630" type="line"/>
      <point x="166" y="722" type="line"/>
      <point x="256" y="722" type="line"/>
    </contour>
    <contour>
      <point x="56" y="630" type="line"/>
      <point x="-34" y="630" type="line"/>
      <point x="-34" y="722" type="line"/>
      <point x="56" y="722" type="line"/>
    </contour>
    <contour>
      <point x="156" y="0" type="line"/>
      <point x="66" y="0" type="line"/>
      <point x="66" y="500" type="line"/>
      <point x="156" y="500" type="line"/>
    </contour>
  </outline>
</glyph>
<glyph name="eth" format="2">
	<advance width="602"/>
	<unicode hex="00F0"/>
	<outline>
		<contour>
			<point x="301" y="-13" type="curve" smooth="yes"/>
			<point x="382" y="-13"/>
			<point x="445" y="13"/>
			<point x="488" y="66" type="curve" smooth="yes"/>
			<point x="526" y="113"/>
			<point x="545" y="175"/>
			<point x="545" y="250" type="curve" smooth="yes"/>
			<point x="545" y="360"/>
			<point x="509" y="456"/>
			<point x="437" y="538" type="curve" smooth="yes"/>
			<point x="406" y="572"/>
			<point x="370" y="602"/>
			<point x="328" y="627" type="curve"/>
			<point x="464" y="690" type="line"/>
			<point x="443" y="732" type="line"/>
			<point x="281" y="659" type="line"/>
			<point x="147" y="734" type="line"/>
			<point x="97" y="705" type="line"/>
			<point x="214" y="628" type="line"/>
			<point x="75" y="566" type="line"/>
			<point x="94" y="523" type="line"/>
			<point x="265" y="598" type="line"/>
			<point x="314" y="565"/>
			<point x="342" y="537"/>
			<point x="348" y="512" type="curve"/>
			<point x="347" y="512"/>
			<point x="340" y="512"/>
			<point x="329" y="513" type="curve"/>
			<point x="318" y="513"/>
			<point x="308" y="513"/>
			<point x="301" y="513" type="curve"/>
			<point x="216" y="512"/>
			<point x="152" y="486"/>
			<point x="111" y="435" type="curve" smooth="yes"/>
			<point x="75" y="390"/>
			<point x="57" y="329"/>
			<point x="57" y="250" type="curve" smooth="yes"/>
			<point x="57" y="169"/>
			<point x="77" y="106"/>
			<point x="118" y="60" type="curve" smooth="yes"/>
			<point x="161" y="11"/>
			<point x="222" y="-13"/>
		</contour>
		<contour>
			<point x="301" y="55" type="curve" smooth="yes"/>
			<point x="250" y="55"/>
			<point x="212" y="74"/>
			<point x="185" y="112" type="curve" smooth="yes"/>
			<point x="161" y="147"/>
			<point x="149" y="193"/>
			<point x="149" y="250" type="curve" smooth="yes"/>
			<point x="149" y="362"/>
			<point x="210" y="445"/>
			<point x="301" y="445" type="curve" smooth="yes"/>
			<point x="396" y="445"/>
			<point x="453" y="371"/>
			<point x="453" y="250" type="curve" smooth="yes"/>
			<point x="453" y="197"/>
			<point x="441" y="153"/>
			<point x="418" y="118" type="curve" smooth="yes"/>
			<point x="391" y="76"/>
			<point x="352" y="55"/>
		</contour>
	</outline>
</glyph>
<glyph name="ntilde" format="2">
  <advance width="594"/>
  <unicode hex="00F1"/>
  <outline>
    <contour>
      <point x="442" y="722" type="line"/>
      <point x="439" y="691"/>
      <point x="429" y="667"/>
      <point x="412" y="648" type="curve" smooth="yes"/>
      <point x="396" y="632"/>
      <point x="378" y="624"/>
      <point x="357" y="624" type="curve" smooth="yes"/>
      <point x="314" y="624"/>
      <point x="251" y="661"/>
      <point x="239" y="661" type="curve" smooth="yes"/>
      <point x="225" y="661"/>
      <point x="214" y="647"/>
      <point x="207" y="620" type="curve"/>
      <point x="152" y="620" type="line"/>
      <point x="157" y="681"/>
      <point x="196" y="718"/>
      <point x="236" y="718" type="curve" smooth="yes"/>
      <point x="280" y="718"/>
      <point x="344" y="681"/>
      <point x="356" y="681" type="curve" smooth="yes"/>
      <point x="370" y="681"/>
      <point x="380" y="695"/>
      <point x="387" y="722" type="curve"/>
    </contour>
    <contour>
      <point x="514" y="0" type="line"/>
      <point x="425" y="0" type="line"/>
      <point x="425" y="331" type="line" smooth="yes"/>
      <point x="425" y="399"/>
      <point x="369" y="453"/>
      <point x="302" y="453" type="curve" smooth="yes"/>
      <point x="229" y="453"/>
      <point x="170" y="399"/>
      <point x="170" y="323" type="curve" smooth="yes"/>
      <point x="170" y="0" type="line"/>
      <point x="80" y="0" type="line"/>
      <point x="80" y="500" type="line"/>
      <point x="170" y="500" type="line"/>
      <point x="170" y="436" type="line"/>
      <point x="185" y="451"/>
      <point x="199" y="466"/>
      <point x="213" y="481" type="curve"/>
      <point x="239" y="502"/>
      <point x="275" y="513"/>
      <point x="322" y="513" type="curve" smooth="yes"/>
      <point x="450" y="513"/>
      <point x="514" y="452"/>
      <point x="514" y="329" type="curve" smooth="yes"/>
    </contour>
  </outline>
</glyph>
<glyph name="ocircumflex" format="2">
  <advance width="606"/>
  <unicode hex="00F4"/>
  <outline>
    <contour>
      <point x="448" y="600" type="line"/>
      <point x="388" y="600" type="line"/>
      <point x="303" y="710" type="line"/>
      <point x="218" y="600" type="line"/>
      <point x="158" y="600" type="line"/>
      <point x="248" y="770" type="line"/>
      <point x="358" y="770" type="line"/>
    </contour>
    <contour>
      <point x="549" y="250" type="curve" smooth="yes"/>
      <point x="549" y="165"/>
      <point x="525" y="99"/>
      <point x="477" y="52" type="curve" smooth="yes"/>
      <point x="432" y="9"/>
      <point x="374" y="-13"/>
      <point x="303" y="-13" type="curve" smooth="yes"/>
      <point x="231" y="-13"/>
      <point x="173" y="9"/>
      <point x="129" y="52" type="curve" smooth="yes"/>
      <point x="81" y="99"/>
      <point x="57" y="165"/>
      <point x="57" y="250" type="curve" smooth="yes"/>
      <point x="57" y="335"/>
      <point x="81" y="402"/>
      <point x="129" y="449" type="curve" smooth="yes"/>
      <point x="173" y="492"/>
      <point x="231" y="513"/>
      <point x="303" y="513" type="curve" smooth="yes"/>
      <point x="374" y="513"/>
      <point x="432" y="492"/>
      <point x="477" y="449" type="curve" smooth="yes"/>
      <point x="525" y="402"/>
      <point x="549" y="335"/>
    </contour>
    <contour>
      <point x="455" y="250" type="curve" smooth="yes"/>
      <point x="455" y="303"/>
      <point x="443" y="348"/>
      <point x="419" y="385" type="curve" smooth="yes"/>
      <point x="391" y="428"/>
      <point x="352" y="449"/>
      <point x="303" y="449" type="curve" smooth="yes"/>
      <point x="254" y="449"/>
      <point x="215" y="428"/>
      <point x="187" y="385" type="curve" smooth="yes"/>
      <point x="163" y="348"/>
      <point x="151" y="303"/>
      <point x="151" y="250" type="curve" smooth="yes"/>
      <point x="151" y="197"/>
      <point x="163" y="153"/>
      <point x="187" y="116" type="curve" smooth="yes"/>
      <point x="214" y="73"/>
      <point x="253" y="52"/>
      <point x="303" y="52" type="curve" smooth="yes"/>
      <point x="352" y="52"/>
      <point x="391" y="73"/>
      <point x="419" y="116" type="curve" smooth="yes"/>
      <point x="443" y="153"/>
      <point x="455" y="197"/>
    </contour>
  </outline>
</glyph>
<glyph name="otilde" format="2">
  <advance width="606"/>
  <unicode hex="00F5"/>
  <outline>
    <contour>
      <point x="448" y="722" type="line"/>
      <point x="445" y="691"/>
      <point x="435" y="667"/>
      <point x="418" y="648" type="curve" smooth="yes"/>
      <point x="402" y="632"/>
      <point x="384" y="624"/>
      <point x="363" y="624" type="curve" smooth="yes"/>
      <point x="320" y="624"/>
      <point x="257" y="661"/>
      <point x="245" y="661" type="curve" smooth="yes"/>
      <point x="231" y="661"/>
      <point x="220" y="647"/>
      <point x="213" y="620" type="curve"/>
      <point x="158" y="620" type="line"/>
      <point x="163" y="681"/>
      <point x="202" y="718"/>
      <point x="242" y="718" type="curve" smooth="yes"/>
      <point x="286" y="718"/>
      <point x="350" y="681"/>
      <point x="362" y="681" type="curve" smooth="yes"/>
      <point x="376" y="681"/>
      <point x="386" y="695"/>
      <point x="393" y="722" type="curve"/>
    </contour>
    <contour>
      <point x="549" y="250" type="curve" smooth="yes"/>
      <point x="549" y="165"/>
      <point x="525" y="99"/>
      <point x="477" y="52" type="curve" smooth="yes"/>
      <point x="432" y="9"/>
      <point x="374" y="-13"/>
      <point x="303" y="-13" type="curve" smooth="yes"/>
      <point x="231" y="-13"/>
      <point x="173" y="9"/>
      <point x="129" y="52" type="curve" smooth="yes"/>
      <point x="81" y="99"/>
      <point x="57" y="165"/>
      <point x="57" y="250" type="curve" smooth="yes"/>
      <point x="57" y="335"/>
      <point x="81" y="402"/>
      <point x="129" y="449" type="curve" smooth="yes"/>
      <point x="173" y="492"/>
      <point x="231" y="513"/>
      <point x="303" y="513" type="curve" smooth="yes"/>
      <point x="374" y="513"/>
      <point x="432" y="492"/>
      <point x="477" y="449" type="curve" smooth="yes"/>
      <point x="525" y="402"/>
      <point x="549" y="335"/>
    </contour>
    <contour>
      <point x="455" y="250" type="curve" smooth="yes"/>
      <point x="455" y="303"/>
      <point x="443" y="348"/>
      <point x="419" y="385" type="curve" smooth="yes"/>
      <point x="391" y="428"/>
      <point x="352" y="449"/>
      <point x="303" y="449" type="curve" smooth="yes"/>
      <point x="254" y="449"/>
      <point x="215" y="428"/>
      <point x="187" y="385" type="curve" smooth="yes"/>
      <point x="163" y="348"/>
      <point x="151" y="303"/>
      <point x="151" y="250" type="curve" smooth="yes"/>
      <point x="151" y="197"/>
      <point x="163" y="153"/>
      <point x="187" y="116" type="curve" smooth="yes"/>
      <point x="214" y="73"/>
      <point x="253" y="52"/>
      <point x="303" y="52" type="curve" smooth="yes"/>
      <point x="352" y="52"/>
      <point x="391" y="73"/>
      <point x="419" y="116" type="curve" smooth="yes"/>
      <point x="443" y="153"/>
      <point x="455" y="197"/>
    </contour>
  </outline>
</glyph>
<glyph name="divide" format="2">
  <advance width="1054"/>
  <unicode hex="00F7"/>
  <outline>
    <contour>
      <point x="227" y="269" type="line"/>
      <point x="827" y="269" type="line"/>
      <point x="827" y="331" type="line"/>
      <point x="227" y="331" type="line"/>
    </contour>
    <contour>
      <point x="527" y="80" type="curve" smooth="yes"/>
      <point x="560" y="80"/>
      <point x="587" y="106"/>
      <point x="587" y="139" type="curve" smooth="yes"/>
      <point x="587" y="172"/>
      <point x="560" y="199"/>
      <point x="527" y="199" type="curve" smooth="yes"/>
      <point x="494" y="199"/>
      <point x="467" y="172"/>
      <point x="467" y="139" type="curve" smooth="yes"/>
      <point x="467" y="106"/>
      <point x="494" y="80"/>
    </contour>
    <contour>
      <point x="527" y="401" type="curve" smooth="yes"/>
      <point x="560" y="401"/>
      <point x="587" y="428"/>
      <point x="587" y="461" type="curve" smooth="yes"/>
      <point x="587" y="494"/>
      <point x="560" y="521"/>
      <point x="527" y="521" type="curve" smooth="yes"/>
      <point x="494" y="521"/>
      <point x="467" y="494"/>
      <point x="467" y="461" type="curve" smooth="yes"/>
      <point x="467" y="428"/>
      <point x="494" y="401"/>
    </contour>
  </outline>
</glyph>
<glyph name="oslash" format="2">
  <advance width="602"/>
  <unicode hex="00F8"/>
  <outline>
    <contour>
      <point x="554" y="554" type="line"/>
      <point x="474" y="446" type="line"/>
      <point x="522" y="405"/>
      <point x="546" y="339"/>
      <point x="546" y="250" type="curve" smooth="yes"/>
      <point x="546" y="165"/>
      <point x="522" y="99"/>
      <point x="474" y="52" type="curve" smooth="yes"/>
      <point x="429" y="9"/>
      <point x="371" y="-13"/>
      <point x="300" y="-13" type="curve" smooth="yes"/>
      <point x="248" y="-13"/>
      <point x="203" y="-1"/>
      <point x="164" y="22" type="curve"/>
      <point x="86" y="-81" type="line"/>
      <point x="35" y="-44" type="line"/>
      <point x="117" y="62" type="line"/>
      <point x="75" y="103"/>
      <point x="54" y="165"/>
      <point x="54" y="250" type="curve" smooth="yes"/>
      <point x="54" y="335"/>
      <point x="78" y="402"/>
      <point x="126" y="449" type="curve" smooth="yes"/>
      <point x="170" y="492"/>
      <point x="228" y="513"/>
      <point x="300" y="513" type="curve" smooth="yes"/>
      <point x="347" y="513"/>
      <point x="388" y="503"/>
      <point x="424" y="484" type="curve"/>
      <point x="503" y="591" type="line"/>
    </contour>
    <contour>
      <point x="380" y="423" type="line"/>
      <point x="357" y="440"/>
      <point x="331" y="449"/>
      <point x="300" y="449" type="curve" smooth="yes"/>
      <point x="251" y="449"/>
      <point x="212" y="428"/>
      <point x="184" y="385" type="curve" smooth="yes"/>
      <point x="160" y="348"/>
      <point x="148" y="303"/>
      <point x="148" y="250" type="curve" smooth="yes"/>
      <point x="148" y="207"/>
      <point x="156" y="169"/>
      <point x="172" y="137" type="curve"/>
    </contour>
    <contour>
      <point x="452" y="250" type="curve" smooth="yes"/>
      <point x="452" y="293"/>
      <point x="442" y="335"/>
      <point x="423" y="374" type="curve"/>
      <point x="211" y="83" type="line"/>
      <point x="236" y="62"/>
      <point x="265" y="52"/>
      <point x="300" y="52" type="curve" smooth="yes"/>
      <point x="349" y="52"/>
      <point x="388" y="73"/>
      <point x="416" y="116" type="curve" smooth="yes"/>
      <point x="440" y="153"/>
      <point x="452" y="197"/>
    </contour>
  </outline>
</glyph>
